<?xml version="1.0" encoding="UTF-8" standalone="no"?>
<!-- Created with Inkscape (http://www.inkscape.org/) -->

<svg
   width="210mm"
   height="297mm"
   viewBox="0 0 210 297"
   version="1.1"
   id="svg1"
   xml:space="preserve"
   xmlns="http://www.w3.org/2000/svg"
   xmlns:svg="http://www.w3.org/2000/svg"><defs
     id="defs1" /><g
     id="layer1"
     style="display:inline;fill:#fb8c00;fill-opacity:1"><path
       d="M 175.57936,228.17292 H 26.399382 c -10.939729,0 -19.890529,-8.95061 -19.890529,-19.8908 V 88.938117 c 0,-10.939803 8.9508,-19.890417 19.890529,-19.890417 h 59.672005 l 19.890773,19.890417 h 69.6172 c 10.94019,0 19.89081,8.95099 19.89081,19.890783 v 0 H 26.399382 v 99.45322 L 47.284772,128.7197 H 217.34978 l -22.8742,84.53541 c -1.98845,8.95062 -9.94522,14.91781 -18.89622,14.91781 z"
       id="path1-1"
       style="display:none;fill:#7cb342;fill-opacity:1;stroke-width:9.94534" /><path
       d="M 85.464971,70.132424 H 26.740944 c -10.864038,0 -19.5747992,8.710761 -19.5747992,19.574799 V 207.15528 a 19.574676,19.574676 0 0 0 19.5747992,19.5748 H 183.33823 a 19.574676,19.574676 0 0 0 19.5748,-19.5748 v -97.87326 c 0,-10.864036 -8.80879,-19.574797 -19.5748,-19.574797 H 105.0394 Z"
       id="path1"
       style="display:inline;fill:#7cb342;fill-opacity:1;stroke-width:9.78732" /></g><g
     id="layer3"
     transform="matrix(0.84925839,0,0,0.84925839,-37.698447,26.274393)"
     style="display:inline;fill:#dcedc8;fill-opacity:1;stroke:#dcedc8;stroke-width:0.999696;stroke-dasharray:none;stroke-opacity:1"><g
       id="g61"
       transform="translate(7.4771119,-9.9694824)"><g
         transform="matrix(0.03051529,0,0,-0.03051529,127.01836,252.78919)"
         fill="#000000"
         id="g2"
         style="opacity:1;fill:#dcedc8;fill-opacity:1;stroke:#dcedc8;stroke-width:32.7605;stroke-dasharray:none;stroke-opacity:1"
         stroke="none"><path
           d="m 2159,5101 -24,-19 -3,-461 -3,-461 h -363 c -339,0 -364,-1 -379,-18 -15,-16 -17,-53 -17,-315 v -297 h -209 c -184,0 -211,-2 -229,-17 C 920,3503 706,3140 455,2705 118,2121 0,1908 2,1890 6,1863 1275,61 1316,22 c 50,-45 53,-42 356,274 282,295 307,324 308,355 0,14 -232,332 -275,378 -7,7 -72,26 -145,41 -72,16 -133,30 -135,32 -2,1 1,39 5,83 5,44 9,106 9,138 1,82 -10,90 -152,112 -64,10 -121,21 -126,24 -5,4 -6,51 -1,119 l 9,114 57,96 c 31,54 136,229 232,390 l 174,292 h 115 116 l 79,-85 c 242,-258 583,-342 910,-222 127,46 269,149 349,251 l 44,56 h 120 120 l 233,-391 232,-390 v -139 -139 l -32,-6 c -18,-3 -80,-12 -138,-20 -143,-19 -145,-21 -137,-177 l 6,-116 -97,-17 c -53,-10 -106,-23 -118,-30 -11,-7 -82,-95 -157,-194 -99,-131 -137,-189 -137,-209 0,-22 49,-79 255,-297 C 3720,2 3722,0 3759,0 c 37,0 -45,-111 734,991 345,488 627,895 627,906 0,25 -904,1592 -931,1616 -19,15 -46,17 -225,17 h -203 l -3,294 c -3,273 -4,295 -22,315 -19,21 -26,21 -382,21 h -363 l -3,461 -3,461 -24,19 c -22,18 -44,19 -401,19 -357,0 -379,-1 -401,-19 z m 691,-747 c 0,-592 -1,-626 -17,-619 -10,4 -61,16 -113,27 -136,29 -276,20 -432,-28 -17,-5 -18,29 -18,620 v 626 h 290 290 z m -720,-508 v -184 l -69,-51 c -38,-28 -74,-58 -81,-66 -10,-13 -51,-15 -246,-15 h -234 v 243 c 0,134 3,247 7,250 3,4 145,7 315,7 h 308 z m 1488,-68 2,-248 h -230 -230 l -85,67 -85,67 v 183 183 l 313,-2 312,-3 z m -920,-153 c 246,-49 457,-244 530,-490 18,-61 24,-105 24,-185 1,-127 -16,-203 -73,-320 -34,-70 -58,-101 -133,-175 -104,-103 -189,-152 -320,-185 -158,-40 -332,-19 -486,57 -112,56 -243,189 -299,303 -55,115 -74,193 -74,315 0,194 63,345 203,486 71,71 101,94 180,133 147,72 290,92 448,61 z m -850,-242 c -99,-193 -113,-246 -113,-438 0,-158 8,-206 51,-320 5,-13 -8,-15 -94,-15 -56,0 -112,-5 -125,-11 -24,-11 -31,-21 -343,-546 l -191,-321 -7,-119 c -4,-65 -9,-144 -13,-175 -8,-86 9,-99 166,-123 l 123,-19 -6,-60 c -3,-34 -8,-95 -12,-136 -9,-109 -6,-112 183,-152 L 1619,917 1719,784 1820,651 1599,418 C 1478,290 1375,184 1372,183 1363,180 157,1890 157,1904 c 1,8 432,760 829,1444 l 25,42 h 420 c 231,0 419,-3 417,-7 z m 2564,-518 c 165,-286 358,-620 428,-742 l 128,-221 -599,-849 C 4039,587 3764,200 3757,193 c -9,-9 -62,42 -232,221 -120,128 -218,236 -217,242 1,5 47,68 101,140 l 99,131 122,23 c 166,31 165,29 156,180 l -7,117 128,17 c 70,9 138,23 150,31 30,20 35,66 31,270 l -3,170 -255,427 c -172,289 -262,430 -278,437 -12,6 -68,11 -122,11 -55,0 -100,4 -100,8 0,4 9,32 19,63 32,90 44,183 39,307 -4,98 -10,133 -37,212 -18,52 -43,115 -57,139 -13,24 -24,45 -24,47 0,2 189,3 421,2 l 421,-3 z"
           id="path1-3"
           style="fill:#dcedc8;fill-opacity:1;stroke:#dcedc8;stroke-width:32.7605;stroke-dasharray:none;stroke-opacity:1" /><path
           d="m 2477,3300 c -109,-28 -218,-124 -256,-225 -28,-75 -28,-185 -1,-259 56,-148 209,-246 365,-233 127,10 246,92 303,207 38,77 43,200 12,283 -30,80 -111,166 -190,201 -67,30 -170,42 -233,26 z m 182,-156 c 96,-48 144,-150 117,-252 -16,-64 -37,-95 -87,-132 -127,-92 -313,-19 -350,138 -12,52 6,132 41,180 36,51 117,92 180,92 30,0 65,-9 99,-26 z"
           id="path2"
           style="fill:#dcedc8;fill-opacity:1;stroke:#dcedc8;stroke-width:32.7605;stroke-dasharray:none;stroke-opacity:1" /></g><path
         style="opacity:1;fill:#dcedc8;fill-opacity:1;stroke:#dcedc8;stroke-width:3.20882;stroke-dasharray:none;stroke-opacity:1"
         d="m 609.87906,868.31168 -20.16513,-21.22863 8.69561,-12.00538 c 9.98034,-13.77909 11.56071,-14.84049 25.94295,-17.42344 11.21525,-2.01419 14.89998,-8.2105 12.98042,-21.82815 -0.82122,-5.82594 0.45909,-6.83566 10.3769,-8.18379 17.5231,-2.3819 18.38477,-3.6478 18.38477,-27.00933 v -21.09329 l -26.04391,-42.3794 -26.04391,-42.37939 h -11.02825 c -9.38162,0 -10.72875,-0.73905 -9.02238,-4.94975 1.10324,-2.72236 2.63944,-12.5865 3.41379,-21.92031 1.30053,-15.67622 -0.47416,-24.4813 -8.97871,-44.54773 -1.92412,-4.53995 0.44458,-4.94717 28.6104,-4.91862 54.69318,0.0554 45.70452,-7.09349 91.94157,73.12375 22.06523,38.28124 40.1186,70.99347 40.1186,72.69383 0,3.90724 -114.20833,165.27828 -116.97363,165.27828 -1.12418,0 -11.11827,-9.5529 -22.20909,-21.22865 z"
         id="path31"
         transform="matrix(0.31154633,0,0,0.31154633,44.389843,-30.938043)" /><path
         style="opacity:1;fill:#dcedc8;fill-opacity:1;stroke:#dcedc8;stroke-width:3.20882;stroke-dasharray:none;stroke-opacity:1"
         d="m 566.39253,557.69928 c -6.96718,-5.70448 -7.77818,-8.20058 -7.77818,-23.93991 v -17.57142 h 29.69849 29.69848 v 24.04163 24.04163 l -21.92031,-0.10172 c -18.45701,-0.0856 -23.14922,-1.10791 -29.69848,-6.47021 z"
         id="path32"
         transform="matrix(0.31154633,0,0,0.31154633,44.389843,-30.938043)" /><path
         style="opacity:1;fill:#dcedc8;fill-opacity:1;stroke:#dcedc8;stroke-width:3.20882;stroke-dasharray:none;stroke-opacity:1"
         d="M 395.8493,887.625 C 380.28016,866.50134 296.60681,747.89813 283.30237,728.09477 l -2.62364,-3.90523 2.86397,-5.09477 c 9.27999,-16.50833 50.50002,-88.1964 72.35969,-125.84477 L 364.17632,579 h 40.49525 c 22.27239,0 40.65099,0.15577 40.84133,0.34616 0.19034,0.19038 -0.80593,2.71086 -2.21395,5.60106 -3.45345,7.08878 -5.32741,11.87221 -6.60951,16.87124 -0.93693,3.65318 -1.10178,5.98211 -1.30464,18.43154 -0.26242,16.10464 0.11862,19.68494 3.06058,28.75759 0.92662,2.85758 1.56173,5.31863 1.41136,5.469 -0.15038,0.15038 -2.65466,0.27921 -5.56508,0.28631 -6.4617,0.0158 -14.71843,0.77893 -16.03183,1.48184 -2.04036,1.09196 -6.67017,8.55884 -38.13614,61.50526 l -13.81744,23.25 -0.80178,12 c -1.58129,23.66696 -1.57701,22.28996 -0.0749,24.07509 0.7242,0.86066 2.18716,1.91312 3.25102,2.33879 2.17718,0.87113 9.45154,2.31084 18.16969,3.59606 l 5.85026,0.86244 -0.22783,1.31381 c -0.48063,2.77161 -1.72269,18.60819 -1.72269,21.96476 0,6.0576 1.71832,7.17594 15.80013,10.28318 4.37243,0.96481 10.01613,2.16182 12.54157,2.66003 l 4.5917,0.90584 9.80487,12.96092 9.80487,12.96093 -2.17103,2.28907 C 439.92805,850.46991 434.68764,856 429.47676,861.5 c -18.41693,19.43879 -29.37695,30.75 -29.79526,30.75 -0.23285,0 -1.95733,-2.08125 -3.8322,-4.625 z"
         id="path33"
         transform="matrix(0.31154633,0,0,0.31154633,44.389843,-30.938043)" /><path
         style="opacity:1;fill:#dcedc8;fill-opacity:1;stroke:#dcedc8;stroke-width:3.20882;stroke-dasharray:none;stroke-opacity:1"
         d="m 399.49428,892.68359 c -0.1572,-0.16614 -0.91895,-1.12351 -0.90502,-1.13743 0.004,-0.004 0.10034,0.099 0.215,0.22796 0.27803,0.31277 0.5975,0.62069 0.70303,0.67762 0.1077,0.0581 0.22724,0.0629 0.323,0.0129 0.11605,-0.0606 0.45702,-0.34733 0.73566,-0.61866 0.062,-0.0604 0.11645,-0.10624 0.12089,-0.1018 0.004,0.004 -0.0604,0.0743 -0.14407,0.15526 -0.0837,0.081 -0.27519,0.26689 -0.42558,0.41319 -0.29932,0.29117 -0.49055,0.46086 -0.51936,0.46086 -0.0102,0 -0.0568,-0.0404 -0.10355,-0.0899 z"
         id="path34"
         transform="matrix(0.31154633,0,0,0.31154633,44.389843,-30.938043)" /><path
         style="opacity:1;fill:#dcedc8;fill-opacity:1;stroke:#dcedc8;stroke-width:3.20882;stroke-dasharray:none;stroke-opacity:1"
         d=""
         id="path35"
         transform="matrix(0.31154633,0,0,0.31154633,44.389843,-30.938043)" /><path
         style="opacity:1;fill:#dcedc8;fill-opacity:1;stroke:#dcedc8;stroke-width:3.20882;stroke-dasharray:none;stroke-opacity:1"
         d="m 632.62078,891.79267 c -0.33842,-0.11699 -1.20924,-0.67903 -1.62078,-1.04606 -0.27983,-0.24957 -0.27406,-0.24951 0.25,0.003 0.50919,0.24493 1.10721,0.25856 1.56036,0.0356 0.72597,-0.35725 2.63239,-2.60947 6.55013,-7.7382 0.68941,-0.90252 1.26579,-1.62862 1.28084,-1.61357 0.0295,0.0295 -0.47853,0.74614 -3.94611,5.567 -2.86803,3.98734 -3.43961,4.75712 -3.59332,4.83939 -0.15042,0.0805 -0.0986,0.0855 -0.48112,-0.0467 z"
         id="path36"
         transform="matrix(0.31154633,0,0,0.31154633,44.389843,-30.938043)" /><path
         style="opacity:1;fill:#dcedc8;fill-opacity:1;stroke:#dcedc8;stroke-width:3.20882;stroke-dasharray:none;stroke-opacity:1"
         d="m 606.90625,822.49704 c 0,-0.0689 1.94525,-2.59079 1.99841,-2.59079 0.0298,0 0.63998,-0.11229 1.35599,-0.24954 0.71602,-0.13725 1.34404,-0.24925 1.3956,-0.24889 0.0516,3.6e-4 -0.24375,0.17122 -0.65625,0.37969 -1.25759,0.63558 -2.33566,1.32998 -3.42188,2.20407 -0.36953,0.29737 -0.67187,0.52482 -0.67187,0.50546 z"
         id="path37"
         transform="matrix(0.31154633,0,0,0.31154633,44.389843,-30.938043)" /><path
         style="opacity:1;fill:#dcedc8;fill-opacity:1;stroke:#dcedc8;stroke-width:3.20882;stroke-dasharray:none;stroke-opacity:1"
         d="m 510.20003,689.9064 c -9.596,-0.84512 -20.5395,-4.25509 -28.32295,-8.82534 -8.08182,-4.74545 -17.24449,-13.61247 -23.13801,-22.39141 -3.72451,-5.54799 -7.66503,-14.94111 -9.14355,-21.79569 -1.50491,-6.9769 -1.81402,-17.44968 -0.7344,-24.88159 2.20497,-15.17854 8.51725,-26.8995 21.05952,-39.10436 5.38485,-5.23999 8.91096,-7.73464 15.50816,-10.9717 9.13196,-4.4808 17.30556,-6.7871 25.98618,-7.33239 17.18262,-1.07934 32.81826,3.85473 46.57666,14.698 3.68814,2.90669 9.63527,9.05789 12.48108,12.90934 4.70481,6.36739 8.75944,14.38161 10.73786,21.22402 2.01685,6.97531 2.15334,8.18627 2.14108,18.99546 -0.0104,9.13757 -0.0865,10.42211 -0.81671,13.78858 -1.90547,8.7843 -6.62091,19.48972 -11.23289,25.50194 -4.16953,5.43546 -13.63438,14.29242 -19.29987,18.06032 -8.44587,5.61703 -19.13329,9.2011 -30.33416,10.17268 -4.6056,0.3995 -6.47709,0.39169 -11.468,-0.0479 z m 12.10162,-32.6802 c 6.58588,-1.35308 12.69726,-4.51495 17.6261,-9.11928 3.62857,-3.38967 5.68996,-6.01894 7.72809,-9.85705 4.579,-8.62296 4.91007,-22.20929 0.74648,-30.63398 -3.51815,-7.11869 -9.99362,-13.76577 -16.65802,-17.0995 -5.2855,-2.64395 -12.24558,-4.00368 -18.91511,-3.69529 -7.63509,0.35305 -14.69542,3.74517 -21.55133,10.35428 -7.29481,7.03222 -10.13456,13.37678 -10.51276,23.4876 -0.2771,7.4079 0.613,12.11946 3.30492,17.49389 4.83474,9.65259 14.07699,16.7329 24.91003,19.0831 3.13867,0.68092 9.97469,0.67386 13.3216,-0.0138 z"
         id="path38"
         transform="matrix(0.31154633,0,0,0.31154633,44.389843,-30.938043)" /><path
         style="opacity:1;fill:#dcedc8;fill-opacity:1;stroke:#dcedc8;stroke-width:3.20882;stroke-dasharray:none;stroke-opacity:1"
         d="m 514.2434,644.1257 c -3.06531,-0.44756 -5.12928,-1.0655 -7.77817,-2.32874 -2.40677,-1.14778 -3.57675,-2.00423 -5.87538,-4.3009 -4.73498,-4.73093 -6.75852,-9.66791 -6.39224,-15.59565 0.63107,-10.21297 6.4677,-17.60191 16.33348,-20.67753 10.64545,-3.31868 23.59085,4.19892 26.50647,15.39272 1.22082,4.68704 0.40513,11.32863 -2.0154,16.4101 -3.29804,6.92364 -13.19014,12.208 -20.77876,11.1 z"
         id="path39"
         transform="matrix(0.31154633,0,0,0.31154633,44.389843,-30.938043)" /><path
         style="opacity:1;fill:#dcedc8;fill-opacity:1;stroke:#dcedc8;stroke-width:3.20882;stroke-dasharray:none;stroke-opacity:1"
         d="m 488.6218,544.40415 c -0.69029,-1.71642 -0.86156,-14.55441 -0.87755,-65.78125 l -0.0174,-55.59627 h 28.28427 28.28427 l -0.0159,52.76784 c -0.0155,51.55716 -0.24404,67.84162 -0.96224,68.55983 -0.2372,0.23719 -2.15402,-0.0591 -5.78709,-0.89466 -7.88837,-1.81414 -10.69692,-2.28738 -16.26634,-2.74085 -8.07052,-0.65711 -17.9794,0.38212 -27.38383,2.872 -2.1577,0.57126 -4.16568,1.13175 -4.46218,1.24553 -0.32634,0.12522 -0.64053,-0.0453 -0.79611,-0.43217 z"
         id="path40"
         transform="matrix(0.31154633,0,0,0.31154633,44.389843,-30.938043)" /><path
         style="opacity:1;fill:#dcedc8;fill-opacity:1;stroke:#dcedc8;stroke-width:3.20882;stroke-dasharray:none;stroke-opacity:1"
         d="m 412.42003,543.49081 c 0,-11.7494 0.10164,-22.56498 0.22587,-24.03462 0.22368,-2.64616 0.23654,-2.67411 1.32583,-2.88248 0.60497,-0.11573 14.26539,-0.31277 30.35649,-0.43787 l 29.25655,-0.22746 v 18.07433 18.07433 l -5.74525,4.32289 c -3.15988,2.37759 -6.48452,5.01284 -7.38808,5.85612 -0.90356,0.84327 -2.17635,1.71441 -2.82842,1.93585 -0.81802,0.27779 -8.00917,0.44585 -23.19429,0.54204 l -22.0087,0.13942 z"
         id="path41"
         transform="matrix(0.31154633,0,0,0.31154633,44.389843,-30.938043)" /><path
         style="opacity:1;fill:#dcedc8;fill-opacity:1;stroke:#dcedc8;stroke-width:3.20882;stroke-dasharray:none;stroke-opacity:1"
         d="m 672.37929,589.00215 c -3.16052,-3.64069 -6.63958,-6.48419 -10.16657,-8.30933 l -2.69692,-1.39559 h 4.22672 4.22672 l 3.58894,6.22765 c 1.97391,3.42521 3.54085,6.27081 3.48209,6.32355 -0.0588,0.0527 -1.25621,-1.22808 -2.66098,-2.84628 z"
         id="path42"
         transform="matrix(0.31154633,0,0,0.31154633,44.389843,-30.938043)" /><path
         style="opacity:1;fill:#dcedc8;fill-opacity:1;stroke:#dcedc8;stroke-width:3.20882;stroke-dasharray:none;stroke-opacity:1"
         d="m 367.49389,578.70613 v -0.0414 h 5.86401 5.86402 v 0.0414 0.0414 h -5.86402 -5.86401 z"
         id="path43"
         transform="matrix(0.31154633,0,0,0.31154633,44.389843,-30.938043)" /><path
         style="opacity:1;fill:#dcedc8;fill-opacity:1;stroke:#dcedc8;stroke-width:3.20882;stroke-dasharray:none;stroke-opacity:1"
         d="m 364.20424,578.73535 c 0.004,-0.007 0.0151,-0.0254 0.0242,-0.041 l 0.0166,-0.0283 h 1.6226 1.6226 v 0.041 0.041 h -1.6468 -1.6468 z"
         id="path44"
         transform="matrix(0.31154633,0,0,0.31154633,44.389843,-30.938043)" /><path
         style="opacity:1;fill:#dcedc8;fill-opacity:1;stroke:#dcedc8;stroke-width:3.20882;stroke-dasharray:none;stroke-opacity:1"
         d="m 386.44336,578.70703 v -0.041 h 4.14648 4.14649 v 0.041 0.041 h -4.14649 -4.14648 z"
         id="path45"
         transform="matrix(0.31154633,0,0,0.31154633,44.389843,-30.938043)" /><path
         style="opacity:1;fill:#dcedc8;fill-opacity:1;stroke:#dcedc8;stroke-width:3.20882;stroke-dasharray:none;stroke-opacity:1"
         d="m 380.66211,578.70703 v -0.041 h 2.88867 2.88867 v 0.041 0.041 h -2.88867 -2.88867 z"
         id="path46"
         transform="matrix(0.31154633,0,0,0.31154633,44.389843,-30.938043)" /><path
         style="opacity:1;fill:#dcedc8;fill-opacity:1;stroke:#dcedc8;stroke-width:3.20882;stroke-dasharray:none;stroke-opacity:1"
         d="m 379.22461,578.70703 v -0.041 h 0.7168 0.71679 v 0.041 0.041 h -0.71679 -0.7168 z"
         id="path47"
         transform="matrix(0.31154633,0,0,0.31154633,44.389843,-30.938043)" /><path
         style="opacity:1;fill:#dcedc8;fill-opacity:1;stroke:#dcedc8;stroke-width:3.20882;stroke-dasharray:none;stroke-opacity:1"
         d="m 404.1861,578.75309 -9.44926,-0.003 v -0.046 -0.046 l 9.20067,0.007 c 5.06037,0.004 9.31876,0.0106 9.46308,0.0146 l 0.2624,0.007 v 0.0369 c 0,0.0237 -0.005,0.036 -0.0138,0.0342 -0.008,-0.002 -4.26598,-0.004 -9.46308,-0.006 z"
         id="path48"
         transform="matrix(0.31154633,0,0,0.31154633,44.389843,-30.938043)" /><path
         style="opacity:1;fill:#dcedc8;fill-opacity:1;stroke:#dcedc8;stroke-width:3.20882;stroke-dasharray:none;stroke-opacity:1"
         d="m 422.81119,578.78586 c -2.0607,-0.01 -7.46146,-0.0271 -8.53841,-0.0272 l -0.60555,-7e-5 0.003,-0.0382 0.003,-0.0382 -0.0159,-0.003 c -0.009,-10e-4 0.05,-0.002 0.13049,-4.7e-4 0.0805,10e-4 0.63736,0.003 1.23743,0.005 2.18189,0.006 7.44949,0.0367 8.57229,0.0502 l 0.29417,0.004 v 0.027 0.027 l -0.12015,-9.4e-4 c -0.0661,-5.1e-4 -0.49802,-0.003 -0.95984,-0.005 z"
         id="path49"
         transform="matrix(0.31154633,0,0,0.31154633,44.389843,-30.938043)" /><path
         style="opacity:1;fill:#dcedc8;fill-opacity:1;stroke:#dcedc8;stroke-width:3.20882;stroke-dasharray:none;stroke-opacity:1"
         d="m 412.63519,517.75185 c -2.3e-4,-0.005 0.006,-0.0705 0.0133,-0.14454 0.0582,-0.57125 0.11249,-0.8642 0.17392,-0.93835 0.0332,-0.0401 0.15697,-0.0732 0.40518,-0.10836 0.0457,-0.006 0.087,-0.0117 0.0918,-0.0115 0.009,2.6e-4 0.008,3.9e-4 -10e-4,0.005 -0.13815,0.0601 -0.22887,0.11858 -0.30932,0.19942 -0.1831,0.18397 -0.28004,0.43741 -0.36417,0.95205 -0.005,0.0312 -0.009,0.0522 -0.01,0.0468 z"
         id="path50"
         transform="matrix(0.31154633,0,0,0.31154633,44.389843,-30.938043)" /><path
         style="opacity:1;fill:#dcedc8;fill-opacity:1;stroke:#dcedc8;stroke-width:3.20882;stroke-dasharray:none;stroke-opacity:1"
         d="m 445.14761,581.45703 c 9.7e-4,-0.004 0.0233,-0.0614 0.0495,-0.12695 0.29655,-0.73975 0.49788,-1.33355 0.56221,-1.65821 0.0382,-0.19271 0.0365,-0.31409 -0.006,-0.40722 -0.0118,-0.026 -0.0122,-0.0283 -0.005,-0.0283 0.0145,0 0.19391,0.0236 0.25375,0.0333 0.14055,0.0229 0.22657,0.0498 0.22657,0.0707 0,0.003 -0.0965,0.19429 -0.21438,0.42454 -0.24649,0.48134 -0.71542,1.40144 -0.78473,1.53973 -0.052,0.10375 -0.0845,0.16429 -0.0818,0.15234 z"
         id="path51"
         transform="matrix(0.31154633,0,0,0.31154633,44.389843,-30.938043)" /><path
         style="opacity:1;fill:#dcedc8;fill-opacity:1;stroke:#dcedc8;stroke-width:3.20882;stroke-dasharray:none;stroke-opacity:1"
         d="m 573.55519,564.01241 c -0.65087,-0.51301 -1.17957,-0.93659 -1.17488,-0.94128 0.005,-0.005 0.16582,0.0532 0.35808,0.12863 0.44851,0.17598 1.40182,0.49433 1.94185,0.64847 1.59231,0.45447 3.21395,0.7714 5.37934,1.05134 l 0.32041,0.0414 -2.8207,0.002 -2.8207,0.002 z"
         id="path52"
         transform="matrix(0.31154633,0,0,0.31154633,44.389843,-30.938043)" /><path
         style="opacity:1;fill:#dcedc8;fill-opacity:1;stroke:#dcedc8;stroke-width:3.20882;stroke-dasharray:none;stroke-opacity:1"
         d="m 559.18349,552.68564 -1.08682,-0.85509 10e-4,-1.74567 10e-4,-1.74567 0.0951,0.37565 c 0.45872,1.81095 1.1201,3.36066 1.98355,4.64771 0.0598,0.0891 0.10504,0.16564 0.1006,0.17008 -0.004,0.004 -0.49714,-0.37671 -1.09489,-0.84701 z"
         id="path53"
         transform="matrix(0.31154633,0,0,0.31154633,44.389843,-30.938043)" /><path
         style="opacity:1;fill:#dcedc8;fill-opacity:1;stroke:#dcedc8;stroke-width:3.20882;stroke-dasharray:none;stroke-opacity:1"
         d="m 542.75,544.88157 c -0.21019,-0.0783 -0.53168,-0.18072 -0.85156,-0.27116 -0.72984,-0.20635 -0.7233,-0.20234 -0.19532,-0.11947 0.49022,0.077 0.85285,0.11362 1.14844,0.11612 0.30202,0.003 0.43565,-0.0172 0.52484,-0.0778 0.064,-0.0435 0.0661,-0.0304 0.0123,0.0767 -0.15489,0.30802 -0.3388,0.38737 -0.6387,0.27558 z"
         id="path54"
         transform="matrix(0.31154633,0,0,0.31154633,44.389843,-30.938043)" /><path
         style="opacity:1;fill:#dcedc8;fill-opacity:1;stroke:#dcedc8;stroke-width:3.20882;stroke-dasharray:none;stroke-opacity:1"
         d="m 742.60937,737.41256 c 0,-0.0125 0.27929,-0.44129 0.62063,-0.95289 2.90812,-4.35859 5.45992,-8.37222 6.44786,-10.14159 0.79207,-1.41858 0.92055,-1.89577 0.71181,-2.64372 -0.30665,-1.09876 -2.02564,-4.54686 -5.5526,-11.13787 -0.40314,-0.75336 -0.72695,-1.37578 -0.71957,-1.38316 0.024,-0.024 7.66266,13.1886 7.66192,13.25292 -5.9e-4,0.0511 -8.98587,12.83249 -9.12716,12.98326 -0.0236,0.0252 -0.0429,0.0355 -0.0429,0.0231 z"
         id="path55"
         transform="matrix(0.31154633,0,0,0.31154633,44.389843,-30.938043)" /><path
         style="opacity:1;fill:#dcedc8;fill-opacity:1;stroke:#dcedc8;stroke-width:3.20882;stroke-dasharray:none;stroke-opacity:1"
         d="m 635.53299,791.2118 c -0.085,-1.43038 -0.14458,-2.61063 -0.13244,-2.62277 0.0206,-0.0206 3.36857,-0.47736 3.5057,-0.47829 0.0344,-2.3e-4 -0.0852,0.0782 -0.26563,0.17425 -1.50202,0.79958 -2.3654,1.84899 -2.73507,3.32438 -0.11452,0.45705 -0.17541,0.9517 -0.1977,1.60587 l -0.0204,0.59726 z"
         id="path56"
         transform="matrix(0.31154633,0,0,0.31154633,44.389843,-30.938043)" /><path
         style="opacity:1;fill:#dcedc8;fill-opacity:1;stroke:#dcedc8;stroke-width:3.20882;stroke-dasharray:none;stroke-opacity:1"
         d="m 636.28838,803.95312 c -0.0114,-0.11172 -0.057,-0.86406 -0.1012,-1.67187 -0.0442,-0.80781 -0.15709,-2.74844 -0.25077,-4.3125 -0.17371,-2.89992 -0.1975,-3.44436 -0.12289,-2.8125 0.0223,0.18906 0.0972,0.77265 0.16649,1.29687 0.14392,1.08945 0.2605,2.21953 0.33848,3.28125 0.06,0.81703 0.073,3.57403 0.0195,4.125 l -0.0289,0.29688 z"
         id="path57"
         transform="matrix(0.31154633,0,0,0.31154633,44.389843,-30.938043)" /><path
         style="opacity:1;fill:#dcedc8;fill-opacity:1;stroke:#dcedc8;stroke-width:3.20882;stroke-dasharray:none;stroke-opacity:1"
         d="m 592.5625,654.62267 c -0.66211,-0.10159 -1.04104,-0.20178 -1.12845,-0.29835 -0.0484,-0.0535 -0.0474,-0.0766 0.0149,-0.34707 0.0898,-0.38943 0.42086,-1.52413 0.4447,-1.52413 0.0105,0 0.0277,0.10196 0.0383,0.22657 0.0556,0.65244 0.36893,1.32655 0.83513,1.79687 0.21593,0.21784 0.22423,0.21191 -0.20465,0.14611 z"
         id="path58"
         transform="matrix(0.31154633,0,0,0.31154633,44.389843,-30.938043)" /><path
         style="opacity:1;fill:#dcedc8;fill-opacity:1;stroke:#dcedc8;stroke-width:3.20882;stroke-dasharray:none;stroke-opacity:1"
         d="m 586.40517,580.9247 c -0.50565,-0.96976 -0.81232,-1.60146 -0.87865,-1.80992 -0.0151,-0.0473 -0.0163,-0.0582 -0.007,-0.0637 0.0334,-0.0207 0.35397,-0.0444 0.84417,-0.0625 0.53155,-0.0197 1.43612,-0.0432 1.44178,-0.0376 0.002,0.002 -0.0342,0.0316 -0.0804,0.0659 -0.18118,0.13427 -0.38742,0.3247 -0.53183,0.49106 -0.355,0.40897 -0.5863,0.89633 -0.67666,1.42578 -0.0106,0.0623 -0.0204,0.12335 -0.0217,0.13565 -0.002,0.0181 -0.0188,-0.009 -0.0893,-0.14454 z"
         id="path59"
         transform="matrix(0.31154633,0,0,0.31154633,44.389843,-30.938043)" /><path
         style="opacity:1;fill:#dcedc8;fill-opacity:1;stroke:#dcedc8;stroke-width:3.20882;stroke-dasharray:none;stroke-opacity:1"
         d="m 677.37177,595.44921 c -0.0368,-0.0536 -0.41982,-0.59017 -0.55931,-0.78346 -0.7182,-0.99515 -1.44369,-1.9639 -2.08227,-2.78042 -0.0697,-0.0891 -0.12554,-0.16301 -0.12421,-0.16435 10e-4,-0.001 0.042,0.0353 0.0904,0.0814 0.19841,0.18921 0.26333,0.2305 0.35154,0.22357 0.0204,-0.002 0.0482,-0.008 0.0617,-0.0138 0.0333,-0.0147 0.073,-0.0524 0.0909,-0.0862 0.0132,-0.025 0.0147,-0.0337 0.0147,-0.0858 0,-0.0567 -6.2e-4,-0.0595 -0.0269,-0.1243 -0.0148,-0.0365 -0.054,-0.12201 -0.087,-0.19011 -0.0331,-0.0681 -0.0592,-0.1247 -0.0581,-0.12579 10e-4,-10e-4 0.53068,0.91447 1.17688,2.03456 0.6462,1.12009 1.17382,2.03762 1.17249,2.03896 -0.001,10e-4 -0.0107,-0.01 -0.0207,-0.0242 z"
         id="path60"
         transform="matrix(0.31154633,0,0,0.31154633,44.389843,-30.938043)" /><path
         style="opacity:1;fill:#dcedc8;fill-opacity:1;stroke:#dcedc8;stroke-width:3.20882;stroke-dasharray:none;stroke-opacity:1"
         d="m 659.47651,579.50375 c -0.26121,-0.10104 -0.69605,-0.25773 -1.03408,-0.37265 -0.0705,-0.0239 -0.12763,-0.044 -0.12705,-0.0446 5.9e-4,-5.9e-4 0.93452,0.006 2.07541,0.0137 l 2.07435,0.0147 -1.47498,0.003 -1.47498,0.003 -0.0402,0.16277 c -0.0221,0.0895 -0.039,0.16589 -0.0375,0.16972 10e-4,0.004 0.0394,0.0256 0.0844,0.0483 0.13828,0.0699 0.13013,0.0704 -0.0453,0.003 z"
         id="path61"
         transform="matrix(0.31154633,0,0,0.31154633,44.389843,-30.938043)" /></g></g><style
     type="text/css"
     id="style1">
	.st0{fill:#08743B;stroke:#CF2027;stroke-miterlimit:10;}
</style><style
     type="text/css"
     id="style1-6">
	.st0{fill:#08743B;stroke:#CF2027;stroke-miterlimit:10;}
</style><style
     type="text/css"
     id="style1-66">
	.st0{fill:#08743B;stroke:#CF2027;stroke-miterlimit:10;}
</style><style
     type="text/css"
     id="style1-6-1">
	.st0{fill:#08743B;stroke:#CF2027;stroke-miterlimit:10;}
</style><style
     type="text/css"
     id="style1-3">
	.st0{fill:#08743B;stroke:#CF2027;stroke-miterlimit:10;}
</style><style
     type="text/css"
     id="style1-6-7">
	.st0{fill:#08743B;stroke:#CF2027;stroke-miterlimit:10;}
</style><style
     type="text/css"
     id="style1-1">
	.st0{fill:#08743B;stroke:#CF2027;stroke-miterlimit:10;}
</style><style
     type="text/css"
     id="style1-6-3">
	.st0{fill:#08743B;stroke:#CF2027;stroke-miterlimit:10;}
</style><style
     type="text/css"
     id="style1-0">
	.st0{fill:#08743B;stroke:#CF2027;stroke-miterlimit:10;}
</style><style
     type="text/css"
     id="style1-6-76">
	.st0{fill:#08743B;stroke:#CF2027;stroke-miterlimit:10;}
</style><style
     type="text/css"
     id="style1-66-3">
	.st0{fill:#08743B;stroke:#CF2027;stroke-miterlimit:10;}
</style><style
     type="text/css"
     id="style1-6-1-6">
	.st0{fill:#08743B;stroke:#CF2027;stroke-miterlimit:10;}
</style><style
     type="text/css"
     id="style1-3-1">
	.st0{fill:#08743B;stroke:#CF2027;stroke-miterlimit:10;}
</style><style
     type="text/css"
     id="style1-6-7-5">
	.st0{fill:#08743B;stroke:#CF2027;stroke-miterlimit:10;}
</style><style
     type="text/css"
     id="style1-1-4">
	.st0{fill:#08743B;stroke:#CF2027;stroke-miterlimit:10;}
</style><style
     type="text/css"
     id="style1-6-3-2">
	.st0{fill:#08743B;stroke:#CF2027;stroke-miterlimit:10;}
</style></svg>
