<?xml version="1.0" encoding="UTF-8" standalone="no"?>
<!-- Created with Inkscape (http://www.inkscape.org/) -->

<svg
   width="195.74689mm"
   height="159.38469mm"
   viewBox="0 0 195.74689 159.38469"
   version="1.1"
   id="svg1"
   xml:space="preserve"
   xmlns="http://www.w3.org/2000/svg"
   xmlns:svg="http://www.w3.org/2000/svg"><defs
     id="defs1" /><g
     id="layer1"
     style="display:inline;fill:#03a9f4;fill-opacity:1"
     transform="translate(-7.1661447,-70.132428)"><path
       d="M 175.57936,228.17292 H 26.399382 c -10.939729,0 -19.890529,-8.95061 -19.890529,-19.8908 V 88.938117 c 0,-10.939803 8.9508,-19.890417 19.890529,-19.890417 h 59.672005 l 19.890773,19.890417 h 69.6172 c 10.94019,0 19.89081,8.95099 19.89081,19.890783 v 0 H 26.399382 v 99.45322 L 47.284772,128.7197 H 217.34978 l -22.8742,84.53541 c -1.98845,8.95062 -9.94522,14.91781 -18.89622,14.91781 z"
       id="path1-1"
       style="display:none;fill:#03a9f4;fill-opacity:1;stroke-width:9.94534" /><path
       d="M 85.464971,70.132424 H 26.740944 c -10.864038,0 -19.5747992,8.710761 -19.5747992,19.574799 V 207.15528 a 19.574676,19.574676 0 0 0 19.5747992,19.5748 H 183.33823 a 19.574676,19.574676 0 0 0 19.5748,-19.5748 v -97.87326 c 0,-10.864036 -8.80879,-19.574797 -19.5748,-19.574797 H 105.0394 Z"
       id="path1"
       style="display:inline;fill:#03a9f4;fill-opacity:1;stroke-width:9.78732" /></g><g
     id="layer3"
     transform="translate(-7.1661447,-70.132428)"><path
       d="M 201.58536,229.51711 H 71.990156 l 82.188124,-118.68026 13.35876,9.28605 -36.98072,53.43441 c 13.11432,6.76096 22.15592,20.28257 22.15592,35.92197 0,1.30226 0,2.52447 -0.24629,3.74699 h 49.11757 v 16.29084 m -98.47927,-16.29084 h 32.98928 c 0.32633,-1.22221 0.32633,-2.44442 0.32633,-3.74699 0,-10.26351 -6.19049,-18.89781 -15.15082,-22.48163 z"
       id="path1-7"
       style="display:inline;fill:#b3e5fc;fill-opacity:1;stroke-width:8.14551" /></g><style
     type="text/css"
     id="style1">
	.st0{fill:#08743B;stroke:#CF2027;stroke-miterlimit:10;}
</style><style
     type="text/css"
     id="style1-6">
	.st0{fill:#08743B;stroke:#CF2027;stroke-miterlimit:10;}
</style></svg>
