<?xml version="1.0" encoding="UTF-8" standalone="no"?>
<!-- Created with Inkscape (http://www.inkscape.org/) -->

<svg
   width="203.82417mm"
   height="163.7036mm"
   viewBox="0 0 203.82417 163.7036"
   version="1.1"
   id="svg1"
   xml:space="preserve"
   sodipodi:docname="folder-intake.svg"
   xmlns:inkscape="http://www.inkscape.org/namespaces/inkscape"
   xmlns:sodipodi="http://sodipodi.sourceforge.net/DTD/sodipodi-0.dtd"
   xmlns="http://www.w3.org/2000/svg"
   xmlns:svg="http://www.w3.org/2000/svg"><sodipodi:namedview
     id="namedview1"
     pagecolor="#505050"
     bordercolor="#eeeeee"
     borderopacity="1"
     inkscape:showpageshadow="0"
     inkscape:pageopacity="0"
     inkscape:pagecheckerboard="0"
     inkscape:deskcolor="#505050"
     inkscape:document-units="mm"><inkscape:page
       x="0"
       y="0"
       width="203.82417"
       height="163.7036"
       id="page2"
       margin="0"
       bleed="0" /></sodipodi:namedview><defs
     id="defs1" /><g
     id="layer1"
     style="display:inline;fill:#4caf50;fill-opacity:1"
     transform="translate(-7.1661449,-70.132435)"><path
       d="M 175.57936,228.17292 H 26.399382 c -10.939729,0 -19.890529,-8.95061 -19.890529,-19.8908 V 88.938117 c 0,-10.939803 8.9508,-19.890417 19.890529,-19.890417 h 59.672005 l 19.890773,19.890417 h 69.6172 c 10.94019,0 19.89081,8.95099 19.89081,19.890783 v 0 H 26.399382 v 99.45322 L 47.284772,128.7197 H 217.34978 l -22.8742,84.53541 c -1.98845,8.95062 -9.94522,14.91781 -18.89622,14.91781 z"
       id="path1-1"
       style="display:none;fill:#4caf50;fill-opacity:1;stroke-width:9.94534" /><path
       d="M 85.464971,70.132424 H 26.740944 c -10.864038,0 -19.5747992,8.710761 -19.5747992,19.574799 V 207.15528 a 19.574676,19.574676 0 0 0 19.5747992,19.5748 H 183.33823 a 19.574676,19.574676 0 0 0 19.5748,-19.5748 v -97.87326 c 0,-10.864036 -8.80879,-19.574797 -19.5748,-19.574797 H 105.0394 Z"
       id="path1"
       style="display:inline;fill:#4caf50;fill-opacity:1;stroke-width:9.78732" /></g><style
     type="text/css"
     id="style1">
	.st0{fill:#08743B;stroke:#CF2027;stroke-miterlimit:10;}
</style><style
     type="text/css"
     id="style1-6">
	.st0{fill:#08743B;stroke:#CF2027;stroke-miterlimit:10;}
</style><g
     inkscape:groupmode="layer"
     id="layer2"
     inkscape:label="icon"
     style="fill:#c8e6c9;fill-opacity:1"
     transform="matrix(1.5168735,0,0,1.1121903,-102.37352,-14.230228)"><g
       transform="matrix(0.02401421,0,0,-0.02401421,83.846014,157.52504)"
       fill="#000000"
       stroke="none"
       id="g8"
       style="fill:#c8e6c9;fill-opacity:1"><path
         d="m 2213,5100 c -28,-26 -36,-82 -32,-229 4,-108 6,-123 26,-142 29,-29 77,-29 106,-1 19,20 22,35 25,132 l 4,110 h 219 219 V 3905 2840 h -220 -219 l -3,806 -3,806 -24,19 c -30,24 -72,24 -102,0 l -24,-19 -3,-816 c -2,-643 -5,-816 -15,-816 -24,0 -86,-61 -109,-107 -23,-47 -23,-53 -26,-420 l -4,-373 h -522 c -568,0 -585,-1 -690,-58 -79,-42 -161,-129 -201,-215 -40,-82 -55,-176 -55,-334 v -93 h -55 c -67,0 -95,-22 -95,-74 0,-25 7,-40 26,-55 26,-21 35,-21 630,-21 427,0 610,3 628,11 51,23 55,103 7,128 -13,7 -181,11 -500,11 H 720 v 145 c 0,122 3,153 21,200 25,67 94,141 164,175 l 50,25 1241,5 c 1203,5 1243,6 1263,24 27,25 28,79 1,106 -18,18 -33,20 -194,20 h -174 l -4,373 c -3,367 -3,373 -26,420 -24,47 -85,107 -109,107 -10,0 -13,217 -13,1103 0,676 -4,1115 -10,1136 -17,61 -13,60 -371,61 -310,0 -326,-1 -346,-20 z m 697,-2430 c 19,-19 20,-33 20,-385 v -365 h -69 -68 l -6,116 c -4,96 -10,125 -29,163 -83,161 -313,161 -396,0 -19,-38 -25,-67 -29,-163 l -6,-116 h -68 -69 v 365 c 0,352 1,366 20,385 19,19 33,20 350,20 317,0 331,-1 350,-20 z m -300,-520 c 17,-17 20,-33 20,-125 v -105 h -70 -70 v 105 c 0,118 13,145 70,145 17,0 39,-9 50,-20 z"
         id="path1-0"
         style="fill:#c8e6c9;fill-opacity:1" /><path
         d="m 3711,1894 c -26,-33 -27,-65 -2,-95 19,-24 23,-24 238,-29 206,-5 221,-6 268,-30 70,-34 139,-108 164,-175 18,-47 21,-78 21,-200 V 1220 H 3190 c -1197,0 -1210,0 -1230,-20 -30,-30 -27,-83 6,-109 l 27,-21 h 1332 1332 l 27,21 c 19,15 26,30 26,55 0,52 -28,74 -95,74 h -55 v 93 c 0,236 -39,358 -147,465 -121,119 -199,142 -479,142 h -203 z"
         id="path2"
         style="fill:#c8e6c9;fill-opacity:1" /><path
         d="m 2253,900 c -22,-20 -25,-44 -38,-295 -3,-60 -15,-211 -27,-334 l -22,-224 28,-23 c 34,-30 70,-30 100,-1 20,20 25,42 40,187 22,216 35,396 38,548 3,120 2,124 -21,143 -30,24 -72,24 -98,-1 z"
         id="path3"
         style="fill:#c8e6c9;fill-opacity:1" /><path
         d="m 2769,901 c -23,-19 -24,-23 -21,-143 3,-152 16,-332 38,-548 15,-145 20,-167 40,-187 30,-30 69,-29 101,3 24,24 25,30 20,87 -24,235 -37,387 -42,482 -14,268 -16,285 -38,306 -26,24 -68,24 -98,0 z"
         id="path4"
         style="fill:#c8e6c9;fill-opacity:1" /><path
         d="m 1740,892 c -19,-16 -25,-38 -41,-153 -23,-179 -61,-346 -115,-508 -24,-73 -44,-146 -44,-162 0,-55 69,-88 113,-55 60,46 207,624 207,817 0,66 -70,102 -120,61 z"
         id="path5"
         style="fill:#c8e6c9;fill-opacity:1" /><path
         d="m 3282,887 c -27,-29 -28,-54 -1,-231 36,-247 140,-607 186,-642 44,-33 113,0 113,55 0,16 -20,89 -44,162 -54,162 -92,329 -115,508 -16,115 -22,137 -41,153 -31,25 -72,23 -98,-5 z"
         id="path6"
         style="fill:#c8e6c9;fill-opacity:1" /><path
         d="m 1221,871 c -11,-11 -23,-37 -26,-58 C 1156,588 1083,393 962,193 928,137 900,81 900,70 900,42 943,0 972,0 c 13,0 33,7 45,15 50,35 197,315 252,481 46,137 83,318 71,348 -17,47 -84,62 -119,27 z"
         id="path7"
         style="fill:#c8e6c9;fill-opacity:1" /><path
         d="m 3807,879 c -36,-21 -38,-53 -12,-176 46,-211 121,-400 235,-588 54,-90 80,-115 118,-115 29,0 72,42 72,71 0,11 -24,60 -54,108 -123,199 -204,413 -241,634 -11,65 -66,96 -118,66 z"
         id="path8"
         style="fill:#c8e6c9;fill-opacity:1" /></g><path
       style="fill:#c8e6c9;fill-opacity:1;stroke-width:1.53339"
       d="m 517.87265,386.79726 0.41268,-34.11789 31.63099,-0.41389 31.63098,-0.41389 0.93258,3.48067 c 0.51293,1.91436 0.94201,17.45367 0.95353,34.53178 l 0.0209,31.05112 h -5.93191 -5.9319 L 570.85835,409.506 c -0.81669,-12.72575 -3.25546,-17.74907 -10.8715,-22.39286 -9.52366,-5.80695 -22.75621,-2.21455 -27.8049,7.54853 -1.29406,2.50245 -2.8067,9.43321 -3.36141,15.4017 l -1.00857,10.85179 h -5.176 -5.176 z"
       id="path9"
       transform="scale(0.26458333)" /><path
       style="fill:#c8e6c9;fill-opacity:1;stroke-width:0.264583"
       d="m 139.86817,51.144699 0.0254,-8.950958 -3.57531,0.02535 -0.0254,10.092013 z"
       id="path10" /><path
       style="fill:#c8e6c9;fill-opacity:1;stroke-width:0.264583"
       d="m 165.27852,111.4348 c 12.802,0 12.78407,-0.0179 12.78407,-0.0179 l -4.51835,3.29912 -8.94706,0.0359 z"
       id="path11" /><path
       style="fill:#c8e6c9;fill-opacity:1;stroke-width:0.264583"
       d="m 123.7793,128.43227 8.49453,-0.0507 -0.51982,3.39781 -9.73701,-0.0761 z"
       id="path12" /><path
       style="fill:#c8e6c9;fill-opacity:1;stroke-width:1.08427"
       d="m 529.50457,250.73731 c -0.23451,-47.85694 -0.24415,-91.28193 -0.0214,-96.49998 l 0.40499,-9.48736 h 19.40559 19.40558 v 96.49998 96.49998 h -19.38417 -19.38418 z"
       id="path13"
       transform="scale(0.26458333)" /><path
       style="fill:#c8e6c9;fill-opacity:1;stroke-width:1.08427"
       d="m 421.89662,484.48229 -40.00216,-0.38302 0.56642,-13.96568 c 0.51478,-12.69238 0.84518,-14.47784 3.6238,-19.58308 1.68155,-3.08957 4.79,-6.97842 6.90765,-8.6419 8.54756,-6.71432 -1.38398,-6.21916 138.84183,-6.92227 70.66726,-0.35433 136.5674,-0.27688 146.44475,0.17212 16.78247,0.76289 18.285,1.00751 22.93825,3.73451 6.51651,3.81891 11.72459,10.52971 13.50821,17.40577 0.78904,3.04177 1.4346,10.54734 1.4346,16.67903 v 11.14854 h -93.07035 c -51.1887,0 -108.39746,0.16627 -127.13059,0.36949 -18.73314,0.20323 -52.06122,0.19714 -74.06241,-0.0135 z"
       id="path14"
       transform="scale(0.26458333)" /><path
       style="fill:#c8e6c9;fill-opacity:1;stroke-width:0.542135"
       d="m 542.95107,414.32646 c 0.006,-12.53631 1.18911,-15.58637 6.04629,-15.58637 2.11453,0 2.9424,0.29895 4.37811,1.58098 l 1.77049,1.58098 0.18031,9.53278 0.18032,9.53278 h -6.27933 -6.27933 z"
       id="path15"
       transform="scale(0.26458333)" /><path
       style="fill:#c8e6c9;fill-opacity:1;stroke-width:0.00847085"
       d="m 532.4483,157.52402 v -0.23295 h 8.99182 8.99181 v 0.23295 0.23295 h -8.99181 -8.99182 z"
       id="path16"
       transform="matrix(0.26458333,0,0,0.26458333,0.57375925,-3.4425555)" /><path
       style="fill:#c8e6c9;fill-opacity:1;stroke-width:0.0338834"
       d="m 527.20827,349.51595 c -4.4e-4,-0.60101 -0.0229,-6.55136 -0.05,-13.223 -0.0271,-6.67165 -0.0496,-12.85834 -0.05,-13.7482 l -7.9e-4,-1.61793 h 0.25412 0.25413 l 5.7e-4,1.10968 c 3.1e-4,0.61032 0.0305,6.94186 0.0672,14.07009 0.0366,7.12822 0.0669,13.30729 0.0672,13.73125 l 5.6e-4,0.77085 h -0.27106 -0.27107 z"
       id="path17"
       transform="matrix(0.26458333,0,0,0.26458333,0.57375925,-3.4425555)" /><path
       style="fill:#c8e6c9;fill-opacity:1;stroke-width:0.0338834"
       d="m 527.09488,318.1399 c -0.0116,-1.5328 -0.0289,-5.69156 -0.0383,-9.2417 -0.009,-3.55013 -0.0265,-7.59454 -0.038,-8.98758 l -0.0209,-2.53278 h 0.23747 0.23747 l 0.0197,0.72002 c 0.0109,0.39601 0.0354,4.79874 0.0546,9.78384 0.0192,4.9851 0.0445,9.95961 0.0563,11.05446 l 0.0214,1.99066 h -0.25434 -0.25435 z"
       id="path18"
       transform="matrix(0.26458333,0,0,0.26458333,0.57375925,-3.4425555)" /><path
       style="fill:#c8e6c9;fill-opacity:1;stroke-width:0.0119796"
       d="m 527.49165,298.12822 c 0,-0.0956 -0.004,-0.30402 -0.008,-0.46322 l -0.008,-0.28945 h -0.23023 -0.23023 l -0.007,-0.63192 c -0.004,-0.34756 -0.0101,-1.79364 -0.0135,-3.21353 -0.003,-1.41988 -0.009,-2.87136 -0.0135,-3.2255 l -0.007,-0.64391 h 0.23971 0.23972 l 0.007,0.26655 c 0.009,0.34797 0.0448,8.36164 0.0374,8.36906 -0.003,0.003 -0.006,-0.0725 -0.006,-0.16808 z"
       id="path19"
       transform="matrix(0.26458333,0,0,0.26458333,0.57375925,-3.4425555)" /><path
       style="fill:#c8e6c9;fill-opacity:1;stroke-width:0.0338834"
       d="m 526.97109,287.1874 c -4.4e-4,-1.35576 -0.023,-7.93126 -0.05,-14.61223 -0.0271,-6.68096 -0.0496,-12.38735 -0.05,-12.68087 l -8.1e-4,-0.53366 h 0.22025 0.22024 l 5.6e-4,0.77085 c 3e-4,0.42396 0.0306,6.61828 0.0672,13.76514 0.0367,7.14686 0.0669,13.61563 0.0672,14.37504 l 5.3e-4,1.38075 h -0.23718 -0.23719 z"
       id="path20"
       transform="matrix(0.26458333,0,0,0.26458333,0.57375925,-3.4425555)" /><path
       style="fill:#c8e6c9;fill-opacity:1;stroke-width:0.0677668"
       d="m 526.89227,259.29741 c -0.0154,-0.0491 -0.0701,-12.43212 -0.12159,-27.51786 -0.0721,-21.14007 -0.1122,-27.44727 -0.17488,-27.50995 -0.0626,-0.0625 -0.0813,-2.47212 -0.0813,-10.43611 v -10.35477 l 0.32189,-1e-5 0.32189,-1e-5 -0.0226,6.62422 c -0.0124,3.64332 0.0181,20.25552 0.0678,36.916 0.0497,16.66047 0.0904,30.7492 0.0904,31.30828 v 1.0165 l -0.18675,0.0215 c -0.11095,0.0128 -0.19812,-0.0147 -0.21477,-0.0678 z"
       id="path21"
       transform="matrix(0.26458333,0,0,0.26458333,0.57375925,-3.4425555)" /><path
       style="fill:#c8e6c9;fill-opacity:1;stroke-width:0.0338834"
       d="m 526.54979,178.94681 c 0.0182,-4.03552 0.0273,-4.60132 0.0856,-5.32816 0.14732,-1.83496 0.16029,-2.1454 0.53959,-12.90959 0.0565,-1.60268 0.11141,-3.02452 0.12209,-3.15963 l 0.0194,-0.24565 h 2.55531 2.5553 v 0.22024 0.22024 h -2.35173 -2.35174 l -0.0209,0.31342 c -0.0504,0.7562 -0.39732,9.24933 -0.42657,10.44457 -0.0429,1.75304 -0.10051,8.72263 -0.10077,12.18956 l -2.1e-4,2.76997 h -0.32287 -0.32286 z"
       id="path22"
       transform="matrix(0.26458333,0,0,0.26458333,0.57375925,-3.4425555)" /><path
       style="fill:#c8e6c9;fill-opacity:1;stroke-width:0.0338834"
       d="m 566.54773,339.2408 v -11.36788 h 0.25412 0.25413 v 11.36788 11.36789 h -0.25413 -0.25412 z"
       id="path23"
       transform="matrix(0.26458333,0,0,0.26458333,0.57375925,-3.4425555)" /><path
       style="fill:#c8e6c9;fill-opacity:1;stroke-width:0.176777"
       d="m 383.51704,504.43242 v -6.75327 l 36.54858,0.0889 c 27.34281,0.0665 37.66173,0.1489 40.968,0.32718 5.52686,0.29799 34.23874,0.26746 40.83542,-0.0434 3.23847,-0.15263 32.18767,-0.22813 108.33567,-0.28256 l 103.91625,-0.0743 -0.0844,-11.87834 c -0.0519,-7.30505 -0.16117,-12.45683 -0.28382,-13.38091 -0.83461,-6.28914 -3.5968,-11.42866 -8.88313,-16.52862 -3.2053,-3.0923 -7.06847,-5.57719 -10.41287,-6.69782 -2.64439,-0.88607 -6.68084,-1.16457 -22.08657,-1.52387 -10.00432,-0.23333 -15.62741,-0.47963 -17.21853,-0.7542 -1.71459,-0.29587 -30.30767,-0.29209 -40.49906,0.005 -10.55723,0.30813 -42.31684,0.52559 -121.53398,0.83217 -37.38385,0.14467 -73.35362,0.29507 -79.93281,0.33422 l -11.96218,0.0712 -2.97545,1.53651 c -1.6365,0.84509 -3.73118,2.04194 -4.65484,2.65968 -3.3487,2.23959 -6.58313,5.46754 -8.93721,8.9193 l -1.13906,1.6702 v -10.02164 -10.02163 l 1.28163,-0.94324 c 2.49109,-1.83337 6.48403,-4.00393 9.50175,-5.16514 3.01112,-1.15867 7.15231,-1.82687 13.70019,-2.21059 4.72919,-0.27714 32.48488,-0.50156 63.39982,-0.51262 l 27.33738,-0.01 0.10491,-2.87262 c 0.0577,-1.57994 0.18881,-12.85608 0.29134,-25.05809 0.26901,-32.01599 0.44507,-37.84547 1.23643,-40.93965 1.11211,-4.34832 6.28194,-10.70109 10.12738,-12.4447 1.00151,-0.45411 1.15308,-0.58763 1.24776,-1.09924 0.41882,-2.2632 0.7212,-14.67401 0.92189,-37.83804 l 0.11602,-13.39084 h 26.84869 26.84869 v 13.78304 c 0,12.17896 0.0309,13.77119 0.26516,13.68128 0.23255,-0.0892 0.26517,-1.78497 0.26517,-13.78304 v -13.68128 h 7.22067 7.22068 l 0.11556,2.14908 c 0.0635,1.18199 0.11686,7.36696 0.11845,13.74439 0.005,17.98476 0.36653,33.87644 0.8122,35.65208 0.0764,0.30428 0.29504,0.4741 0.77796,0.60413 2.45018,0.65977 7.37189,5.77144 9.36926,9.73089 0.84656,1.67816 1.35308,3.36903 1.58605,5.29458 0.33319,2.75373 0.52768,10.70752 0.7046,28.8146 0.0964,9.86856 0.2284,22.36806 0.29327,27.77667 l 0.11795,9.83384 20.70089,0.11327 c 11.38548,0.0623 30.565,0.0935 42.62117,0.0692 15.90987,-0.0319 22.8655,0.0161 25.36746,0.17509 15.53795,0.98766 21.85382,3.50453 30.77272,12.26291 3.88587,3.81593 6.49831,7.3248 8.45035,11.34998 3.92457,8.09262 5.3125,16.89414 5.32148,33.74583 l 0.003,5.96621 3.40295,10e-4 c 5.04784,0.002 6.88162,0.41321 8.47073,1.89964 1.22245,1.14346 1.61837,2.26902 1.63211,4.63975 0.009,1.57848 -0.051,1.99372 -0.40167,2.77571 -0.43238,0.96411 -1.50211,2.08387 -3.23555,3.3869 l -1.00319,0.75412 -130.2535,-0.10984 c -71.63943,-0.0604 -134.31053,-0.11352 -139.26912,-0.11805 -4.95859,-0.005 -25.97954,0.0479 -46.71324,0.11657 l -37.69763,0.12479 z m 169.86692,-78.35639 c -0.009,-4.39953 -0.0825,-8.39689 -0.1645,-8.88303 -0.0845,-0.50121 -0.10696,2.92373 -0.0519,7.91076 l 0.0971,8.79464 h -6.22879 -6.2288 l 0.0943,-7.02688 c 0.10015,-7.46655 0.22613,-9.02033 0.91371,-11.26951 0.53447,-1.74832 1.25658,-2.76127 2.35358,-3.30157 0.71949,-0.35437 1.10084,-0.41074 2.77849,-0.41074 2.27199,0 2.58925,0.11717 4.41042,1.62881 1.24678,1.03488 1.34846,0.814 0.15558,-0.33794 -1.07994,-1.04287 -2.52689,-1.61235 -4.3182,-1.69952 -3.121,-0.15189 -4.86539,0.95043 -5.67416,3.5856 -0.58196,1.89617 -0.69651,3.51168 -0.79319,11.18616 l -0.0985,7.82236 h 6.38522 6.38522 z m 21.72723,7.86667 -5.60025,-0.0492 -0.0988,-0.92562 c -0.0543,-0.50908 -0.26183,-3.55074 -0.46111,-6.75924 -0.61129,-9.84218 -1.26616,-13.76223 -2.92613,-17.51573 -1.64519,-3.72004 -5.52699,-7.4052 -10.06449,-9.55464 -5.46621,-2.58937 -12.2451,-2.3949 -17.83165,0.51154 -1.48282,0.77144 -3.89915,2.47362 -4.3448,3.06067 -0.14213,0.18723 -0.0228,0.13087 0.26517,-0.12523 2.18023,-1.93901 5.60097,-3.57203 9.07303,-4.33136 1.87041,-0.40906 5.79923,-0.41082 7.85754,-0.004 6.1827,1.22339 11.24608,5.08195 14.06938,10.72157 1.87291,3.7412 2.18552,5.77418 2.7592,17.94382 0.15583,3.30572 0.32228,6.26894 0.36987,6.58493 l 0.0865,0.57452 6.22337,-0.0416 6.22337,-0.0416 z m -61.53071,-40.65875 c -0.0255,-7.46218 -0.0464,-1.35676 -0.0464,13.56761 0,14.92438 0.0209,21.0298 0.0464,13.56761 0.0255,-7.46218 0.0255,-19.67303 0,-27.13522 z m 1.76626,37.57198 c -0.0346,-0.61148 -0.0632,-0.15719 -0.0636,1.00954 -3.5e-4,1.16672 0.028,1.66702 0.063,1.11178 0.035,-0.55525 0.0353,-1.50984 6.3e-4,-2.12132 z m 10.71344,1.58406 c 0.0624,-0.80212 0.10408,-1.97548 0.0925,-2.60746 -0.0182,-0.99559 -0.0517,-0.86574 -0.25093,0.97228 -0.28178,2.59989 -0.29865,3.09359 -0.10569,3.09359 0.0828,0 0.20166,-0.65629 0.2641,-1.45841 z m 0.24041,-5.12652 c -0.0421,-0.21877 -0.0766,-0.0398 -0.0766,0.39774 0,0.43753 0.0345,0.61651 0.0766,0.39775 0.0421,-0.21876 0.0421,-0.57673 0,-0.79549 z m -10.7782,-8.57367 c -0.0364,-0.46183 -0.0662,-0.084 -0.0662,0.83969 0,0.92365 0.0298,1.30151 0.0662,0.83968 0.0364,-0.46182 0.0364,-1.21755 0,-1.67937 z m -0.002,-3.09043 c -0.0393,-0.31773 -0.0724,-0.10039 -0.0733,0.48297 -9.9e-4,0.58336 0.0312,0.84332 0.0715,0.57769 0.0403,-0.26563 0.0411,-0.74293 0.002,-1.06066 z m 0.18028,-13.70336 c -0.0324,-0.85074 -0.0589,-0.15468 -0.0589,1.5468 0,1.70147 0.0265,2.39753 0.0589,1.54679 0.0324,-0.85074 0.0324,-2.24285 0,-3.09359 z m 0.17654,-14.59276 c -0.0327,-0.79735 -0.0593,-0.0974 -0.059,1.55548 2e-4,1.65286 0.0269,2.30524 0.0594,1.44973 0.0325,-0.85552 0.0323,-2.20786 -3.7e-4,-3.00521 z m 0.17702,-14.57539 c -0.0324,-0.85074 -0.0589,-0.15468 -0.0589,1.54679 0,1.70148 0.0265,2.39754 0.0589,1.5468 0.0324,-0.85074 0.0324,-2.24286 0,-3.09359 z m -2.30287,0.1792 c -0.0406,-0.26871 -0.075,-0.0908 -0.0763,0.39532 -10e-4,0.48614 0.0319,0.70599 0.0739,0.48857 0.0419,-0.21743 0.043,-0.61518 0.002,-0.88389 z m 0.167,-2.74247 c -0.049,-0.12153 -0.0892,-0.0221 -0.0892,0.22097 0,0.24307 0.0401,0.34251 0.0892,0.22097 0.049,-0.12153 0.049,-0.3204 0,-0.44194 z m 34.1776,-4.90614 c 29.60621,-0.37205 31.65643,-0.44662 24.04163,-0.87449 -4.20224,-0.23612 -45.60814,-0.24282 -50.07134,-0.008 -3.29257,0.17316 -4.50894,0.33932 -5.52493,0.75473 -0.45575,0.18635 -0.058,0.23127 2.82843,0.31948 3.50072,0.10699 6.61923,0.0862 28.72621,-0.19162 z"
       id="path24"
       transform="matrix(0.26458333,0,0,0.26458333,0.57375925,-3.4425555)" /><path
       style="fill:#c8e6c9;fill-opacity:1;stroke-width:0.125"
       d="m 396.1875,443.46548 v -7.36166 l 1.21875,-0.26903 c 2.86442,-0.63231 6.28782,-1.02601 11.03125,-1.2686 5.70943,-0.292 15.90776,-0.38209 52.26407,-0.46169 l 38.07658,-0.0834 0.0812,-5.57307 c 0.0447,-3.06519 0.13751,-11.42307 0.20628,-18.57307 0.35644,-37.05582 0.44665,-40.5461 1.13726,-44 0.26932,-1.34691 0.95743,-3.09936 1.76695,-4.5 2.01736,-3.49048 6.61688,-8.08672 8.80957,-8.8033 0.2912,-0.0952 0.61067,-0.26278 0.70995,-0.37248 0.37852,-0.41826 0.63705,-4.27762 0.78109,-11.66004 l 0.0825,-4.22668 h 34.71416 34.71415 l 0.0781,0.39062 c 0.043,0.21485 0.0782,1.32579 0.0783,2.46875 3.2e-4,4.92876 0.37931,12.30752 0.66062,12.86201 0.0959,0.18908 0.42686,0.4095 0.89979,0.5993 1.13892,0.4571 2.35229,1.34729 3.96046,2.90562 3.89445,3.77375 6.06476,7.41002 6.65731,11.15405 0.46017,2.9075 0.63832,8.72842 0.81854,26.74465 0.30133,30.12247 0.41533,40.5651 0.44323,40.59962 0.0165,0.0204 14.91485,0.0718 33.10745,0.11415 l 33.07746,0.077 v 6.61319 6.61319 l -0.96875,-0.0687 c -0.53281,-0.0378 -1.61563,-0.10037 -2.40625,-0.13905 -0.79063,-0.0387 -2.14063,-0.16544 -3,-0.28166 -1.39788,-0.18905 -3.2417,-0.21152 -17.5,-0.21328 -10.1609,-10e-4 -17.72711,0.0551 -20.875,0.15546 -7.11796,0.22696 -20.34178,0.38345 -44.5625,0.52735 -20.64486,0.12266 -33.79643,0.18159 -126.73474,0.56783 l -44.23474,0.18383 -2.54651,1.32034 -2.54651,1.32035 z m 157.24975,-14.30923 c -3.1e-4,-5.93051 -0.13885,-11.73267 -0.2634,-11.03125 -0.0488,0.275 -0.0394,3.62187 0.0208,7.4375 0.0603,3.81562 0.11146,7.26094 0.11371,7.65625 l 0.004,0.71875 h -6.2485 -6.24849 l -0.0343,-4.71875 -0.0343,-4.71875 -0.0297,4.78125 -0.0297,4.78125 h 6.375 6.375 z m 20.4065,4.81255 c -2.42344,-0.019 -4.40625,-0.0633 -4.40625,-0.0985 0,-0.64642 -0.93426,-13.74045 -1.06993,-14.99529 -1.03408,-9.56545 -3.39502,-14.03727 -9.55507,-18.09808 -5.43449,-3.58251 -11.6009,-4.38835 -17.8125,-2.32776 -2.11639,0.70208 -4.99496,2.30342 -6.37999,3.54918 -0.33926,0.30515 -0.23045,0.2499 0.34583,-0.17559 3.88688,-2.86984 8.90296,-4.29276 13.69041,-3.88359 2.0139,0.17212 3.09795,0.39164 4.91939,0.99617 5.08345,1.6872 9.16295,5.27499 11.59606,10.19837 1.16722,2.36186 1.72204,4.52112 2.07515,8.07618 0.14814,1.49145 0.94065,15.48449 0.94065,16.60872 0,0.23831 0.1152,0.24322 5.03125,0.2143 l 5.03125,-0.0296 z m -47.78144,-2.16563 c 0.13746,-2.23366 0.14619,-2.55334 0.0675,-2.4747 -0.0663,0.0663 -0.44236,3.70194 -0.44236,4.27654 0,0.26112 0.0406,0.34185 0.12807,0.25441 0.0705,-0.0704 0.18148,-0.99576 0.24674,-2.05625 z m 0.21058,-4.13911 c -0.0399,-0.0997 -0.0695,-0.0701 -0.0755,0.0755 -0.005,0.13177 0.0241,0.2056 0.0657,0.16407 0.0415,-0.0415 0.046,-0.14935 0.01,-0.23959 z m 14.7938,-7.78906 c 0.26381,-3.41214 0.89077,-5.51711 2.00702,-6.73847 0.8902,-0.97403 1.55751,-1.22809 3.41233,-1.29915 2.36697,-0.0907 3.08941,0.14881 4.82613,1.59985 0.49959,0.4174 0.9398,0.72746 0.97827,0.689 0.0385,-0.0385 -0.23617,-0.38104 -0.61027,-0.76131 -1.28183,-1.30296 -3.31375,-2.01608 -5.36767,-1.88383 -3.00184,0.1933 -4.38334,1.48479 -5.04674,4.71795 -0.26527,1.29286 -0.4547,3.66186 -0.42885,5.36346 0.012,0.79062 0.0382,1.12812 0.0581,0.75 0.02,-0.37813 0.0972,-1.475 0.17163,-2.4375 z m -25.54078,-3.96729 c -0.0299,-0.15549 -0.0555,-0.0577 -0.0569,0.21729 -10e-4,0.275 0.0231,0.40222 0.0544,0.28271 0.0313,-0.11951 0.0324,-0.34451 0.003,-0.5 z m -1.87282,-9.49922 c -0.0278,-0.22467 -0.0512,-0.071 -0.0519,0.34151 -7e-4,0.4125 0.0221,0.59632 0.0506,0.40849 0.0285,-0.18783 0.0291,-0.52533 10e-4,-0.75 z m 2.37563,-32.93695 c -0.0271,-0.25935 -0.0497,-0.0778 -0.0502,0.40346 -5.6e-4,0.48125 0.0216,0.69344 0.0492,0.47154 0.0276,-0.22191 0.0281,-0.61566 10e-4,-0.875 z m -2.25281,-0.31383 c -0.0299,-0.15549 -0.0555,-0.0577 -0.0569,0.21729 -10e-4,0.275 0.0231,0.40222 0.0544,0.28271 0.0313,-0.11951 0.0324,-0.34451 0.003,-0.5 z m 0.12198,-2.74365 c -0.0399,-0.0997 -0.0695,-0.0701 -0.0755,0.0755 -0.005,0.13177 0.0241,0.2056 0.0657,0.16407 0.0415,-0.0415 0.046,-0.14935 0.01,-0.23959 z m 32.41461,-5.10013 c 4.70937,-0.0662 12.89375,-0.17797 18.1875,-0.24839 5.29375,-0.0704 10.01875,-0.16639 10.5,-0.21327 l 0.875,-0.0852 -0.625,-0.0974 c -1.88766,-0.29404 -8.0562,-0.37535 -28.3125,-0.37318 -20.65724,0.002 -25.8007,0.0747 -28.21478,0.39748 -1.25203,0.16742 -2.35179,0.47695 -2.20743,0.62131 0.0611,0.0611 0.58892,0.13482 1.17291,0.16381 1.51196,0.075 18.51654,-0.0231 28.6243,-0.16517 z"
       id="path26"
       transform="matrix(0.26458333,0,0,0.26458333,0.57375925,-3.4425555)" /><path
       style="fill:#c8e6c9;fill-opacity:1;stroke-width:0.125"
       d="m 396.1875,443.44058 c 0,-4.05794 0.0426,-7.37808 0.0946,-7.37808 0.052,0 0.71296,-0.13774 1.46875,-0.30609 2.52756,-0.56302 5.85577,-0.94663 10.31165,-1.18852 5.05125,-0.27421 16.52051,-0.38462 52.80559,-0.50831 20.82745,-0.071 37.87897,-0.14158 37.89227,-0.15684 0.0278,-0.0319 0.24592,-19.46347 0.42901,-38.21524 0.18213,-18.65457 0.36207,-25.40312 0.75823,-28.4375 0.49593,-3.7985 2.3351,-7.19205 5.9085,-10.90207 1.69049,-1.75513 3.15058,-2.9131 4.53741,-3.59856 0.62894,-0.31086 1.17775,-0.6544 1.21959,-0.76343 0.25325,-0.65998 0.5229,-5.46498 0.65332,-11.64219 l 0.0851,-4.03125 h 34.71712 c 31.54215,0 34.72404,0.0181 34.79297,0.19772 0.0417,0.10875 0.0764,1.13531 0.0771,2.28125 0.003,4.78461 0.39738,12.58057 0.66518,13.14409 0.0957,0.20138 0.50289,0.48704 1.15818,0.8125 1.3088,0.65005 2.19055,1.31784 3.78529,2.8668 3.80701,3.6977 5.94491,7.29192 6.57608,11.05568 0.52019,3.10192 0.6272,7.58546 0.93862,39.32946 0.14298,14.575 0.28942,26.84227 0.32542,27.2606 l 0.0655,0.7606 17.71102,0.0831 c 9.74106,0.0457 24.6157,0.0831 33.05476,0.0831 l 15.34375,5e-5 v 6.625 6.625 l -0.28125,-0.001 c -0.95641,-0.004 -4.67824,-0.27956 -6.15625,-0.45614 -1.55139,-0.18534 -3.53756,-0.20848 -17.5,-0.20395 -8.6625,0.003 -17.85938,0.0681 -20.4375,0.14512 -11.33666,0.3386 -34.83984,0.5197 -107.375,0.82736 -23.89063,0.10134 -58.0625,0.24653 -75.9375,0.32265 l -32.5,0.13841 -2.59375,1.30441 -2.59375,1.30442 z m 144.59307,-12.72183 c -0.0229,-0.60156 -0.0417,-0.10938 -0.0417,1.09375 0,1.20312 0.0187,1.69531 0.0417,1.09375 0.0229,-0.60156 0.0229,-1.58594 0,-2.1875 z m 12.55044,-8.53125 -0.10407,-3.9375 -0.0197,3.88586 c -0.0109,2.13723 0.0225,5.68098 0.074,7.875 L 553.375,434 l 0.03,-3.9375 c 0.0165,-2.16563 -0.0168,-5.70938 -0.074,-7.875 z m 15.98116,10.84375 c -4.1e-4,-1.14435 -0.68665,-11.26258 -0.9389,-13.84375 -0.59901,-6.12922 -1.84543,-10.24931 -4.01027,-13.256 -1.78403,-2.4778 -4.71336,-4.88503 -7.863,-6.46156 -2.07206,-1.03715 -2.89291,-1.28416 -4.2262,-1.27173 l -1.1488,0.0107 0.875,0.22693 c 3.10165,0.80439 5.90246,2.25647 8.29895,4.30258 2.15384,1.83893 4.10379,4.5098 5.29107,7.24723 1.00709,2.32197 1.46329,4.55858 1.78339,8.74348 0.17964,2.34852 0.81409,13.8805 0.81409,14.79705 0,0.40414 0.01,0.41131 0.5625,0.41131 h 0.5625 z m -43.31482,-1.10303 0.0538,-1.67822 -0.17359,1.4375 c -0.21825,1.80728 -0.23061,2.21556 -0.062,2.04697 0.0704,-0.0704 0.15224,-0.88323 0.18183,-1.80625 z m 0.15131,-2.33447 c -0.0314,-0.12031 -0.0572,-0.0219 -0.0572,0.21875 0,0.24062 0.0257,0.33906 0.0572,0.21875 0.0315,-0.12031 0.0315,-0.31719 0,-0.4375 z m 15.15895,-12.01617 c 0.21354,-1.26095 0.59786,-2.58518 0.95455,-3.28909 0.45124,-0.89045 1.31919,-1.77201 2.08611,-2.1188 0.59465,-0.26888 0.8214,-0.29469 2.58923,-0.29469 1.85479,0 1.96685,0.0145 2.625,0.33904 0.37812,0.18647 1.104,0.67934 1.61306,1.09527 0.99695,0.81457 1.32369,0.90462 0.62839,0.1732 -1.3722,-1.44352 -3.8398,-2.23588 -6.0191,-1.93277 -3.51616,0.48906 -4.67933,2.58432 -4.89926,8.82526 l -0.0617,1.75 0.17178,-1.85992 c 0.0945,-1.02296 0.23485,-2.23234 0.31192,-2.6875 z m -4.19224,-17.25317 c -0.0544,-0.0552 -1.80287,1.08013 -1.80287,1.17072 0,0.0306 0.41686,-0.20892 0.92637,-0.53225 0.5095,-0.32333 0.90393,-0.61064 0.8765,-0.63847 z m 12.78828,-2.33743 c -0.0415,-0.0415 -0.14935,-0.046 -0.23959,-0.01 -0.0997,0.0399 -0.0701,0.0695 0.0755,0.0755 0.13176,0.005 0.2056,-0.0241 0.16406,-0.0657 z m -4.125,-0.125 c -0.0415,-0.0415 -0.14935,-0.046 -0.23959,-0.01 -0.0997,0.0399 -0.0701,0.0695 0.0755,0.0755 0.13176,0.005 0.2056,-0.0241 0.16406,-0.0657 z m 2.81747,-0.006 c -0.0846,-0.0342 -0.25337,-0.0363 -0.375,-0.005 -0.12161,0.0317 -0.0524,0.0597 0.15388,0.0623 0.20625,0.003 0.30576,-0.0234 0.22112,-0.0576 z m -0.56766,-0.50924 c -0.25935,-0.0271 -0.6531,-0.0266 -0.875,10e-4 -0.2219,0.0276 -0.01,0.0498 0.47154,0.0492 0.48125,-5.5e-4 0.66281,-0.0231 0.40346,-0.0502 z M 544.625,365.30836 c 21.83995,-0.27296 28.32234,-0.37224 29.6875,-0.45467 1.35885,-0.082 1.39989,-0.0922 0.75,-0.18496 -1.76834,-0.25249 -9.75756,-0.35236 -28.125,-0.35158 -23.5253,9.9e-4 -27.63548,0.0971 -29.73542,0.69532 -1.64775,0.46941 -0.33725,0.5287 10.23542,0.46311 4.15937,-0.0258 11.89375,-0.10105 17.1875,-0.16722 z"
       id="path27"
       transform="matrix(0.26458333,0,0,0.26458333,0.57375925,-3.4425555)" /><path
       style="fill:#c8e6c9;fill-opacity:1;stroke-width:0.125"
       d="m 396.1875,443.45794 v -7.3754 l 0.84375,-0.18739 c 3.74734,-0.83225 7.40259,-1.21619 13.90625,-1.46067 4.72028,-0.17744 29.34103,-0.36277 48.875,-0.36789 8.90312,-0.002 21.29013,-0.0416 27.52667,-0.0872 l 11.33918,-0.083 0.0632,-0.51068 c 0.0348,-0.28088 0.12181,-6.41693 0.19348,-13.63568 0.32343,-32.58024 0.3866,-37.93765 0.50477,-42.8125 0.2278,-9.3976 0.47879,-11.35494 1.82609,-14.24072 1.04152,-2.23081 3.02843,-4.87697 5.31212,-7.07463 1.50404,-1.44739 2.47663,-2.18748 3.79934,-2.89113 0.58474,-0.31106 1.11467,-0.66181 1.17762,-0.77944 0.28143,-0.52585 0.5517,-5.07473 0.70827,-11.92055 l 0.0851,-3.71897 34.76336,0.0315 34.76335,0.0315 0.0273,1.4375 c 0.0642,3.38605 0.30221,9.95253 0.42131,11.625 0.19044,2.67442 0.16725,2.62035 1.39642,3.25658 1.49972,0.77627 2.57986,1.63693 4.41023,3.51406 2.01912,2.07069 3.44118,3.95394 4.40964,5.8397 0.88624,1.72564 1.3007,2.91963 1.56921,4.5205 0.58447,3.48472 0.68057,7.94013 1.07835,49.99416 0.0712,7.52812 0.16209,14.53602 0.20197,15.5731 l 0.0725,1.88559 19.95655,0.0831 c 10.97611,0.0457 25.84875,0.0831 33.05031,0.0832 l 13.09375,4e-5 v 6.625 6.625 l -0.59375,-10e-4 c -0.86685,-0.002 -3.9492,-0.22785 -5.99645,-0.43976 -1.46524,-0.15166 -4.53014,-0.18373 -17.4375,-0.18248 -8.61289,8.3e-4 -17.62855,0.0559 -20.0348,0.12241 -14.3304,0.39599 -37.89143,0.5487 -166.1875,1.07708 l -49.9375,0.20567 -2.5,1.26386 c -1.375,0.69512 -2.54219,1.28331 -2.59375,1.30708 -0.0516,0.0238 -0.0937,-3.27572 -0.0937,-7.33218 z M 525.97847,432.0625 c 0.0427,-0.89463 0.0314,-1.20147 -0.0299,-0.8125 -0.17478,1.10903 -0.26909,2.63604 -0.15055,2.4375 0.0616,-0.10313 0.14278,-0.83438 0.18048,-1.625 z m 27.38053,-6.27566 c -0.06,-3.45776 -0.12726,-5.52747 -0.14958,-4.59934 -0.0503,2.09313 0.10937,11.03537 0.19554,10.94921 0.0347,-0.0347 0.014,-2.89211 -0.046,-6.34987 z m 15.91129,5.99441 c -0.0347,-0.0859 -0.0631,-0.0156 -0.0631,0.15625 0,0.17187 0.0284,0.24219 0.0631,0.15625 0.0347,-0.0859 0.0347,-0.22656 0,-0.3125 z m -1.125,-0.5 c -0.0347,-0.0859 -0.0631,-0.0156 -0.0631,0.15625 0,0.17187 0.0284,0.24219 0.0631,0.15625 0.0347,-0.0859 0.0347,-0.22656 0,-0.3125 z m -0.1224,-2.36719 c -0.0399,-0.0997 -0.0695,-0.0701 -0.0755,0.0755 -0.005,0.13177 0.0241,0.2056 0.0657,0.16407 0.0415,-0.0415 0.046,-0.14935 0.01,-0.23959 z m -0.125,-2.375 c -0.0399,-0.0997 -0.0695,-0.0701 -0.0755,0.0755 -0.005,0.13177 0.0241,0.2056 0.0657,0.16407 0.0415,-0.0415 0.046,-0.14935 0.01,-0.23959 z m -0.125,-2.25 c -0.0399,-0.0997 -0.0695,-0.0701 -0.0755,0.0755 -0.005,0.13177 0.0241,0.2056 0.0657,0.16407 0.0415,-0.0415 0.046,-0.14935 0.01,-0.23959 z m 1,0 c -0.0399,-0.0997 -0.0695,-0.0701 -0.0755,0.0755 -0.005,0.13177 0.0241,0.2056 0.0657,0.16407 0.0415,-0.0415 0.046,-0.14935 0.01,-0.23959 z m -0.125,-1.75 c -0.0399,-0.0997 -0.0695,-0.0701 -0.0755,0.0755 -0.005,0.13177 0.0241,0.2056 0.0657,0.16407 0.0415,-0.0415 0.046,-0.14935 0.01,-0.23959 z m -1,-0.625 c -0.0399,-0.0997 -0.0695,-0.0701 -0.0755,0.0755 -0.005,0.13177 0.0241,0.2056 0.0657,0.16407 0.0415,-0.0415 0.046,-0.14935 0.01,-0.23959 z m -26.7526,-1.13281 c -0.0347,-0.0859 -0.0631,-0.0156 -0.0631,0.15625 0,0.17187 0.0284,0.24219 0.0631,0.15625 0.0347,-0.0859 0.0347,-0.22656 0,-0.3125 z m 0.30121,-2.43765 c 0.17031,-1.46856 0.63066,-3.19464 1.09994,-4.12429 0.45292,-0.89722 1.38773,-1.78864 2.20708,-2.10463 0.51332,-0.19797 0.9478,-0.23968 2.49648,-0.23968 1.77041,0 1.91335,0.0184 2.5625,0.33043 0.37812,0.18174 1.07685,0.64551 1.55274,1.0306 0.98602,0.79791 1.30348,0.81868 0.43337,0.0283 -1.23147,-1.11858 -2.90521,-1.72724 -4.7573,-1.73002 -2.92715,-0.004 -4.50964,1.13328 -5.28464,3.79916 -0.26512,0.91203 -0.56857,3.21914 -0.548,4.16648 0.009,0.4125 0.036,0.58125 0.06,0.375 0.024,-0.20625 0.10407,-0.89538 0.17783,-1.5314 z m 26.32639,1.44546 c -0.0399,-0.0997 -0.0695,-0.0701 -0.0755,0.0755 -0.005,0.13177 0.0241,0.2056 0.0657,0.16407 0.0415,-0.0415 0.046,-0.14935 0.01,-0.23959 z m -0.125,-1.75 c -0.0399,-0.0997 -0.0695,-0.0701 -0.0755,0.0755 -0.005,0.13177 0.0241,0.2056 0.0657,0.16407 0.0415,-0.0415 0.046,-0.14935 0.01,-0.23959 z M 536.5,400.75226 l 0.25,-0.20355 -0.25,0.12273 c -0.1375,0.0675 -0.3625,0.21434 -0.5,0.3263 l -0.25,0.20355 0.25,-0.12274 c 0.1375,-0.0675 0.3625,-0.21433 0.5,-0.32629 z m 16.77865,-2.51528 c -0.0415,-0.0415 -0.14935,-0.046 -0.23959,-0.01 -0.0997,0.0399 -0.0701,0.0695 0.0755,0.0755 0.13176,0.005 0.2056,-0.0241 0.16406,-0.0657 z M 543.625,365.31392 c 31.01172,-0.40762 32.52206,-0.43868 31.3125,-0.64403 -1.49973,-0.2546 -14.35614,-0.3785 -32.9375,-0.31743 -21.16199,0.0695 -22.76264,0.11589 -24.97555,0.72293 -0.44339,0.12163 -0.48581,0.15938 -0.27445,0.2442 0.35335,0.14182 15.90412,0.13854 26.875,-0.006 z"
       id="path28"
       transform="matrix(0.26458333,0,0,0.26458333,0.57375925,-3.4425555)" /><path
       style="fill:#c8e6c9;fill-opacity:1;stroke-width:0.125"
       d="m 445.4375,497.6068 c -14.10559,-0.041 -47.64381,-0.297 -48.46875,-0.37004 l -0.78125,-0.0692 v -30.54214 -30.54213 l 1.09375,-0.25393 c 2.63937,-0.61277 5.93776,-1.01394 10.40625,-1.26567 5.01836,-0.2827 14.95355,-0.37898 52.18275,-0.50569 21.30988,-0.0725 38.77213,-0.15876 38.80499,-0.19161 0.0728,-0.0728 0.19827,-9.26171 0.38128,-27.92893 0.3225,-32.89354 0.46811,-37.62456 1.25195,-40.67605 0.72651,-2.82831 2.65066,-5.92369 5.53227,-8.89976 1.75536,-1.81289 3.05066,-2.857 4.49781,-3.62553 0.72218,-0.38352 1.16196,-0.69813 1.23147,-0.88095 0.26227,-0.68982 0.52945,-5.35478 0.69152,-12.07396 l 0.0837,-3.46875 h 34.77628 34.77628 l 0.085,3.90625 c 0.15583,7.15823 0.41614,11.26303 0.74621,11.76678 0.0985,0.15038 0.59357,0.4882 1.10007,0.7507 1.35515,0.70233 2.47417,1.60496 4.30466,3.47221 3.87381,3.95161 5.68046,7.33214 6.1681,11.54156 0.37592,3.24492 0.53336,11.09881 0.82069,40.9375 0.10293,10.69062 0.22203,20.73959 0.26465,22.33104 l 0.0775,2.89355 0.64267,0.0711 c 0.35346,0.0391 15.22547,0.10892 33.04891,0.15519 l 32.40625,0.0841 v 31.42001 31.42003 l -18.96875,0.003 c -35.23903,0.006 -126.72771,0.23697 -143.53125,0.36278 -18.70674,0.14008 -41.13347,0.21469 -53.625,0.17843 z m -46.15886,-47.24482 c -0.0415,-0.0415 -0.14934,-0.046 -0.23958,-0.01 -0.0997,0.0399 -0.0701,0.0695 0.0755,0.0755 0.13177,0.005 0.2056,-0.0241 0.16406,-0.0657 z m 1.375,-0.25 c -0.0415,-0.0415 -0.14934,-0.046 -0.23958,-0.01 -0.0997,0.0399 -0.0701,0.0695 0.0755,0.0755 0.13177,0.005 0.2056,-0.0241 0.16406,-0.0657 z m 1.81511,-0.25727 c -0.0859,-0.0347 -0.22656,-0.0347 -0.3125,0 -0.0859,0.0347 -0.0156,0.063 0.15625,0.063 0.17187,0 0.24219,-0.0284 0.15625,-0.063 z m 1,-0.125 c -0.0859,-0.0347 -0.22656,-0.0347 -0.3125,0 -0.0859,0.0347 -0.0156,0.063 0.15625,0.063 0.17187,0 0.24219,-0.0284 0.15625,-0.063 z m 1.375,-0.125 c -0.0859,-0.0347 -0.22656,-0.0347 -0.3125,0 -0.0859,0.0347 -0.0156,0.063 0.15625,0.063 0.17187,0 0.24219,-0.0284 0.15625,-0.063 z m 1.5625,-0.12838 c -0.12031,-0.0314 -0.31719,-0.0314 -0.4375,0 -0.12031,0.0314 -0.0219,0.0572 0.21875,0.0572 0.24062,0 0.33906,-0.0257 0.21875,-0.0572 z m 1.75146,-0.12472 c -0.11951,-0.0313 -0.34451,-0.0324 -0.5,-0.003 -0.15549,0.0299 -0.0577,0.0555 0.21729,0.0569 0.275,0.001 0.40222,-0.0231 0.28271,-0.0544 z m 2.18604,-0.12733 c -0.15469,-0.0298 -0.40781,-0.0298 -0.5625,0 -0.15469,0.0298 -0.0281,0.0542 0.28125,0.0542 0.30937,0 0.43594,-0.0244 0.28125,-0.0542 z m 2.6875,-0.12631 c -0.18906,-0.0286 -0.49844,-0.0286 -0.6875,0 -0.18906,0.0286 -0.0344,0.0521 0.34375,0.0521 0.37812,0 0.53281,-0.0234 0.34375,-0.0521 z m 3.37221,-0.1267 c -0.25934,-0.0271 -0.65309,-0.0266 -0.875,10e-4 -0.2219,0.0276 -0.01,0.0498 0.47154,0.0492 0.48125,-5.5e-4 0.66281,-0.0231 0.40346,-0.0502 z m 4.00609,-0.12463 c -0.25599,-0.0269 -0.70599,-0.0272 -1,-8.3e-4 -0.294,0.0264 -0.0846,0.0484 0.46545,0.0488 0.55,4.5e-4 0.79055,-0.0212 0.53455,-0.048 z m 5.50089,-0.12585 c -0.32426,-0.0257 -0.88676,-0.0259 -1.25,-5.9e-4 -0.36324,0.0253 -0.0979,0.0463 0.58956,0.0466 0.6875,3.2e-4 0.9847,-0.0204 0.66044,-0.0461 z m 8.18331,-0.1261 c -0.49844,-0.0237 -1.31406,-0.0237 -1.8125,0 -0.49844,0.0237 -0.0906,0.0431 0.90625,0.0431 0.99687,0 1.40469,-0.0194 0.90625,-0.0431 z m 10.88179,-0.12535 c -0.70095,-0.0222 -1.8822,-0.0223 -2.625,-1.9e-4 -0.7428,0.0221 -0.16929,0.0403 1.27446,0.0404 1.44375,1e-4 2.05149,-0.018 1.35054,-0.0403 z m 14.74321,-0.12531 c -0.97969,-0.0211 -2.58281,-0.0211 -3.5625,0 -0.97969,0.0211 -0.17813,0.0384 1.78125,0.0384 1.95937,0 2.76094,-0.0173 1.78125,-0.0384 z m -56.55831,-0.12324 c -0.32426,-0.0257 -0.88676,-0.0259 -1.25,-5.9e-4 -0.36324,0.0253 -0.0979,0.0463 0.58956,0.0466 0.6875,3.2e-4 0.9847,-0.0204 0.66044,-0.0461 z m 77.69148,-0.002 c -1.25019,-0.0204 -3.33144,-0.0204 -4.625,-7e-5 -1.29356,0.0203 -0.27067,0.037 2.27308,0.037 2.54375,4e-5 3.60211,-0.0166 2.35192,-0.037 z m -49.00817,-0.12484 c -0.84219,-0.0216 -2.22031,-0.0216 -3.0625,0 -0.84219,0.0216 -0.15313,0.0393 1.53125,0.0393 1.68437,0 2.37344,-0.0177 1.53125,-0.0393 z m 74.32091,-2e-4 c -1.42193,-0.02 -3.78443,-0.0201 -5.25,-6e-5 -1.46556,0.02 -0.30216,0.0364 2.58534,0.0364 2.8875,3e-5 4.0866,-0.0163 2.66466,-0.0364 z m -44.25124,-0.1247 c -0.80387,-0.0217 -2.15387,-0.0218 -3,-1.5e-4 -0.84613,0.0217 -0.18842,0.0394 1.46158,0.0395 1.65,8e-5 2.34229,-0.0176 1.53842,-0.0394 z m 30.56261,-0.12504 c -0.83819,-0.0216 -2.24444,-0.0217 -3.125,-1.4e-4 -0.88057,0.0215 -0.19478,0.0392 1.52397,0.0393 1.71875,7e-5 2.43921,-0.0175 1.60103,-0.0391 z m 69.24272,-3.3e-4 c -1.73594,-0.0196 -4.57656,-0.0196 -6.3125,0 -1.73594,0.0196 -0.31563,0.0356 3.15625,0.0356 3.47187,0 4.89219,-0.016 3.15625,-0.0356 z m 94.6875,1.4e-4 c -1.08281,-0.0208 -2.85469,-0.0208 -3.9375,0 -1.08281,0.0208 -0.19688,0.0378 1.96875,0.0378 2.16562,0 3.05156,-0.017 1.96875,-0.0378 z m -135.56943,-0.12487 c -0.77725,-0.022 -2.01475,-0.0219 -2.75,1.7e-4 -0.73525,0.0221 -0.0993,0.04 1.41318,0.0399 1.5125,-9e-5 2.11407,-0.0181 1.33682,-0.0401 z m 27.81943,-0.12497 c -0.80781,-0.0218 -2.12969,-0.0218 -2.9375,0 -0.80781,0.0218 -0.14688,0.0396 1.46875,0.0396 1.61562,0 2.27656,-0.0178 1.46875,-0.0396 z m 23.06899,-0.1247 c -0.63237,-0.0226 -1.70112,-0.0227 -2.375,-2.2e-4 -0.67388,0.0225 -0.15649,0.0411 1.14976,0.0412 1.30625,1.2e-4 1.85761,-0.0183 1.22524,-0.041 z m 18.05601,-0.12464 c -0.46406,-0.0241 -1.22344,-0.0241 -1.6875,0 -0.46406,0.024 -0.0844,0.0437 0.84375,0.0437 0.92812,0 1.30781,-0.0197 0.84375,-0.0437 z m 69.6224,0.0172 c -0.0415,-0.0415 -0.14935,-0.046 -0.23959,-0.01 -0.0997,0.0399 -0.0701,0.0695 0.0755,0.0755 0.13176,0.005 0.2056,-0.0241 0.16406,-0.0657 z m -56.74321,-0.14119 c -0.32425,-0.0257 -0.88675,-0.0259 -1.25,-5.9e-4 -0.36324,0.0253 -0.0979,0.0463 0.58956,0.0466 0.6875,3.2e-4 0.9847,-0.0204 0.66044,-0.0461 z m 54.86821,0.0162 c -0.0415,-0.0415 -0.14935,-0.046 -0.23959,-0.01 -0.0997,0.0399 -0.0701,0.0695 0.0755,0.0755 0.13176,0.005 0.2056,-0.0241 0.16406,-0.0657 z m -46.4974,-0.14054 c -0.25781,-0.027 -0.67969,-0.027 -0.9375,0 -0.25781,0.027 -0.0469,0.049 0.46875,0.049 0.51562,0 0.72656,-0.0221 0.46875,-0.049 z m 5.62724,-0.12326 c -0.18783,-0.0285 -0.52533,-0.0291 -0.75,-10e-4 -0.22467,0.0278 -0.071,0.0512 0.34151,0.0519 0.4125,7e-4 0.59632,-0.0221 0.40849,-0.0506 z m 8.18526,-0.12881 c -0.63594,-0.0227 -1.67656,-0.0227 -2.3125,0 -0.63594,0.0227 -0.11563,0.0412 1.15625,0.0412 1.27187,0 1.79219,-0.0186 1.15625,-0.0412 z m 27.4375,10e-4 c -0.32656,-0.0258 -0.86094,-0.0258 -1.1875,0 -0.32656,0.0258 -0.0594,0.0468 0.59375,0.0468 0.65312,0 0.92031,-0.0211 0.59375,-0.0468 z m -126.35254,-14.2727 c 0.012,-0.92773 -0.0694,-0.76043 -0.14709,0.30208 -0.0366,0.50069 -0.0207,0.76805 0.0372,0.625 0.0556,-0.1375 0.10509,-0.55469 0.10991,-0.92708 z m 27.47531,-3.29167 c -0.0263,-0.29219 -0.0478,-0.0531 -0.0478,0.53125 0,0.58437 0.0215,0.82344 0.0478,0.53125 0.0263,-0.29219 0.0263,-0.77031 0,-1.0625 z m -0.12317,-6.55571 c -0.0221,-0.7428 -0.0403,-0.16929 -0.0404,1.27446 -10e-5,1.44375 0.018,2.05149 0.0403,1.35054 0.0222,-0.70095 0.0223,-1.8822 1.9e-4,-2.625 z M 541.29765,417.25 c -9.6e-4,-0.24003 -0.005,-0.23952 -0.10725,0.0129 -0.0584,0.14459 -0.13746,0.79146 -0.1756,1.4375 l -0.0693,1.17461 0.17659,-1.1875 c 0.0971,-0.65313 0.17614,-1.3 0.1756,-1.4375 z m 10.21984,-3.99323 c -0.62298,-0.55838 -1.52535,-1.10074 -2.07999,-1.25016 -0.17188,-0.0463 -0.0312,0.0757 0.3125,0.27108 0.34375,0.19539 0.9625,0.62063 1.375,0.94496 0.93999,0.73908 1.20466,0.76209 0.39249,0.0341 z m -2.54874,-1.40206 c -0.0859,-0.0347 -0.22656,-0.0347 -0.3125,0 -0.0859,0.0347 -0.0156,0.063 0.15625,0.063 0.17187,0 0.24219,-0.0284 0.15625,-0.063 z m -1.625,-0.13264 c -0.22344,-0.0277 -0.58906,-0.0277 -0.8125,0 -0.22344,0.0277 -0.0406,0.0504 0.40625,0.0504 0.44687,0 0.62969,-0.0227 0.40625,-0.0504 z M 557,365.1329 c 21.00659,-0.29112 23.07721,-0.45657 8.8125,-0.70418 -9.30371,-0.16149 -40.65684,-0.0706 -44.47025,0.12889 -2.29433,0.12004 -3.46906,0.26767 -4.27975,0.53786 l -0.4375,0.14581 0.4375,0.0917 c 0.63862,0.1339 24.44236,0.0146 39.9375,-0.20011 z"
       id="path29"
       transform="matrix(0.26458333,0,0,0.26458333,0.57375925,-3.4425555)" /><path
       style="fill:#c8e6c9;fill-opacity:1;stroke-width:0.125"
       d="m 439.625,497.61396 c -24.19457,-0.16029 -42.80863,-0.32425 -43.09375,-0.3796 l -0.34375,-0.0667 v -30.54415 c 0,-28.98015 0.0112,-30.54766 0.21875,-30.61287 1.33282,-0.41874 5.93905,-1.08756 9.09375,-1.3204 5.59566,-0.41302 20.49162,-0.57318 63.9375,-0.68747 15.15937,-0.0399 27.93649,-0.1057 28.3936,-0.14628 l 0.8311,-0.0738 0.0743,-2.01635 c 0.0409,-1.10899 0.13176,-7.83822 0.20203,-14.95384 0.41837,-42.3689 0.5081,-46.5697 1.07048,-50.11965 0.59986,-3.78653 2.78381,-7.4298 6.7249,-11.21855 1.3768,-1.32358 2.54526,-2.19725 3.93261,-2.94046 0.35026,-0.18763 0.71966,-0.46888 0.8209,-0.625 0.31296,-0.48263 0.56776,-4.58672 0.77233,-12.44009 l 0.0822,-3.15625 h 34.77387 34.77388 l 0.15041,5.34375 c 0.16395,5.82499 0.34702,9.00864 0.56791,9.87594 0.13536,0.53154 0.19665,0.58891 1.31428,1.23031 1.40642,0.80713 2.4497,1.63388 3.94263,3.12439 3.4747,3.46905 5.4999,6.82289 6.18225,10.23811 0.64232,3.21489 0.73892,7.23555 1.13672,47.3125 0.0679,6.84062 0.15905,14.24295 0.20253,16.4496 l 0.0791,4.01211 2.14225,0.0813 c 1.17824,0.0447 5.91572,0.0814 10.52775,0.0816 4.61201,2.1e-4 18.51982,0.0378 30.90625,0.0836 l 22.52075,0.0832 v 31.41677 31.41679 l -11.96875,0.002 c -29.8225,0.004 -130.94203,0.25884 -146.65625,0.36945 -18.80875,0.1324 -54.99272,0.23547 -63.3125,0.18036 z m -36.90625,-49.38425 c -0.0859,-0.0347 -0.22656,-0.0347 -0.3125,0 -0.0859,0.0347 -0.0156,0.063 0.15625,0.063 0.17187,0 0.24219,-0.0284 0.15625,-0.063 z M 525.9022,432.34547 c -0.0287,-0.19001 -0.053,-0.0642 -0.0539,0.27953 -9.4e-4,0.34375 0.0226,0.49921 0.0522,0.34547 0.0297,-0.15374 0.0304,-0.43499 0.002,-0.625 z m 15.11809,-13.31422 c -0.0347,-0.0859 -0.0631,-0.0156 -0.0631,0.15625 0,0.17187 0.0284,0.24219 0.0631,0.15625 0.0347,-0.0859 0.0347,-0.22656 0,-0.3125 z m 0.20835,-1.21875 c 0.049,-0.44898 0.0362,-0.60077 -0.0368,-0.4375 -0.1058,0.23662 -0.18063,1.28777 -0.0838,1.17708 0.0251,-0.0286 0.0793,-0.36146 0.12058,-0.73958 z m 10.39636,-4.45952 c -0.51261,-0.42664 -1.57055,-1.10555 -1.875,-1.20324 -0.2401,-0.077 -0.24063,-0.0742 -0.0135,0.0725 0.13011,0.084 0.66449,0.4681 1.1875,0.85355 0.93629,0.69 1.43291,0.88638 0.70095,0.27717 z m -12.0625,-48.04014 c 24.96529,-0.25186 35.79967,-0.45168 34.8125,-0.64203 -1.07598,-0.20748 -20.8052,-0.376 -34.9375,-0.29842 -17.53248,0.0962 -20.54566,0.19262 -22.26496,0.71215 l -0.54754,0.16546 1.25,0.0695 c 2.17522,0.12102 9.24492,0.11883 21.6875,-0.007 z"
       id="path30"
       transform="matrix(0.26458333,0,0,0.26458333,0.57375925,-3.4425555)" /><path
       style="fill:#c8e6c9;fill-opacity:1;stroke-width:0.25"
       d="m 361.23355,510.85575 c -1.96074,-0.094 -4.11748,-0.34438 -4.875,-0.56603 -2.79371,-0.8175 -4.27767,-2.86637 -4.27767,-5.90612 0,-5.13163 2.51801,-6.73993 10.57379,-6.75365 l 2.90467,-0.005 0.13481,-9.5625 c 0.22012,-15.6135 1.27776,-21.63208 5.19502,-29.5625 2.36422,-4.78633 4.39802,-7.55505 8.72718,-11.88075 4.00947,-4.0063 6.50577,-5.86153 10.89711,-8.09865 4.8166,-2.45378 8.04189,-3.28778 15.11154,-3.9076 3.05991,-0.26828 48.53782,-0.69945 76.3125,-0.72353 9.17812,-0.008 16.69293,-0.0426 16.69957,-0.077 0.007,-0.0344 0.17279,-13.39375 0.36923,-29.6875 0.3622,-30.04172 0.56173,-36.21487 1.25693,-38.88739 1.0782,-4.14487 5.73081,-10.05303 9.77977,-12.41893 1.39116,-0.81289 1.46331,-0.90484 1.63571,-2.08454 0.74443,-5.09419 1.35552,-74.0721 1.44002,-162.54664 l 0.006,-6.5625 h 26.625 26.625 v 52.45867 c 0,53.36793 0.24899,96.14193 0.53069,91.16633 0.0856,-1.5125 0.17001,-34.44688 0.1875,-73.1875 l 0.0318,-70.4375 h 7.125 7.125 l 0.019,19.4375 c 0.0474,48.45939 0.48299,135.57811 0.70849,141.6875 0.35178,9.53061 0.22134,8.93357 2.23598,10.23441 2.28157,1.47319 3.74771,2.82361 5.65868,5.21202 1.96002,2.44973 3.48377,5.29375 3.99528,7.45708 0.21029,0.88936 0.48781,3.97721 0.62656,6.97149 0.22396,4.83299 0.75152,43.52214 0.7602,55.75 0.002,2.68125 0.10601,5.03707 0.23133,5.23515 0.19629,0.31022 6.44168,0.38532 45.05868,0.54185 30.27195,0.1227 45.68327,0.27307 47.4558,0.46305 13.14895,1.4093 19.1261,4.2476 27.75,13.17735 3.448,3.5703 5.3243,6.1403 7.23917,9.91565 3.94758,7.78295 5.5018,17.32602 5.5084,33.82197 l 0.002,6.03005 4.0625,0.1309 c 4.93892,0.15915 6.34015,0.5209 7.84427,2.02503 1.1929,1.19287 1.58983,2.34105 1.59183,4.60452 0.002,2.50925 -0.69023,3.72083 -3.3373,5.83915 l -1.21373,0.97128 -186.41128,-0.0533 c -102.5255,-0.0293 -187.99298,-0.12912 -189.92703,-0.22182 z M 519.625,497.8858 c 12.44375,-0.12743 61.29687,-0.23823 108.5625,-0.24623 l 85.9375,-0.0146 -0.0569,-5.1875 -0.0569,-5.1875 -0.0733,4.89647 -0.0733,4.89645 -104.80735,0.2008 c -57.64404,0.11045 -119.2636,0.27453 -136.93235,0.36463 -17.66875,0.0901 -28.01875,0.20065 -23,0.24567 5.01875,0.0451 11.09375,0.16908 13.5,0.27563 4.60071,0.20375 19.51857,0.13992 57,-0.24385 z m -101.77083,-0.35328 c -0.0573,-0.0508 -8.5698,-0.17212 -18.91667,-0.2695 -13.39235,-0.12602 -18.8125,-0.0994 -18.8125,0.0925 0,0.1903 5.55933,0.2695 18.91667,0.2695 10.40416,0 18.86979,-0.0416 18.8125,-0.0925 z m -36.96951,-23.6453 c 0.15758,-1.57452 0.50368,-3.71202 0.76911,-4.75 0.90353,-3.53325 3.43811,-7.962 6.74685,-11.789 1.4262,-1.64957 5.45265,-4.98252 6.78932,-5.61992 0.51428,-0.24525 0.93506,-0.54675 0.93506,-0.67 0,-0.12325 -0.42188,0.0288 -0.9375,0.33795 -5.83747,3.49952 -11.3561,9.78922 -13.31235,15.17232 -1.34757,3.70818 -1.52657,5.06703 -1.62112,12.30643 -0.0826,6.32697 -0.0768,6.4282 0.1288,2.25 0.11843,-2.40625 0.34425,-5.66325 0.50183,-7.23778 z m 333.16716,7.4282 c -0.0598,-0.311 -0.111,-0.11542 -0.11377,0.43458 -0.003,0.55 0.0462,0.80442 0.10872,0.56542 0.0626,-0.23902 0.0648,-0.68902 0.005,-1 z m -0.54372,-9.97075 c -1.00368,-5.8159 -3.6511,-10.50652 -8.66793,-15.35745 -2.69127,-2.6023 -5.42967,-4.53302 -8.31937,-5.86567 -2.50765,-1.15645 -3.55923,-1.41248 -7.16348,-1.74398 -3.0038,-0.27627 -27.53197,-1.0338 -27.7115,-0.85582 -0.36312,0.35995 1.194,0.4653 9.29638,0.6289 13.90265,0.28075 21.07302,0.86142 24.28567,1.96675 3.0126,1.03647 7.21425,3.87622 10.0625,6.8009 3.22773,3.31432 5.97745,7.96727 7.06598,11.9567 0.50715,1.85875 1.21845,7.0999 1.32297,9.74847 0.0299,0.75708 0.0896,-0.0725 0.13273,-1.8434 0.0511,-2.10057 -0.0545,-3.99007 -0.30395,-5.4354 z M 517.6875,365.20943 c -0.17188,-0.0693 -0.45313,-0.0693 -0.625,0 -0.17188,0.0693 -0.0312,0.1261 0.3125,0.1261 0.34375,0 0.48437,-0.0568 0.3125,-0.1261 z m 22.13338,-0.0179 c -0.64852,-0.0513 -1.77352,-0.0518 -2.5,-10e-4 -0.72649,0.0507 -0.19588,0.0926 1.17912,0.0933 1.375,6.5e-4 1.96939,-0.0408 1.32088,-0.0921 z m 20.86662,-0.24301 c -0.30938,-0.0596 -0.81563,-0.0596 -1.125,0 -0.30938,0.0596 -0.0562,0.10834 0.5625,0.10834 0.61875,0 0.87187,-0.0488 0.5625,-0.10834 z m 13.00476,-0.23756 c -0.16926,-0.0685 -0.50676,-0.0726 -0.75,-0.009 -0.24325,0.0634 -0.10476,0.11942 0.30774,0.12451 0.4125,0.005 0.61151,-0.0468 0.44226,-0.11525 z m -41.25476,-0.27032 c -0.72188,-0.0505 -1.90313,-0.0505 -2.625,0 -0.72188,0.0505 -0.13125,0.0918 1.3125,0.0918 1.44375,0 2.03437,-0.0413 1.3125,-0.0918 z m 34.25,0.0187 c -0.17188,-0.0693 -0.45313,-0.0693 -0.625,0 -0.17188,0.0693 -0.0312,0.1261 0.3125,0.1261 0.34375,0 0.48437,-0.0568 0.3125,-0.1261 z M 526.56063,198.8125 c -0.0475,-0.99688 -0.0863,-0.18125 -0.0863,1.8125 0,1.99375 0.0388,2.80937 0.0863,1.8125 0.0475,-0.99688 0.0475,-2.62813 0,-3.625 z"
       id="path31"
       transform="matrix(0.26458333,0,0,0.26458333,0.57375925,-3.4425555)" /><path
       style="fill:#c8e6c9;fill-opacity:1;stroke-width:0.25"
       d="m 361.375,510.86935 c -4.08344,-0.20388 -5.07595,-0.3788 -6.375,-1.1235 -2.06096,-1.18148 -2.91733,-2.7504 -2.93376,-5.37478 -0.0186,-2.97442 0.81777,-4.60127 2.87729,-5.59657 1.7014,-0.82225 3.84605,-1.14528 7.61897,-1.1476 l 3.0625,-0.002 0.004,-7.1875 c 0.007,-13.26318 0.80372,-20.2988 3.02892,-26.75213 2.3584,-6.83962 5.86693,-12.23942 11.49943,-17.69817 3.01434,-2.92138 5.49715,-4.82758 8.45189,-6.489 5.72865,-3.22118 9.32277,-4.25188 17.01589,-4.87975 3.81198,-0.3111 43.95802,-0.71053 73.40495,-0.73033 l 19.52995,-0.0131 0.15646,-7.8125 c 0.0861,-4.29688 0.21924,-14.675 0.29596,-23.0625 0.19183,-20.97232 0.54437,-34.0298 0.98548,-36.49973 0.83482,-4.67451 5.39445,-10.91365 9.98039,-13.65662 0.76206,-0.45581 1.44534,-0.98452 1.5184,-1.17492 0.60475,-1.57595 1.044,-26.78855 1.25512,-72.04373 0.21864,-46.86485 0.34307,-77.47302 0.35903,-88.3125 l 0.0143,-9.6875 h 26.625 26.625 v 34.83352 c 0,19.15844 0.0844,51.41781 0.1875,71.6875 0.16114,31.67214 0.20886,34.90309 0.33941,22.97898 0.0836,-7.63125 0.16793,-39.89063 0.1875,-71.6875 l 0.0356,-57.8125 h 7.08366 7.08367 l 0.16622,31.3125 c 0.0914,17.22187 0.17045,43.575 0.17561,58.5625 0.005,14.9875 0.11456,37.6 0.2431,50.25 0.21882,21.53358 0.45459,29.14557 0.92901,29.99331 0.10888,0.19456 0.87201,0.79375 1.69585,1.33155 4.37265,2.85447 8.50249,8.34405 9.49418,12.62013 0.6363,2.74368 0.84108,9.67429 1.14287,38.68001 0.15951,15.33125 0.36922,28.2125 0.46602,28.625 l 0.176,0.75 10.23441,0.15292 c 5.62892,0.0841 24.35315,0.16958 41.6094,0.1899 32.27705,0.038 38.68565,0.18733 44.5,1.03683 10.22565,1.49395 15.89255,4.51572 23.7847,12.68275 9.63635,9.97195 12.7153,20.474 12.7153,43.37082 v 6.44178 l 3.0625,0.005 c 5.42162,0.009 7.5644,0.55965 9.13502,2.3485 0.95028,1.08227 1.30095,2.27227 1.2956,4.39655 -0.006,2.22132 -0.5668,3.32542 -2.64242,5.19875 l -1.72023,1.55257 -186.50274,-0.0442 c -102.5765,-0.0243 -188.02148,-0.12008 -189.87773,-0.21275 z M 610.6875,497.7273 714.125,497.57817 714.0768,495.7891 714.0286,494 l -0.0877,1.521 -0.0877,1.521 -90.17665,0.16682 c -105.03869,0.19435 -175.2324,0.48028 -168.30165,0.6856 2.68125,0.0794 15.45,0.10788 28.375,0.0632 12.925,-0.0447 70.04687,-0.1483 126.9375,-0.23032 z m -196.83333,-0.19453 c -0.0573,-0.0507 -7.64167,-0.16647 -16.85417,-0.25725 -11.34603,-0.1118 -16.62902,-0.0833 -16.375,0.0884 0.34775,0.235 33.49417,0.40345 33.22917,0.16885 z M 381.12001,471.625 c 0.92026,-6.05943 4.91437,-12.68665 10.35345,-17.17898 2.68106,-2.21437 2.80019,-2.32102 2.59292,-2.32102 -0.34027,0 -4.10488,3.1552 -5.63432,4.72222 -3.61667,3.70555 -6.23603,8.06483 -7.30225,12.15278 -0.53697,2.0588 -1.01513,7.75735 -0.96494,11.5 0.0191,1.42422 0.11945,0.70452 0.3486,-2.5 0.17698,-2.475 0.44992,-5.34375 0.60654,-6.375 z m 332.67941,3.4375 c -0.18895,-4.09935 -0.97607,-7.37673 -2.53245,-10.54465 -2.74785,-5.59303 -8.48652,-11.28553 -14.24157,-14.12693 -3.75933,-1.85605 -5.8448,-2.10632 -20.9004,-2.50807 -5.29375,-0.14128 -10.72188,-0.3027 -12.0625,-0.35875 -1.34063,-0.056 -2.4375,-0.0124 -2.4375,0.097 0,0.1094 2.33437,0.2651 5.1875,0.34602 21.24867,0.60263 26.16595,1.04295 29.73892,2.66303 5.5333,2.50892 11.18698,8.00612 14.00748,13.61985 1.68722,3.35812 2.54012,6.82317 2.96912,12.0625 0.26433,3.22832 0.44043,2.41722 0.2714,-1.25 z M 395.875,451.23715 c 0,-0.0687 -0.3375,0.0496 -0.75,0.26285 -0.4125,0.2133 -0.75,0.4441 -0.75,0.51285 0,0.0687 0.3375,-0.0496 0.75,-0.26285 0.4125,-0.2133 0.75,-0.4441 0.75,-0.51285 z"
       id="path32"
       transform="matrix(0.26458333,0,0,0.26458333,0.57375925,-3.4425555)" /><path
       style="fill:#c8e6c9;fill-opacity:1;stroke-width:0.707107"
       d="m 369.71228,510.88465 c -15.79792,-0.39205 -16.75156,-0.67539 -17.60619,-5.23096 -0.96197,-5.12777 2.56885,-8.20407 9.41621,-8.20407 h 3.41814 l 0.78361,-13.65121 c 1.13987,-19.85773 3.47729,-26.18044 13.59928,-36.78597 4.38573,-4.59523 6.37812,-6.0684 11.72548,-8.66974 6.08992,-2.96257 6.92239,-3.17118 15.23243,-3.81722 4.83474,-0.37586 27.45925,-0.6906 50.27668,-0.69943 l 41.48624,-0.016 0.39752,-4.41942 c 0.21864,-2.43068 0.49712,-17.46554 0.61883,-33.41079 l 0.22131,-28.99138 1.79259,-3.88909 c 1.82678,-3.96324 4.99757,-7.74514 8.68032,-10.35326 l 2.05206,-1.45327 0.55498,-42.71033 c 0.30523,-23.49068 0.57682,-68.32526 0.60353,-99.63242 0.0304,-35.62492 0.31312,-57.87454 0.75569,-59.46774 0.38892,-1.40011 1.37526,-3.1502 2.19186,-3.88909 1.40738,-1.27346 2.98181,-1.34344 30.22484,-1.34344 15.80707,0 29.63613,0.24998 30.73126,0.5555 4.34208,1.21137 4.10737,-3.97506 4.74159,104.77727 0.31759,54.4616 0.84185,99.70032 1.165,100.53048 0.32316,0.83017 2.19049,2.94671 4.14963,4.70343 1.95915,1.75672 4.49368,4.89587 5.63229,6.97589 l 2.07021,3.78185 0.49637,25.45585 c 0.27301,14.00071 0.52271,29.32518 0.55489,34.05437 l 0.0585,8.59854 47.19938,0.32007 c 52.05231,0.35299 52.54543,0.392 61.69506,4.88157 6.71171,3.29331 15.2759,12.05288 18.57163,18.9953 3.64467,7.67745 4.86503,14.05142 5.29148,27.63748 l 0.369,11.75584 4.88775,0.34972 c 6.20183,0.44374 8.3568,2.12731 8.3568,6.52874 0,2.38711 -0.43467,3.34132 -2.38177,5.22851 l -2.38177,2.30851 -176.69302,-0.22525 c -97.18116,-0.12389 -183.10404,-0.38435 -190.93972,-0.5788 z m 126.85346,-13.25047 c -2.23623,-0.14032 -5.89551,-0.14032 -8.13173,0 -2.23623,0.14033 -0.40659,0.25514 4.06586,0.25514 4.47245,0 6.30209,-0.11481 4.06587,-0.25514 z m 195.85384,-48.69504 c -0.23496,-0.23496 -0.84484,-0.26008 -1.35529,-0.0558 -0.56408,0.22572 -0.39653,0.39327 0.42722,0.4272 0.7454,0.0307 1.16304,-0.13642 0.92807,-0.37139 z m -8.10354,-0.74371 c -0.47873,-0.19369 -1.43333,-0.20548 -2.12132,-0.0262 -0.68799,0.17928 -0.2963,0.33776 0.87043,0.35217 1.16672,0.0144 1.72962,-0.13227 1.25089,-0.32597 z"
       id="path33"
       transform="matrix(0.26458333,0,0,0.26458333,0.57375925,-3.4425555)"
       sodipodi:nodetypes="ssscssssscsscsscsssssssssscsscsssscssscssssssssssssssss" /></g></svg>
