<?xml version="1.0" encoding="UTF-8" standalone="no"?>
<!-- Created with Inkscape (http://www.inkscape.org/) -->

<svg
   width="195.74689mm"
   height="160.08893mm"
   viewBox="0 0 195.74689 160.08893"
   version="1.1"
   id="svg1"
   xml:space="preserve"
   xmlns="http://www.w3.org/2000/svg"
   xmlns:svg="http://www.w3.org/2000/svg"><defs
     id="defs1" /><g
     id="layer1"
     style="display:inline;fill:#fb8c00;fill-opacity:1"
     transform="translate(-7.1661447,-70.132435)"><path
       d="M 175.57936,228.17292 H 26.399382 c -10.939729,0 -19.890529,-8.95061 -19.890529,-19.8908 V 88.938117 c 0,-10.939803 8.9508,-19.890417 19.890529,-19.890417 h 59.672005 l 19.890773,19.890417 h 69.6172 c 10.94019,0 19.89081,8.95099 19.89081,19.890783 v 0 H 26.399382 v 99.45322 L 47.284772,128.7197 H 217.34978 l -22.8742,84.53541 c -1.98845,8.95062 -9.94522,14.91781 -18.89622,14.91781 z"
       id="path1-1"
       style="display:inline;fill:#fb8c00;fill-opacity:1;stroke-width:9.94534" /><path
       d="M 85.464971,70.132424 H 26.740944 c -10.864038,0 -19.5747992,8.710761 -19.5747992,19.574799 V 207.15528 a 19.574676,19.574676 0 0 0 19.5747992,19.5748 H 183.33823 a 19.574676,19.574676 0 0 0 19.5748,-19.5748 v -97.87326 c 0,-10.864036 -8.80879,-19.574797 -19.5748,-19.574797 H 105.0394 Z"
       id="path1"
       style="display:none;fill:#fb8c00;fill-opacity:1;stroke-width:9.78732" /></g><g
     id="layer3"
     transform="matrix(0.84925839,0,0,0.84925839,-44.864592,-43.858042)"
     style="fill:#ffe0b2;fill-opacity:1"><path
       id="path1-0"
       style="fill:#ffe0b2;fill-opacity:1;stroke:none;stroke-width:0.0352778"
       d="m 229.15035,101.43464 c -33.61905,0.0353 -40.8515,0.10584 -41.98038,0.52916 -2.01083,0.70556 -3.77441,2.29327 -4.97386,4.44521 l -1.05833,1.90479 -0.10594,13.58212 -0.10593,13.54646 -0.88212,0.81184 c -1.69333,1.55223 -1.90479,2.68077 -1.90479,10.4066 0,6.49111 0.0708,7.23229 0.74104,8.6434 0.49389,1.02306 1.2343,1.83438 2.22208,2.39882 1.48167,0.88194 1.62319,0.8816 9.41958,0.8816 h 7.90185 l 11.57138,5.00951 c 9.17222,3.95111 11.42966,5.08038 10.93577,5.32732 -0.3175,0.21167 -5.67965,2.5749 -11.92382,5.25601 -11.60638,5.00945 -12.87622,5.75024 -12.87622,7.54941 0,1.72861 1.62254,2.68139 13.68754,7.86722 6.45584,2.78695 11.67709,5.15032 11.60653,5.22087 -0.0706,0.0706 -5.43271,2.39917 -11.92382,5.22139 -12.02972,5.22111 -13.37025,5.99702 -13.37025,7.72563 0,1.79917 1.09345,2.46948 13.40539,7.79642 7.47889,3.24556 11.88888,5.32716 11.57138,5.50354 -0.24694,0.14112 -5.29176,2.36345 -11.21843,4.93872 l -10.75955,4.72736 -4.23334,0.17621 c -4.65666,0.21167 -5.96208,0.6349 -7.90236,2.5399 -1.83444,1.79917 -2.61052,3.66906 -2.78691,6.70295 1.8558,-0.0266 3.84946,-0.0412 5.78931,-0.061 0.005,-0.004 0.009,-0.008 0.014,-0.0109 -0.0894,-8e-5 -0.18572,-1.8e-4 -0.18139,0 1.43323,0.0556 0.44459,-1.23355 1.32654,-2.15077 l 1.02319,-1.0232 h 37.11246 37.11195 l 1.02319,1.0232 c 0.87009,0.90489 1.12698,0.52919 1.13378,2.14457 0.009,0.0133 0.016,0.0267 0.0238,0.0403 0.89608,0.008 5.79189,0.0377 5.79189,0.0377 -0.17639,-2.99861 -0.95222,-4.93868 -2.71611,-6.66729 -1.86972,-1.905 -3.35125,-2.36389 -7.97264,-2.57556 l -4.23282,-0.21187 -11.1125,-4.83278 c -6.10305,-2.68111 -11.14853,-4.90382 -11.18381,-4.97437 -0.0706,-0.0706 5.15121,-2.39878 11.60704,-5.18573 12.13556,-5.22111 13.68702,-6.10319 13.68702,-7.90236 0,-1.79917 -1.55146,-2.68111 -13.68702,-7.9375 -7.05555,-3.03388 -11.57197,-5.15056 -11.28975,-5.29167 0.24695,-0.14111 5.53923,-2.46948 11.74812,-5.15059 11.53583,-4.97416 13.22865,-5.96149 13.22865,-7.65483 0,-1.86972 -1.02288,-2.46986 -13.40538,-7.83208 -6.59695,-2.8575 -11.95909,-5.25625 -11.92382,-5.32681 0.0705,-0.0353 5.25615,-2.32826 11.57087,-5.04465 l 11.46545,-4.97437 h 7.90236 c 7.79639,0 7.93739,3.4e-4 9.41906,-0.8816 0.98777,-0.56444 1.72923,-1.37576 2.22312,-2.39882 0.67027,-1.41111 0.74001,-2.15229 0.74001,-8.6434 0,-7.72583 -0.21095,-8.85437 -1.90428,-10.4066 l -0.88263,-0.81184 -0.10594,-13.54646 -0.10542,-13.58212 -0.95291,-1.79885 c -0.52917,-1.02306 -1.55153,-2.32827 -2.29237,-2.92799 -2.75165,-2.25777 -0.38848,-2.15233 -45.04945,-2.15232 z m 0.59997,6.1035 40.18152,0.0703 0.67025,0.84646 c 0.635,0.77611 0.67024,1.55229 0.67024,13.47618 v 12.66486 h -2.99878 -2.96313 l -0.10594,-8.74882 c -0.10583,-8.39611 -0.14114,-8.74868 -0.91725,-9.84229 -0.42334,-0.59972 -1.4815,-1.44647 -2.29289,-1.83452 -1.51694,-0.74084 -1.83433,-0.74104 -32.70239,-0.74104 -30.86806,0 -31.18598,2e-4 -32.70292,0.74104 -0.81139,0.38805 -1.86955,1.2348 -2.29288,1.83452 -0.77611,1.09361 -0.81143,1.44618 -0.91726,9.84229 l -0.10593,8.74882 h -2.96313 -2.99878 V 122.037 c 0,-8.18444 0.14114,-12.77056 0.38809,-13.22917 0.21166,-0.38805 0.70579,-0.8468 1.12913,-1.02319 0.45861,-0.17639 18.20316,-0.28177 40.92205,-0.2465 z m -30.44466,11.88816 h 29.98629 29.98576 v 7.58507 7.58455 h -29.98576 -29.98629 v -7.58455 z m -15.16961,21.16667 h 45.1559 45.15538 v 5.99757 5.99705 h -45.15538 -45.1559 v -5.99705 z m 45.0851,17.99167 c 8.36083,0 15.2399,0.0707 15.2399,0.10593 0,0.0706 -3.42177,1.62286 -7.58455,3.42202 l -7.58455,3.28093 -7.12618,-3.10472 c -3.95112,-1.69333 -7.40827,-3.20996 -7.69049,-3.38635 -0.28222,-0.17638 6.2792,-0.31781 14.74587,-0.31781 z m 0.0351,13.4059 c 0.0706,0 4.72767,1.97539 10.33684,4.40955 5.64445,2.43417 10.65361,4.65649 11.18278,4.93871 l 0.91725,0.45889 -0.88211,0.35295 c -0.49389,0.21167 -5.46806,2.36347 -11.1125,4.79764 -5.60918,2.46944 -10.47733,4.40944 -10.75955,4.30361 -0.28222,-0.0705 -4.97434,-2.08108 -10.40712,-4.44469 -5.43277,-2.36361 -10.2658,-4.44503 -10.72441,-4.62142 -0.45861,-0.17639 -0.74093,-0.42334 -0.6351,-0.52917 0.17639,-0.17639 21.76642,-9.63079 22.08392,-9.66607 z m 0.0357,26.10538 c 0.10583,0 5.11527,2.15195 11.1125,4.7625 6.0325,2.57528 10.90075,4.83326 10.86548,4.97437 -0.0353,0.14111 -4.97406,2.36331 -11.00656,4.97386 l -10.90114,4.7625 -10.90063,-4.72684 c -5.99722,-2.57528 -10.936,-4.83313 -11.00656,-5.00952 -0.0706,-0.24695 21.16663,-9.7016 21.83691,-9.73687 z m -0.17674,26.14104 c 0.21166,-0.0353 3.73958,1.44625 7.90236,3.21014 l 7.54941,3.28094 -7.65534,0.10593 c -4.19806,0.0353 -11.04185,0.0353 -15.2399,0 l -7.58455,-0.10593 7.33754,-3.21066 c 4.02167,-1.79917 7.51409,-3.24514 7.69048,-3.28042 z" /></g><style
     type="text/css"
     id="style1">
	.st0{fill:#08743B;stroke:#CF2027;stroke-miterlimit:10;}
</style><style
     type="text/css"
     id="style1-6">
	.st0{fill:#08743B;stroke:#CF2027;stroke-miterlimit:10;}
</style></svg>
