<?xml version="1.0" encoding="UTF-8" standalone="no"?>
<!-- Created with Inkscape (http://www.inkscape.org/) -->

<svg
   width="203.82417mm"
   height="163.7036mm"
   viewBox="0 0 203.82417 163.7036"
   version="1.1"
   id="svg1"
   xml:space="preserve"
   sodipodi:docname="folder-arm.svg"
   xmlns:inkscape="http://www.inkscape.org/namespaces/inkscape"
   xmlns:sodipodi="http://sodipodi.sourceforge.net/DTD/sodipodi-0.dtd"
   xmlns="http://www.w3.org/2000/svg"
   xmlns:svg="http://www.w3.org/2000/svg"><sodipodi:namedview
     id="namedview1"
     pagecolor="#505050"
     bordercolor="#eeeeee"
     borderopacity="1"
     inkscape:showpageshadow="0"
     inkscape:pageopacity="0"
     inkscape:pagecheckerboard="0"
     inkscape:deskcolor="#505050"
     inkscape:document-units="mm"><inkscape:page
       x="0"
       y="0"
       width="203.82417"
       height="163.7036"
       id="page2"
       margin="0"
       bleed="0" /></sodipodi:namedview><defs
     id="defs1" /><g
     id="layer1"
     style="display:inline;fill:#03a9f4;fill-opacity:1"
     transform="translate(-7.1661449,-70.132435)"><path
       d="M 175.57936,228.17292 H 26.399382 c -10.939729,0 -19.890529,-8.95061 -19.890529,-19.8908 V 88.938117 c 0,-10.939803 8.9508,-19.890417 19.890529,-19.890417 h 59.672005 l 19.890773,19.890417 h 69.6172 c 10.94019,0 19.89081,8.95099 19.89081,19.890783 v 0 H 26.399382 v 99.45322 L 47.284772,128.7197 H 217.34978 l -22.8742,84.53541 c -1.98845,8.95062 -9.94522,14.91781 -18.89622,14.91781 z"
       id="path1-1"
       style="display:none;fill:#fbc02d;fill-opacity:1;stroke-width:9.94534" /><path
       d="M 85.464971,70.132424 H 26.740944 c -10.864038,0 -19.5747992,8.710761 -19.5747992,19.574799 V 207.15528 a 19.574676,19.574676 0 0 0 19.5747992,19.5748 H 183.33823 a 19.574676,19.574676 0 0 0 19.5748,-19.5748 v -97.87326 c 0,-10.864036 -8.80879,-19.574797 -19.5748,-19.574797 H 105.0394 Z"
       id="path1"
       style="display:inline;fill:#fbc02d;fill-opacity:1;stroke-width:9.78732" /></g><g
     id="layer3"
     transform="translate(-7.1661449,-70.132435)"
     style="fill:#fff9c4;fill-opacity:1"><g
       id="g1"
       transform="matrix(0.26458333,0,0,0.26458333,75.25907,98.104749)"
       style="fill:#fff9c4;fill-opacity:1"><path
         fill="#000000"
         opacity="1"
         stroke="none"
         d="m 513,389.53134 c -4.9408,5.59824 -8.22909,6.27161 -14.64368,3.10779 -10.14843,-5.00546 -20.15945,-10.29547 -30.37878,-15.1488 -5.19653,-2.46796 -7.35874,-6.26832 -7.3375,-11.82322 0.0644,-16.83203 -0.1268,-33.66662 0.12098,-50.49527 0.0684,-4.64639 -1.37217,-6.15582 -5.98203,-5.91189 -6.64764,0.35177 -13.34396,0.37411 -19.98862,-0.005 -4.92401,-0.28073 -6.67309,1.08694 -6.56887,6.33551 0.33401,16.82556 0.03,33.66272 0.16629,50.49386 0.0439,5.42032 -1.96683,9.18311 -6.87104,11.58411 -9.86065,4.82767 -19.63803,9.8252 -29.4794,14.69266 -4.00457,1.98065 -8.14554,3.20828 -12.25827,0.31366 -2.73437,-1.92453 -4.16617,-4.52454 -4.15863,-8.05048 0.063,-29.49795 -0.53467,-59.01181 0.27396,-88.48773 0.41028,-14.95532 8.26739,-26.80011 21.61084,-34.18372 3.37515,-1.86761 4.47262,-3.98837 4.1763,-7.49815 -0.18164,-2.15114 -0.37338,-4.39586 0.0291,-6.48492 1.44535,-7.50092 -2.50549,-11.90883 -7.97937,-16.15871 -23.44452,-18.20215 -46.67019,-36.68587 -70.02099,-55.00922 -8.74222,-6.86003 -17.66736,-13.48774 -26.37567,-20.38969 -2.20658,-1.74884 -4.22943,-2.49075 -6.82865,-1.32422 -0.29346,0.1317 -0.67615,0.22667 -0.97619,0.15808 -10.03418,-2.29425 -15.38037,4.55008 -21.38688,10.60202 -25.23935,25.43012 -50.61728,50.72287 -76.00079,76.00938 -2.35031,2.34134 -3.33148,4.40575 -3.02078,8.13451 1.9812,23.77742 -5.31671,44.49727 -21.94269,61.74352 -2.00148,2.07617 -2.8862,4.18631 -2.8812,7.07049 0.0691,39.83069 0.12047,79.66184 -0.0524,119.49189 -0.0204,4.70257 1.8336,5.42944 5.91207,5.42141 53.16308,-0.10477 106.32644,-0.0741 159.48974,-0.0614 7.78501,0.002 11.45322,2.00415 13.13343,7.37405 0.53106,1.69721 0.54006,3.60209 0.5451,5.4126 0.0405,14.49896 -0.077,28.99921 0.0819,43.49655 0.0493,4.49476 -0.9444,8.53553 -3.31088,12.69718 C 227.12245,513 114.24491,513 1,513 c 0,-21.35281 0,-42.70776 0.264971,-64.66953 3.0831,-3.90603 6.846316,-4.70187 10.942929,-4.69711 13.661571,0.0159 27.327893,-0.19897 40.982274,0.11487 4.981472,0.11447 6.597736,-1.24735 6.568554,-6.4061 -0.207348,-36.65188 -0.186714,-73.30578 -0.04647,-109.95828 0.02839,-7.41812 0.583825,-14.70636 -6.650982,-19.5755 -0.901634,-0.60684 -1.348945,-1.86685 -2.05849,-2.78421 -16.049858,-20.75061 -20.075138,-43.89993 -13.626564,-69.05922 4.50526,-17.57739 14.555534,-31.49152 29.035209,-42.16068 9.068077,-6.68171 19.438881,-11.15263 30.462479,-12.81886 6.68219,-1.01002 11.62862,-3.34039 16.28919,-8.04761 27.89664,-28.17579 55.80467,-56.34706 84.18552,-84.031222 5.94691,-5.80095 7.78593,-12.077424 8.36415,-19.705857 1.42904,-18.853851 9.75038,-34.544903 23.07324,-47.661707 C 240.00046,10.498004 253.7122,4.160254 269,1 c 9.68756,0 19.37512,0 29.75729,0.206868 1.58561,0.60369 2.44226,1.128286 3.37268,1.378451 18.45398,4.961766 33.51288,14.872082 44.33548,30.755696 9.62409,14.124622 14.15549,29.8283 13.90894,46.928959 -0.0351,2.429817 -0.64731,5.009956 1.29935,7.149154 2.7879,3.063584 5.49481,6.20073 8.24865,9.295456 8.2573,9.279466 16.54548,18.531566 24.775,27.835576 9.53921,10.78474 19.04858,21.59606 28.53311,32.42892 6.21341,7.09668 12.02847,14.58147 18.66382,21.25417 3.81561,3.83712 6.00702,9.34993 12.27166,10.95701 22.17264,5.688 34.14289,21.59406 34.1702,44.62857 0.009,7.32599 0.0481,14.65232 -0.0115,21.97779 -0.0187,2.30152 0.29358,4.31953 2.54382,5.51829 11.69464,6.22998 18.60602,16.15167 22.1315,28.68509 0,33.02091 0,66.04178 0,99.53134 m -293.50009,105.1257 c 33.15257,-0.003 66.30542,-0.0701 99.45736,0.0711 4.29978,0.0183 5.99335,-1.18317 5.77756,-5.65329 -0.31289,-6.48206 -0.0745,-12.99063 -0.0735,-19.48792 10e-4,-7.22262 -1.6e-4,-7.22863 -7.02378,-7.22845 -71.63661,0.002 -143.27321,0.006 -214.90982,0.01 -25.989088,0.002 -51.978522,0.0724 -77.966906,-0.0617 -4.093534,-0.0211 -5.651966,1.25363 -5.481968,5.43853 0.270252,6.65287 0.06663,13.3248 0.07071,19.98868 0.0042,6.90912 0.008,6.91581 6.731104,6.9162 64.139757,0.004 128.27951,0.005 193.41928,0.007 M 98.482788,333.37292 c -6.791511,-0.62176 -12.943016,-3.74041 -19.76059,-5.52505 -0.15686,1.61417 -0.361892,2.74289 -0.362411,3.8717 -0.01635,35.66324 0.05058,71.32679 -0.09757,106.98938 -0.01732,4.16648 1.563263,5.01706 5.298607,4.98957 18.663866,-0.1373 37.331376,-0.21128 55.992766,0.0453 4.88254,0.0671 6.21031,-1.52368 6.18699,-6.27395 -0.17106,-34.82916 -0.0813,-69.65955 -0.12507,-104.48953 -0.002,-1.72242 0.69127,-3.68696 -0.96405,-5.13736 -1.84816,-0.19861 -3.16982,0.99432 -4.68999,1.56729 -13.1752,4.96579 -26.69736,6.39056 -41.47868,3.96267 m 145.8367,-188.02008 c -16.85211,-9.24425 -27.92937,-23.46792 -34.00298,-39.0072 -25.2883,25.18553 -50.89032,50.68351 -76.44003,76.12942 21.4068,6.2665 37.98245,20.05115 48.23102,40.99405 24.6138,-24.71852 48.52342,-48.72989 72.53215,-72.84077 -2.99726,-1.4737 -6.37654,-3.13524 -10.32016,-5.2755 M 58.813313,232.21654 c -13.760357,30.5739 -1.019085,64.30098 29.656131,78.50203 28.510716,13.199 63.478706,-0.0688 77.008706,-29.72782 13.38786,-29.34738 0.0662,-63.48352 -28.55553,-77.10788 C 108.0653,190.14641 73.812248,202.1902 58.813313,232.21654 M 295.61331,135.16946 c 1.25189,-0.45272 2.47846,-0.99955 3.75943,-1.34423 25.87308,-6.96228 46.10837,-36.432454 41.40949,-64.174435 -5.42997,-32.058174 -32.7468,-54.080627 -65.77198,-50.06254 -30.58935,3.721722 -53.72082,31.803141 -50.71867,63.051966 2.01685,20.992959 12.48647,36.395919 30.58034,46.672829 12.44946,7.07101 25.89157,8.93835 40.74139,5.85641 m 24.39878,11.01307 c -2.56235,1.69795 -0.49643,2.88848 0.61172,3.80894 4.7178,3.91884 9.53259,7.72215 14.34757,11.52254 15.21551,12.00932 30.42355,24.02839 45.68231,35.98263 7.65377,5.99622 15.41122,11.86014 23.50985,18.08205 4.83747,-11.38344 12.90189,-18.99075 23.17139,-24.66577 -24.35763,-27.57868 -48.32059,-54.71045 -72.64789,-82.25479 -5.01416,7.71405 -8.71655,15.14681 -14.4436,21.23268 -5.85993,6.22709 -12.54251,11.3508 -20.23135,16.29172 m 173.81994,147.45938 c -1.95203,-10.0105 -12.03644,-18.22638 -22.5918,-18.25925 -17.16638,-0.0535 -34.34344,0.34409 -51.49603,-0.14706 -12.30643,-0.35245 -25.3389,9.67279 -25.38516,25.14947 -0.0638,21.33295 -0.0266,42.66626 0.0115,63.99933 0.003,1.42355 -0.51312,2.98892 0.95859,4.67676 2.85965,-1.3494 5.74069,-2.95755 8.79746,-4.09204 4.40258,-1.63392 5.71084,-4.48032 5.63855,-9.16019 -0.28061,-18.16217 -0.13865,-36.33133 -0.0999,-54.49774 0.0158,-7.37537 3.29111,-10.64542 10.56684,-10.65402 16.1665,-0.0191 32.33309,-0.0184 48.4996,0.008 8.03457,0.013 10.60321,2.6484 10.61108,10.85528 0.0176,18.33319 -0.003,36.66636 0.0221,54.99951 0.003,1.95621 -0.58408,4.32959 1.37494,5.56415 3.99725,2.51902 8.1416,4.84702 12.57956,6.05078 1.8183,-2.23724 1.30456,-4.3186 1.30862,-6.25854 0.0428,-20.49973 0.0481,-40.99963 0.0134,-61.49939 -0.003,-1.97791 -0.34537,-3.9552 -0.80933,-6.73486 m -61.17657,-83.49273 c -6.72223,4.08248 -11.56202,9.77205 -12.14804,17.72402 -0.6095,8.27055 -0.0957,16.62059 -0.18412,24.93469 -0.0293,2.75289 1.05646,3.87943 3.83417,3.8667 13.8028,-0.0632 27.60623,-0.0686 41.40887,0.008 3.00968,0.0166 4.15565,-1.22008 4.10691,-4.17634 -0.10419,-6.31771 -0.0256,-12.63842 -0.0235,-18.95789 0.007,-20.34805 -18.96188,-32.37851 -36.99432,-23.39893 z"
         id="path1-19"
         style="fill:#fff9c4;fill-opacity:1" /><path
         fill="#000000"
         opacity="1"
         stroke="none"
         d="m 103.08855,428.33697 c -6.852725,-1.40856 -9.28046,-4.05343 -9.360889,-11.07775 -0.180748,-15.78595 -0.217453,-31.57804 0.0484,-47.36155 0.06823,-4.05047 0.93399,-8.38259 5.504295,-10.36465 3.462174,-1.5015 6.641244,-1.15146 9.834974,1.02716 2.73525,1.86588 3.22202,4.42865 3.2224,7.33777 0.002,16.95141 0.0312,33.90289 -0.0184,50.85416 -0.0188,6.4233 -2.31003,8.8207 -9.23077,9.58486 z"
         id="path2"
         style="fill:#fff9c4;fill-opacity:1" /><path
         fill="#000000"
         opacity="1"
         stroke="none"
         d="m 193.00751,172.00778 c -4.72155,4.72003 -9.163,9.22067 -13.67289,13.65167 -4.78909,4.70531 -10.47125,5.09127 -14.55833,1.07711 -3.40359,-3.34284 -3.21149,-10.03293 0.96005,-14.40725 7.57605,-7.94432 15.43264,-15.62136 23.18508,-23.39707 2.81894,-2.82743 5.61824,-5.67821 8.52641,-8.41207 5.02801,-4.72661 11.26625,-5.05405 15.13223,-0.89746 3.95763,4.25507 3.36615,9.42789 -1.67759,14.48431 -5.8752,5.89002 -11.76278,11.76769 -17.89496,17.90076 z"
         id="path3"
         style="fill:#fff9c4;fill-opacity:1" /><path
         fill="#000000"
         opacity="1"
         stroke="none"
         d="m 154.07373,246.47672 c 2.59937,11.56152 0.90248,22.02197 -4.41307,32.16702 -7.61452,14.5328 -28.15066,24.64694 -44.30369,21.42618 -19.563643,-3.90079 -32.081534,-15.43821 -36.050787,-34.98603 -3.74691,-18.45279 4.529068,-36.34517 20.841919,-45.64363 15.587088,-8.88476 31.003288,-7.5988 45.831828,1.2446 9.48201,5.65483 15.19463,14.64648 18.0938,25.79186 m -19.18114,2.13409 c -1.93614,-5.10512 -5.15869,-9.11463 -9.77229,-12.1189 -9.30936,-6.06198 -19.20352,-5.4843 -28.967697,1.8748 -7.592048,5.72202 -10.706558,16.64341 -7.548805,26.47063 2.862701,8.909 13.151622,16.54337 22.554742,16.81473 15.92451,0.45947 30.18356,-16.58618 23.73405,-33.04126 z"
         id="path4"
         style="fill:#fff9c4;fill-opacity:1" /><path
         fill="#000000"
         opacity="1"
         stroke="none"
         d="m 286.52924,121.05673 c -21.98441,1.5445 -41.85779,-12.67821 -46.31929,-33.513418 -6.02076,-28.116974 15.16178,-52.911522 41.65571,-53.106281 21.57367,-0.158589 39.30698,14.73711 43.25522,33.897213 5.18442,25.159439 -12.1926,50.717916 -37.22333,52.267666 -0.31741,0.0197 -0.62356,0.22052 -1.36831,0.45482 m 13.36779,-60.446695 c -3.01742,-2.313637 -5.79117,-5.007202 -9.57223,-6.128895 -17.82178,-5.287029 -34.72521,8.838574 -31.77942,27.230324 2.19641,13.713112 13.75354,21.473866 25.33395,20.679806 9.70218,-0.66527 17.30075,-5.865902 21.25391,-15.053326 4.13821,-9.617546 1.95917,-18.398041 -5.23621,-26.727909 z"
         id="path5"
         style="fill:#fff9c4;fill-opacity:1" /></g></g><style
     type="text/css"
     id="style1">
	.st0{fill:#08743B;stroke:#CF2027;stroke-miterlimit:10;}
</style><style
     type="text/css"
     id="style1-6">
	.st0{fill:#08743B;stroke:#CF2027;stroke-miterlimit:10;}
</style><path
     style="fill:#fff9c4;fill-opacity:1;stroke-width:0.202854"
     d="m 172.32491,82.925001 c -5.1398,-3.976338 -18.38353,-14.441689 -19.16975,-15.148174 -0.93244,-0.837877 -1.13147,-0.523181 1.57589,-2.491753 2.20909,-1.606264 4.30976,-3.884036 5.82042,-6.31113 0.70973,-1.140288 1.3444,-2.073251 1.41038,-2.073251 0.16554,0 18.98438,21.329885 18.98438,21.517512 0,0.08308 -0.56844,0.530656 -1.26321,0.994603 -1.54152,1.029385 -3.27461,2.906749 -4.04566,4.382447 -0.31565,0.604118 -0.61955,1.09683 -0.67534,1.094917 -0.0558,-0.0019 -1.24248,-0.886243 -2.63711,-1.965171 z"
     id="path6" /><path
     style="fill:#fff9c4;fill-opacity:1;stroke-width:0.202854"
     d="m 115.32279,85.371778 c -2.36419,-3.987917 -6.21355,-7.190743 -10.40306,-8.655789 l -1.33862,-0.468106 10.02129,-10.019755 c 5.51171,-5.510865 10.05974,-9.978088 10.10675,-9.927163 0.047,0.05092 0.38176,0.68594 0.74392,1.411144 2.00951,4.023929 4.86409,6.887792 9.19901,9.22891 l 1.79665,0.970296 -9.50431,9.505923 c -5.22737,5.22826 -9.55032,9.503312 -9.60655,9.500124 -0.0562,-0.0032 -0.51301,-0.698704 -1.01508,-1.545584 z m -0.91284,-7.558964 c 1.01228,-0.472434 10.11917,-9.592577 10.44781,-10.463003 0.34362,-0.910127 0.0846,-1.812171 -0.72414,-2.522297 -0.80531,-0.70707 -1.93713,-0.837713 -2.88741,-0.333287 -0.8362,0.443878 -9.72884,9.468397 -9.97085,10.118727 -0.52553,1.41219 -0.008,2.733077 1.29169,3.299124 0.81065,0.352957 0.88219,0.349102 1.8429,-0.09926 z"
     id="path8" /><path
     style="fill:#fff9c4;fill-opacity:1;stroke-width:0.202854"
     d="m 89.064636,144.89441 c -0.27913,-0.39851 -0.313,-2.11151 -0.291783,-14.75766 0.0132,-7.86875 0.08166,-14.5434 0.152141,-14.83255 l 0.12814,-0.52573 1.825689,0.57606 c 2.724817,0.85975 3.990477,1.05464 6.897055,1.06208 2.872152,0.007 4.908912,-0.34258 7.148702,-1.22816 0.69627,-0.27529 1.35808,-0.44358 1.4707,-0.37398 0.13477,0.0833 0.20477,5.20817 0.20477,14.99295 0,14.1447 -0.018,14.8827 -0.37097,15.20212 -0.33237,0.30079 -1.22815,0.33572 -8.609814,0.33572 h -8.238845 z m 7.50793,-3.90322 c 1.263216,-0.52781 1.30474,-0.81209 1.30474,-8.9329 0,-8.06385 -0.03419,-8.30253 -1.273543,-8.89064 -0.873733,-0.41461 -1.372274,-0.4258 -2.269455,-0.0509 -1.401821,0.58572 -1.426938,0.74506 -1.426938,9.0518 0,6.83508 0.02887,7.45706 0.370306,7.97828 0.395351,0.60351 1.362741,1.12043 2.121177,1.13344 0.254614,0.004 0.782786,-0.1257 1.173713,-0.28904 z"
     id="path9" /><path
     style="fill:#fff9c4;fill-opacity:1;stroke-width:0.101427"
     d="m 113.00715,158.78437 c -38.891986,-0.05 -39.440022,-0.0534 -39.581992,-0.24759 -0.115938,-0.15856 -0.148302,-0.82001 -0.166257,-3.39782 -0.01225,-1.76051 -0.02032,-3.36067 -0.01794,-3.55592 0.0075,-0.60817 0.129447,-0.90133 0.442367,-1.06314 0.26479,-0.13693 4.700651,-0.15399 40.042912,-0.15399 34.14223,0 39.7729,0.0203 39.94202,0.14379 0.18657,0.13625 0.19978,0.33157 0.25217,3.72745 0.0304,1.97101 0.017,3.73146 -0.0298,3.91211 -0.0999,0.38547 -0.36077,0.55148 -0.98905,0.6293 -0.25103,0.0311 -18.20354,0.0337 -39.89445,0.006 z"
     id="path10" /><path
     style="fill:#fff9c4;fill-opacity:1;stroke-width:0.14344"
     d="m 172.56774,125.33984 c -0.16154,-0.42097 -0.0878,-18.50435 0.0787,-19.2949 0.47388,-2.25034 2.14328,-4.09849 4.38629,-4.85597 0.82119,-0.27732 1.16185,-0.28668 9.0191,-0.24778 l 8.16567,0.0404 0.96944,0.45922 c 1.83111,0.86738 3.2005,2.57434 3.53644,4.40822 0.19291,1.05311 0.21381,18.98859 0.0225,19.29089 -0.10908,0.17233 -0.25853,0.1546 -0.96603,-0.11464 -0.46034,-0.17518 -1.26983,-0.57472 -1.79888,-0.88787 l -0.9619,-0.56935 -0.0422,-8.56788 c -0.0409,-8.31929 -0.0506,-8.58229 -0.33413,-9.06484 -0.16058,-0.27333 -0.51559,-0.62834 -0.78892,-0.78892 -0.47869,-0.28122 -0.75697,-0.29359 -7.56887,-0.33643 -8.65171,-0.0544 -8.90605,-0.0181 -9.57854,1.36739 -0.24476,0.50427 -0.26449,1.10826 -0.28486,8.71787 -0.0148,5.54988 -0.0724,8.30037 -0.17914,8.56303 -0.19582,0.48188 -0.58379,0.73807 -2.2634,1.49459 -1.08183,0.48727 -1.34507,0.55944 -1.41127,0.38694 z"
     id="path11" /></svg>
