<?xml version="1.0" encoding="UTF-8" standalone="no"?>
<!-- Created with Inkscape (http://www.inkscape.org/) -->

<svg
   width="210mm"
   height="297mm"
   viewBox="0 0 210 297"
   version="1.1"
   id="svg1"
   xml:space="preserve"
   xmlns="http://www.w3.org/2000/svg"
   xmlns:svg="http://www.w3.org/2000/svg"><defs
     id="defs1" /><g
     id="layer1"
     style="display:inline;fill:#fb8c00;fill-opacity:1"><path
       d="M 175.57936,228.17292 H 26.399382 c -10.939729,0 -19.890529,-8.95061 -19.890529,-19.8908 V 88.938117 c 0,-10.939803 8.9508,-19.890417 19.890529,-19.890417 h 59.672005 l 19.890773,19.890417 h 69.6172 c 10.94019,0 19.89081,8.95099 19.89081,19.890783 v 0 H 26.399382 v 99.45322 L 47.284772,128.7197 H 217.34978 l -22.8742,84.53541 c -1.98845,8.95062 -9.94522,14.91781 -18.89622,14.91781 z"
       id="path1-1"
       style="display:inline;fill:#f44336;fill-opacity:1" /><path
       d="M 85.464971,70.132424 H 26.740944 c -10.864038,0 -19.5747992,8.710761 -19.5747992,19.574799 V 207.15528 a 19.574676,19.574676 0 0 0 19.5747992,19.5748 H 183.33823 a 19.574676,19.574676 0 0 0 19.5748,-19.5748 v -97.87326 c 0,-10.864036 -8.80879,-19.574797 -19.5748,-19.574797 H 105.0394 Z"
       id="path1"
       style="display:none;fill:#f44336;fill-opacity:1" /></g><g
     id="layer3"
     transform="matrix(0.84925839,0,0,0.84925839,-37.698447,26.274393)"
     style="display:inline;fill:#dcedc8;fill-opacity:1;stroke:#dcedc8;stroke-width:0.999696;stroke-dasharray:none;stroke-opacity:1"><g
       transform="matrix(0.01676518,-0.02381748,-0.02381748,-0.01676518,220.83302,288.44109)"
       fill="#000000"
       stroke="none"
       id="g3"
       style="display:inline;fill:#ffcdd2;fill-opacity:1"><path
         d="m 1363,5100 c -58,-35 -67,-60 -71,-196 -3,-91 -8,-124 -17,-124 -30,0 -178,-56 -273,-103 l -103,-51 -83,83 c -137,136 -170,132 -348,-46 -66,-65 -126,-130 -134,-145 -8,-15 -14,-48 -14,-73 0,-44 3,-49 89,-138 l 88,-92 -29,-48 C 433,4111 368,3956 350,3884 l -13,-52 -122,-4 C 80,3824 55,3815 20,3757 2,3728 0,3706 0,3542 c 0,-215 6,-239 74,-272 35,-16 62,-20 154,-20 88,0 112,-3 112,-14 0,-32 54,-178 102,-274 l 51,-104 -76,-76 c -88,-91 -97,-106 -97,-168 v -47 l 137,-139 c 194,-195 214,-199 355,-60 l 87,85 89,-47 c 49,-25 136,-61 193,-80 92,-31 104,-38 107,-60 2,-15 -6,-38 -20,-56 -22,-31 -23,-40 -26,-257 -3,-209 -2,-227 17,-266 34,-71 62,-81 240,-87 l 154,-5 19,-70 c 29,-105 93,-261 143,-349 l 45,-79 -109,-112 c -171,-175 -169,-194 62,-422 152,-151 182,-173 238,-173 46,0 65,14 180,127 l 106,105 40,-25 c 100,-64 266,-135 386,-166 l 72,-18 5,-154 c 6,-174 15,-202 80,-238 35,-20 53,-21 262,-21 259,0 277,5 316,80 20,40 22,59 22,187 v 142 l 43,11 c 114,30 233,77 343,134 l 122,64 103,-104 c 112,-113 147,-132 216,-119 32,6 63,32 201,168 174,174 191,199 177,273 -5,32 -27,60 -115,149 l -107,110 58,110 c 56,107 101,219 134,338 l 16,57 h 143 c 127,0 146,2 186,23 75,38 80,56 80,315 0,209 -1,227 -21,262 -36,65 -64,74 -238,80 l -154,5 -18,72 c -31,120 -102,286 -166,386 l -25,40 105,106 c 114,115 127,134 127,181 0,57 -28,95 -183,247 -223,220 -238,222 -412,52 l -112,-109 -79,45 c -88,50 -244,114 -349,143 l -70,19 -5,154 c -6,178 -16,206 -87,240 -39,19 -57,20 -266,17 -217,-3 -226,-4 -257,-26 -18,-14 -41,-22 -56,-20 -22,3 -29,15 -60,107 -19,57 -55,144 -80,193 l -47,89 85,87 c 138,141 134,161 -55,350 -103,102 -142,135 -169,141 -58,13 -103,-9 -189,-95 l -77,-77 -114,57 c -62,30 -150,66 -195,78 l -83,23 v 113 c 0,92 -4,120 -20,151 -32,64 -60,71 -272,71 -164,0 -186,-2 -215,-20 z m 357,-247 c 0,-173 8,-183 195,-238 50,-15 142,-54 205,-87 102,-53 120,-59 159,-55 38,4 53,14 125,86 45,45 86,81 91,81 6,0 52,-42 103,-93 l 92,-92 -76,-75 c -113,-111 -125,-150 -74,-241 59,-104 101,-203 130,-303 35,-120 65,-156 130,-156 h 40 v -107 -108 l -73,-18 c -99,-25 -256,-89 -351,-144 l -79,-45 -96,96 -97,97 4,64 c 3,38 -2,94 -13,139 -45,205 -183,357 -385,427 -119,40 -340,24 -393,-30 -26,-25 -26,-74 -1,-102 20,-23 43,-23 162,1 207,41 425,-111 471,-328 25,-120 32,-107 -176,-315 l -187,-187 h -45 c -204,1 -379,154 -412,360 -12,78 -5,135 32,228 39,99 20,147 -57,140 -44,-4 -65,-28 -94,-110 -77,-219 -27,-442 136,-604 105,-105 276,-171 421,-162 l 62,4 97,-97 96,-97 -41,-71 c -56,-94 -98,-193 -137,-321 l -32,-105 -106,-3 -106,-3 v 40 c 0,57 -37,97 -108,116 -106,29 -227,77 -304,121 -135,77 -166,72 -283,-46 l -80,-80 -92,92 c -51,51 -93,97 -93,103 0,5 36,46 81,91 72,72 82,87 86,125 4,39 -2,57 -55,159 -33,63 -72,156 -87,205 -55,187 -65,195 -237,195 H 150 v 140 140 h 126 126 l 33,33 c 20,20 38,51 44,78 25,96 65,199 117,296 78,148 75,170 -45,288 -39,38 -71,74 -71,80 0,13 172,185 185,185 6,0 42,-32 80,-71 118,-120 140,-123 288,-45 97,52 200,92 296,117 27,6 58,24 78,44 l 33,33 v 126 126 h 140 140 z M 3372,3566 c 3,-160 4,-165 28,-191 34,-37 46,-42 168,-76 96,-27 250,-95 372,-164 48,-27 106,-33 143,-14 12,6 68,57 125,112 l 102,102 132,-133 133,-132 -102,-102 c -145,-146 -151,-172 -73,-310 63,-111 111,-225 149,-359 25,-87 36,-109 65,-136 l 36,-33 h 160 160 v -190 -190 h -150 c -211,0 -224,-8 -271,-172 -42,-142 -81,-236 -145,-349 -56,-99 -67,-146 -43,-192 6,-12 58,-69 115,-127 L 4580,805 4447,672 4315,540 4215,641 c -55,55 -112,107 -127,115 -51,27 -95,18 -197,-40 C 3778,652 3684,613 3542,571 3378,524 3370,511 3370,300 V 150 h -190 -190 v 160 159 l -31,36 c -23,25 -47,39 -88,51 -161,44 -311,106 -451,188 -90,52 -134,36 -268,-97 l -102,-102 -132,133 -133,132 102,102 c 55,57 106,113 112,125 19,37 13,95 -14,143 -68,119 -137,274 -160,360 -33,121 -52,159 -94,187 -32,21 -44,23 -188,23 h -153 l 2,188 3,187 160,5 c 211,7 215,9 260,174 32,118 87,249 150,357 47,82 57,136 34,182 -6,12 -57,68 -112,125 l -102,102 133,132 132,133 102,-102 c 57,-55 113,-106 125,-112 42,-21 102,-13 162,23 122,74 250,127 396,167 146,39 155,54 155,255 0,83 3,154 7,157 3,4 89,7 189,7 h 183 z"
         id="path1-7"
         style="fill:#ffcdd2;fill-opacity:1" /><path
         d="m 3009,2885 c -198,-38 -362,-126 -509,-274 -150,-152 -239,-326 -271,-533 -27,-174 18,-461 84,-535 29,-33 79,-31 106,3 26,34 26,42 -3,123 -35,97 -50,206 -43,319 7,116 26,192 73,291 208,442 731,601 1159,353 81,-47 222,-190 273,-277 68,-115 104,-239 110,-376 10,-239 -70,-450 -232,-612 -283,-284 -744,-319 -1055,-80 -140,107 -140,107 -185,72 -42,-33 -36,-78 18,-129 99,-94 235,-171 383,-217 80,-24 103,-27 258,-27 148,-1 180,2 248,22 115,33 192,68 285,128 190,124 331,315 398,541 37,126 44,319 16,455 -33,160 -107,312 -209,428 -142,163 -309,266 -513,315 -93,23 -297,28 -391,10 z"
         id="path2"
         style="fill:#ffcdd2;fill-opacity:1" /><path
         d="m 3036,2505 c -149,-38 -297,-155 -368,-291 -204,-389 72,-854 507,-855 171,-1 297,51 416,170 119,119 171,245 170,416 0,243 -147,453 -378,541 -86,33 -255,42 -347,19 z m 329,-175 c 217,-103 308,-359 205,-577 -125,-268 -485,-329 -696,-118 -188,188 -158,514 61,660 89,59 152,76 265,72 83,-3 104,-8 165,-37 z"
         id="path3"
         style="fill:#ffcdd2;fill-opacity:1" /></g></g><style
     type="text/css"
     id="style1">
	.st0{fill:#08743B;stroke:#CF2027;stroke-miterlimit:10;}
</style><style
     type="text/css"
     id="style1-6">
	.st0{fill:#08743B;stroke:#CF2027;stroke-miterlimit:10;}
</style><style
     type="text/css"
     id="style1-66">
	.st0{fill:#08743B;stroke:#CF2027;stroke-miterlimit:10;}
</style><style
     type="text/css"
     id="style1-6-1">
	.st0{fill:#08743B;stroke:#CF2027;stroke-miterlimit:10;}
</style><style
     type="text/css"
     id="style1-3">
	.st0{fill:#08743B;stroke:#CF2027;stroke-miterlimit:10;}
</style><style
     type="text/css"
     id="style1-6-7">
	.st0{fill:#08743B;stroke:#CF2027;stroke-miterlimit:10;}
</style><style
     type="text/css"
     id="style1-1">
	.st0{fill:#08743B;stroke:#CF2027;stroke-miterlimit:10;}
</style><style
     type="text/css"
     id="style1-6-3">
	.st0{fill:#08743B;stroke:#CF2027;stroke-miterlimit:10;}
</style><style
     type="text/css"
     id="style1-0">
	.st0{fill:#08743B;stroke:#CF2027;stroke-miterlimit:10;}
</style><style
     type="text/css"
     id="style1-6-76">
	.st0{fill:#08743B;stroke:#CF2027;stroke-miterlimit:10;}
</style><style
     type="text/css"
     id="style1-66-3">
	.st0{fill:#08743B;stroke:#CF2027;stroke-miterlimit:10;}
</style><style
     type="text/css"
     id="style1-6-1-6">
	.st0{fill:#08743B;stroke:#CF2027;stroke-miterlimit:10;}
</style><style
     type="text/css"
     id="style1-3-1">
	.st0{fill:#08743B;stroke:#CF2027;stroke-miterlimit:10;}
</style><style
     type="text/css"
     id="style1-6-7-5">
	.st0{fill:#08743B;stroke:#CF2027;stroke-miterlimit:10;}
</style><style
     type="text/css"
     id="style1-1-4">
	.st0{fill:#08743B;stroke:#CF2027;stroke-miterlimit:10;}
</style><style
     type="text/css"
     id="style1-6-3-2">
	.st0{fill:#08743B;stroke:#CF2027;stroke-miterlimit:10;}
</style></svg>
