<?xml version="1.0" encoding="UTF-8" standalone="no"?>
<!-- Created with Inkscape (http://www.inkscape.org/) -->

<svg
   width="203.82417mm"
   height="163.7036mm"
   viewBox="0 0 203.82417 163.7036"
   version="1.1"
   id="svg1"
   xml:space="preserve"
   sodipodi:docname="folder-shooter.svg"
   inkscape:export-filename="folder-shooter.svg"
   inkscape:export-xdpi="96"
   inkscape:export-ydpi="96"
   xmlns:inkscape="http://www.inkscape.org/namespaces/inkscape"
   xmlns:sodipodi="http://sodipodi.sourceforge.net/DTD/sodipodi-0.dtd"
   xmlns="http://www.w3.org/2000/svg"
   xmlns:svg="http://www.w3.org/2000/svg"><sodipodi:namedview
     id="namedview1"
     pagecolor="#505050"
     bordercolor="#eeeeee"
     borderopacity="1"
     inkscape:showpageshadow="0"
     inkscape:pageopacity="0"
     inkscape:pagecheckerboard="0"
     inkscape:deskcolor="#505050"
     inkscape:document-units="mm"><inkscape:page
       x="0"
       y="0"
       width="203.82417"
       height="163.7036"
       id="page2"
       margin="0"
       bleed="0" /></sodipodi:namedview><defs
     id="defs1" /><g
     id="layer1"
     style="display:inline;fill:#f44336;fill-opacity:1"
     transform="translate(-7.1661449,-70.132435)"
     inkscape:label="layer1"><path
       d="M 175.57936,228.17292 H 26.399382 c -10.939729,0 -19.890529,-8.95061 -19.890529,-19.8908 V 88.938117 c 0,-10.939803 8.9508,-19.890417 19.890529,-19.890417 h 59.672005 l 19.890773,19.890417 h 69.6172 c 10.94019,0 19.89081,8.95099 19.89081,19.890783 v 0 H 26.399382 v 99.45322 L 47.284772,128.7197 H 217.34978 l -22.8742,84.53541 c -1.98845,8.95062 -9.94522,14.91781 -18.89622,14.91781 z"
       id="path1-1"
       style="display:inline;fill:#f44336;fill-opacity:1;stroke-width:9.94534" /><path
       d="M 85.464971,70.132424 H 26.740944 c -10.864038,0 -19.5747992,8.710761 -19.5747992,19.574799 V 207.15528 a 19.574676,19.574676 0 0 0 19.5747992,19.5748 H 183.33823 a 19.574676,19.574676 0 0 0 19.5748,-19.5748 v -97.87326 c 0,-10.864036 -8.80879,-19.574797 -19.5748,-19.574797 H 105.0394 Z"
       id="path1"
       style="display:none;fill:#f44336;fill-opacity:1;stroke-width:9.78732" /></g><style
     type="text/css"
     id="style1">
	.st0{fill:#08743B;stroke:#CF2027;stroke-miterlimit:10;}
</style><style
     type="text/css"
     id="style1-6">
	.st0{fill:#08743B;stroke:#CF2027;stroke-miterlimit:10;}
</style><g
     inkscape:groupmode="layer"
     id="layer2"
     inkscape:label="icon"
     style="display:inline;fill:#ffcdd2;fill-opacity:1"
     transform="rotate(7.6169216,61.511338,93.484469)"><g
       transform="matrix(0.02606087,-0.00369779,-0.00369779,-0.02606087,80.196489,182.14916)"
       fill="#000000"
       stroke="none"
       id="g6"
       inkscape:label="g6"
       style="fill:#ffcdd2;fill-opacity:1"><path
         d="m 292,4184 c -29,-14 -64,-41 -77,-58 -54,-71 -55,-80 -55,-595 0,-457 1,-478 21,-521 11,-25 32,-58 47,-74 39,-41 118,-76 175,-76 h 48 l -6,-32 C 411,2628 220,1366 220,1335 220,1181 321,1025 469,952 l 75,-37 429,-3 c 413,-3 432,-2 492,18 121,40 223,137 267,252 11,29 45,220 78,432 33,210 62,398 66,419 l 6,37 h 412 c 454,0 470,2 559,61 26,17 61,51 78,75 58,85 62,106 67,392 l 4,262 h 692 c 445,0 704,4 728,10 56,16 119,69 147,125 24,46 26,60 29,222 l 4,172 155,3 155,3 24,28 24,28 v 260 260 l -25,24 c -24,24 -28,25 -183,25 h -158 l -13,36 c -18,49 -77,113 -126,135 -38,18 -128,19 -2076,19 H 344 Z m 4103,-140 c 41,-16 45,-48 45,-384 V 3340 H 2380 320 v 330 331 l 25,24 24,25 h 2005 c 1102,0 2012,-3 2021,-6 z m 405,-339 v -155 h -100 -100 v 155 155 h 100 100 z M 1840,2852 c 0,-22 -242,-1562 -251,-1594 -14,-52 -66,-117 -124,-153 l -48,-30 H 996 c -398,0 -423,1 -461,20 -83,41 -155,151 -155,239 0,18 52,366 115,772 63,406 115,742 115,747 0,4 277,7 615,7 338,0 615,-3 615,-8 z m 998,-244 c -4,-282 -6,-292 -75,-345 l -36,-28 -409,-3 c -224,-1 -408,1 -408,5 0,4 21,146 47,316 l 47,307 h 419 419 z"
         id="path1-8"
         style="fill:#ffcdd2;fill-opacity:1" /></g><path
       style="display:inline;fill:#ffcdd2;fill-opacity:1;stroke-width:0.5"
       d="m 336.75,602.44863 c -9.07303,-3.08676 -17.29326,-8.28778 -22.87699,-14.47449 -3.54767,-3.93078 -5.59985,-7.24866 -8.16826,-13.20614 l -1.95475,-4.5341 0.008,-41.11695 c 0.008,-43.15668 0.77312,-111.1442 1.27661,-113.49195 l 0.29487,-1.375 h -5.43467 c -8.77369,0 -13.9901,-1.8744 -19.29463,-6.9331 -3.8464,-3.66815 -5.11978,-5.93169 -6.58391,-11.70344 -3.19188,-12.58279 -11.16505,-69.95143 -12.35036,-88.86346 l -0.57974,-9.25 1.62816,-2.87234 c 2.615,-4.6133 8.53913,-10.51106 12.83544,-12.77832 0.57737,-0.30469 27.46487,-4.28574 59.75,-8.84679 C 367.58488,268.4415 424.2625,260.43646 461.25,255.21358 498.2375,249.99069 541.1,243.93219 556.5,241.75025 642.37391,229.58324 668.16617,226.25 676.43933,226.25 c 5.15258,0 5.57254,0.0804 8.49068,1.625 2.00118,1.05926 4.75634,3.31617 7.91378,6.48264 2.66408,2.6717 5.42258,5.00291 6.12999,5.18046 0.70742,0.17755 5.96861,-0.15214 11.69155,-0.73264 13.47932,-1.36727 17.99226,-1.37801 20.59727,-0.049 1.08503,0.55354 2.29281,1.50979 2.68398,2.125 0.39116,0.61521 1.40488,5.95607 2.25271,11.86857 3.04052,21.20354 5.05042,36.52319 5.0341,38.37038 -0.0182,2.06025 -1.8633,5.15664 -3.98339,6.68485 -0.7939,0.57226 -5.90222,1.82498 -14,3.43325 -7.0125,1.39272 -13.27382,2.75574 -13.91404,3.02894 -1.0898,0.46503 -1.14582,0.69558 -0.87831,3.61465 1.14782,12.5248 1.86953,24.79243 1.69634,28.83416 -0.18131,4.23123 -0.40417,5.18159 -1.92949,8.22803 -2.07525,4.1448 -7.19473,9.84025 -10.10951,11.24689 -4.70707,2.27159 -10.08629,3.16214 -94.11225,15.58062 -41.42073,6.1217 -44.75488,6.68038 -45.3365,7.59663 -0.58334,0.91896 -0.57289,1.06979 1.36072,19.6316 1.04323,10.01453 1.89328,21.22485 2.0687,27.28169 l 0.29779,10.2817 -2.40335,4.65335 c -1.79202,3.46968 -3.45878,5.7624 -6.55252,9.0134 -8.0518,8.46106 -8.46883,8.57483 -61.43758,16.76154 -29.95533,4.62982 -32.58835,5.09225 -33.02592,5.80026 -0.49045,0.79356 -1.14261,15.0817 -1.70972,37.45806 -0.75817,29.91553 -1.47837,46.13656 -2.24377,50.53668 -2.33238,13.40828 -15.11337,27.1438 -28.78428,30.93399 -5.56033,1.54157 -36.22009,6.08456 -72.61743,10.76003 -12.06794,1.55021 -12.21887,1.54992 -16.86888,-0.0321 z M 474.5,451.72043 c 18.49594,-2.44622 45.90933,-6.39793 53.75,-7.74821 8.61878,-1.48428 11.05889,-2.54845 13.58083,-5.92282 2.59161,-3.46757 3.18536,-5.98488 3.07792,-13.0494 -0.14428,-9.48744 -4.01905,-41.8103 -5.14736,-42.93861 -0.76467,-0.76467 -9.40145,0.2208 -39.06405,4.45729 -28.83287,4.11798 -36.72102,5.41442 -39.17019,6.43775 -1.3346,0.55763 -1.68689,1.03301 -1.93616,2.61261 -0.42583,2.69842 -1.49175,56.5669 -1.13758,57.48984 0.22061,0.5749 0.79372,0.68583 2.41787,0.46801 1.17079,-0.15703 7.30372,-0.96993 13.62872,-1.80646 z M 314.70671,340.34957 c 1.28776,-0.9695 1.29304,-1.00332 1.23435,-7.91162 -0.0985,-11.59108 -1.7866,-20.52649 -4.4135,-23.36096 -1.04527,-1.12787 -1.64487,-1.32699 -3.9958,-1.32699 -2.31344,0 -3.01867,0.22577 -4.3104,1.37993 -1.31534,1.17526 -1.58538,1.83169 -1.82059,4.42562 -0.63335,6.98468 1.62237,22.2842 3.70454,25.12623 2.23511,3.05077 6.72784,3.83117 9.6014,1.66779 z m 37.46527,-4.87669 c 1.10684,-0.44288 2.18648,-1.31322 2.51012,-2.02353 0.72177,-1.58413 0.74514,-13.05813 0.0381,-18.71247 -0.63402,-5.0704 -2.46058,-9.43584 -4.81192,-11.50034 -2.00756,-1.76266 -3.553,-1.86876 -6.49258,-0.44574 -3.13963,1.51987 -3.44482,2.94004 -2.71779,12.64685 0.6418,8.56903 1.89174,14.34768 3.81228,17.62484 1.95633,3.33822 3.85223,3.93467 7.66179,2.41039 z m 39.22076,-5.96029 c 2.38702,-0.99736 3.70138,-2.81148 4.09136,-5.64704 0.39202,-2.85028 -0.48781,-12.11934 -1.57716,-16.61555 -1.07158,-4.42287 -3.4428,-9.33664 -4.99694,-10.35495 -2.43202,-1.59352 -6.95748,-0.64672 -8.21816,1.71937 -0.85781,1.60998 -0.83903,14.24801 0.0284,19.13558 0.84559,4.76433 2.4485,9.32674 3.87049,11.01668 1.44525,1.71759 3.84627,1.98088 6.80198,0.74591 z m 38.8942,-4.67854 c 3.58605,-2.27421 4.96306,-4.23931 4.96306,-7.08268 0,-3.22096 -2.23976,-16.40089 -3.49611,-20.57297 -1.69424,-5.62627 -5.14158,-7.63777 -9.77313,-5.70259 -1.02229,0.42714 -1.94157,1.26355 -2.23394,2.03255 -1.32336,3.48069 -0.0907,18.67205 2.03486,25.07791 1.01901,3.07101 4.41269,7.66373 5.66292,7.66373 0.33529,0 1.61434,-0.63718 2.84234,-1.41595 z M 503.61318,304.509 c 24.01114,-3.24389 124.82068,-17.77834 135.63682,-19.55575 17.02605,-2.79789 23.52685,-4.57575 25.52208,-6.97986 1.72318,-2.07631 0.35031,-7.32145 -2.14391,-8.19094 -2.20215,-0.76767 -11.74187,-0.65469 -20.26739,0.24004 -27.94849,2.93309 -141.52913,19.66019 -152.83251,22.50774 -1.63445,0.41175 -3.7157,1.31609 -4.625,2.00965 -1.48866,1.13545 -1.65327,1.51397 -1.65327,3.80155 0,1.68213 0.34367,3.09661 1.01714,4.1863 1.18552,1.91821 3.75296,3.70179 5.34604,3.71384 0.61225,0.005 6.91225,-0.77502 14,-1.73257 z"
       id="path53"
       transform="matrix(0.26458333,0,0,0.26458333,0.57375925,-3.4425555)" /></g></svg>
