<?xml version="1.0" encoding="UTF-8" standalone="no"?>
<!-- Created with Inkscape (http://www.inkscape.org/) -->

<svg
   width="210mm"
   height="297mm"
   viewBox="0 0 210 297"
   version="1.1"
   id="svg1"
   xml:space="preserve"
   sodipodi:docname="folder-subsystem.svg"
   inkscape:export-filename="folder-subsystem-open.png"
   inkscape:export-xdpi="96"
   inkscape:export-ydpi="96"
   xmlns:inkscape="http://www.inkscape.org/namespaces/inkscape"
   xmlns:sodipodi="http://sodipodi.sourceforge.net/DTD/sodipodi-0.dtd"
   xmlns="http://www.w3.org/2000/svg"
   xmlns:svg="http://www.w3.org/2000/svg"><sodipodi:namedview
     id="namedview1"
     pagecolor="#505050"
     bordercolor="#eeeeee"
     borderopacity="1"
     inkscape:showpageshadow="0"
     inkscape:pageopacity="0"
     inkscape:pagecheckerboard="0"
     inkscape:deskcolor="#505050"
     inkscape:document-units="mm"><inkscape:page
       x="0"
       y="0"
       width="210"
       height="297"
       id="page2"
       margin="0"
       bleed="0" /></sodipodi:namedview><defs
     id="defs1"><inkscape:path-effect
       effect="bspline"
       id="path-effect148"
       is_visible="true"
       lpeversion="1.3"
       weight="33.333333"
       steps="2"
       helper_size="0"
       apply_no_weight="true"
       apply_with_weight="true"
       only_selected="false"
       uniform="false" /><inkscape:path-effect
       effect="bspline"
       id="path-effect146"
       is_visible="true"
       lpeversion="1.3"
       weight="33.333333"
       steps="2"
       helper_size="0"
       apply_no_weight="true"
       apply_with_weight="true"
       only_selected="false"
       uniform="false" /><inkscape:path-effect
       effect="bspline"
       id="path-effect145"
       is_visible="true"
       lpeversion="1.3"
       weight="33.333333"
       steps="2"
       helper_size="0"
       apply_no_weight="true"
       apply_with_weight="true"
       only_selected="false"
       uniform="false" /><inkscape:path-effect
       effect="bspline"
       id="path-effect144"
       is_visible="true"
       lpeversion="1.3"
       weight="33.333333"
       steps="2"
       helper_size="0"
       apply_no_weight="true"
       apply_with_weight="true"
       only_selected="false"
       uniform="false" /></defs><g
     id="layer1"
     style="display:inline;fill:#fb8c00;fill-opacity:1"
     inkscape:label="layer1"><path
       d="M 175.57936,228.17292 H 26.399382 c -10.939729,0 -19.890529,-8.95061 -19.890529,-19.8908 V 88.938117 c 0,-10.939803 8.9508,-19.890417 19.890529,-19.890417 h 59.672005 l 19.890773,19.890417 h 69.6172 c 10.94019,0 19.89081,8.95099 19.89081,19.890783 v 0 H 26.399382 v 99.45322 L 47.284772,128.7197 H 217.34978 l -22.8742,84.53541 c -1.98845,8.95062 -9.94522,14.91781 -18.89622,14.91781 z"
       id="path1-1"
       style="display:inline;fill:#f44336;fill-opacity:1" /><path
       d="M 85.464971,70.132424 H 26.740944 c -10.864038,0 -19.5747992,8.710761 -19.5747992,19.574799 V 207.15528 a 19.574676,19.574676 0 0 0 19.5747992,19.5748 H 183.33823 a 19.574676,19.574676 0 0 0 19.5748,-19.5748 v -97.87326 c 0,-10.864036 -8.80879,-19.574797 -19.5748,-19.574797 H 105.0394 Z"
       id="path1"
       style="display:none;fill:#f44336;fill-opacity:1" /></g><g
     id="layer3"
     transform="matrix(0.84925839,0,0,0.84925839,-37.698447,26.274393)"
     style="display:inline;fill:#dcedc8;fill-opacity:1;stroke:#dcedc8;stroke-width:0.999696;stroke-dasharray:none;stroke-opacity:1"><g
       transform="matrix(0.01676518,-0.02381748,-0.02381748,-0.01676518,220.83302,288.44109)"
       fill="#000000"
       stroke="none"
       id="g3"
       style="display:inline;fill:#ffcdd2;fill-opacity:1"><path
         d="m 1363,5100 c -58,-35 -67,-60 -71,-196 -3,-91 -8,-124 -17,-124 -30,0 -178,-56 -273,-103 l -103,-51 -83,83 c -137,136 -170,132 -348,-46 -66,-65 -126,-130 -134,-145 -8,-15 -14,-48 -14,-73 0,-44 3,-49 89,-138 l 88,-92 -29,-48 C 433,4111 368,3956 350,3884 l -13,-52 -122,-4 C 80,3824 55,3815 20,3757 2,3728 0,3706 0,3542 c 0,-215 6,-239 74,-272 35,-16 62,-20 154,-20 88,0 112,-3 112,-14 0,-32 54,-178 102,-274 l 51,-104 -76,-76 c -88,-91 -97,-106 -97,-168 v -47 l 137,-139 c 194,-195 214,-199 355,-60 l 87,85 89,-47 c 49,-25 136,-61 193,-80 92,-31 104,-38 107,-60 2,-15 -6,-38 -20,-56 -22,-31 -23,-40 -26,-257 -3,-209 -2,-227 17,-266 34,-71 62,-81 240,-87 l 154,-5 19,-70 c 29,-105 93,-261 143,-349 l 45,-79 -109,-112 c -171,-175 -169,-194 62,-422 152,-151 182,-173 238,-173 46,0 65,14 180,127 l 106,105 40,-25 c 100,-64 266,-135 386,-166 l 72,-18 5,-154 c 6,-174 15,-202 80,-238 35,-20 53,-21 262,-21 259,0 277,5 316,80 20,40 22,59 22,187 v 142 l 43,11 c 114,30 233,77 343,134 l 122,64 103,-104 c 112,-113 147,-132 216,-119 32,6 63,32 201,168 174,174 191,199 177,273 -5,32 -27,60 -115,149 l -107,110 58,110 c 56,107 101,219 134,338 l 16,57 h 143 c 127,0 146,2 186,23 75,38 80,56 80,315 0,209 -1,227 -21,262 -36,65 -64,74 -238,80 l -154,5 -18,72 c -31,120 -102,286 -166,386 l -25,40 105,106 c 114,115 127,134 127,181 0,57 -28,95 -183,247 -223,220 -238,222 -412,52 l -112,-109 -79,45 c -88,50 -244,114 -349,143 l -70,19 -5,154 c -6,178 -16,206 -87,240 -39,19 -57,20 -266,17 -217,-3 -226,-4 -257,-26 -18,-14 -41,-22 -56,-20 -22,3 -29,15 -60,107 -19,57 -55,144 -80,193 l -47,89 85,87 c 138,141 134,161 -55,350 -103,102 -142,135 -169,141 -58,13 -103,-9 -189,-95 l -77,-77 -114,57 c -62,30 -150,66 -195,78 l -83,23 v 113 c 0,92 -4,120 -20,151 -32,64 -60,71 -272,71 -164,0 -186,-2 -215,-20 z m 357,-247 c 0,-173 8,-183 195,-238 50,-15 142,-54 205,-87 102,-53 120,-59 159,-55 38,4 53,14 125,86 45,45 86,81 91,81 6,0 52,-42 103,-93 l 92,-92 -76,-75 c -113,-111 -125,-150 -74,-241 59,-104 101,-203 130,-303 35,-120 65,-156 130,-156 h 40 v -107 -108 l -73,-18 c -99,-25 -256,-89 -351,-144 l -79,-45 -96,96 -97,97 4,64 c 3,38 -2,94 -13,139 -45,205 -183,357 -385,427 -119,40 -340,24 -393,-30 -26,-25 -26,-74 -1,-102 20,-23 43,-23 162,1 207,41 425,-111 471,-328 25,-120 32,-107 -176,-315 l -187,-187 h -45 c -204,1 -379,154 -412,360 -12,78 -5,135 32,228 39,99 20,147 -57,140 -44,-4 -65,-28 -94,-110 -77,-219 -27,-442 136,-604 105,-105 276,-171 421,-162 l 62,4 97,-97 96,-97 -41,-71 c -56,-94 -98,-193 -137,-321 l -32,-105 -106,-3 -106,-3 v 40 c 0,57 -37,97 -108,116 -106,29 -227,77 -304,121 -135,77 -166,72 -283,-46 l -80,-80 -92,92 c -51,51 -93,97 -93,103 0,5 36,46 81,91 72,72 82,87 86,125 4,39 -2,57 -55,159 -33,63 -72,156 -87,205 -55,187 -65,195 -237,195 H 150 v 140 140 h 126 126 l 33,33 c 20,20 38,51 44,78 25,96 65,199 117,296 78,148 75,170 -45,288 -39,38 -71,74 -71,80 0,13 172,185 185,185 6,0 42,-32 80,-71 118,-120 140,-123 288,-45 97,52 200,92 296,117 27,6 58,24 78,44 l 33,33 v 126 126 h 140 140 z M 3372,3566 c 3,-160 4,-165 28,-191 34,-37 46,-42 168,-76 96,-27 250,-95 372,-164 48,-27 106,-33 143,-14 12,6 68,57 125,112 l 102,102 132,-133 133,-132 -102,-102 c -145,-146 -151,-172 -73,-310 63,-111 111,-225 149,-359 25,-87 36,-109 65,-136 l 36,-33 h 160 160 v -190 -190 h -150 c -211,0 -224,-8 -271,-172 -42,-142 -81,-236 -145,-349 -56,-99 -67,-146 -43,-192 6,-12 58,-69 115,-127 L 4580,805 4447,672 4315,540 4215,641 c -55,55 -112,107 -127,115 -51,27 -95,18 -197,-40 C 3778,652 3684,613 3542,571 3378,524 3370,511 3370,300 V 150 h -190 -190 v 160 159 l -31,36 c -23,25 -47,39 -88,51 -161,44 -311,106 -451,188 -90,52 -134,36 -268,-97 l -102,-102 -132,133 -133,132 102,102 c 55,57 106,113 112,125 19,37 13,95 -14,143 -68,119 -137,274 -160,360 -33,121 -52,159 -94,187 -32,21 -44,23 -188,23 h -153 l 2,188 3,187 160,5 c 211,7 215,9 260,174 32,118 87,249 150,357 47,82 57,136 34,182 -6,12 -57,68 -112,125 l -102,102 133,132 132,133 102,-102 c 57,-55 113,-106 125,-112 42,-21 102,-13 162,23 122,74 250,127 396,167 146,39 155,54 155,255 0,83 3,154 7,157 3,4 89,7 189,7 h 183 z"
         id="path1-7"
         style="fill:#ffcdd2;fill-opacity:1" /><path
         d="m 3009,2885 c -198,-38 -362,-126 -509,-274 -150,-152 -239,-326 -271,-533 -27,-174 18,-461 84,-535 29,-33 79,-31 106,3 26,34 26,42 -3,123 -35,97 -50,206 -43,319 7,116 26,192 73,291 208,442 731,601 1159,353 81,-47 222,-190 273,-277 68,-115 104,-239 110,-376 10,-239 -70,-450 -232,-612 -283,-284 -744,-319 -1055,-80 -140,107 -140,107 -185,72 -42,-33 -36,-78 18,-129 99,-94 235,-171 383,-217 80,-24 103,-27 258,-27 148,-1 180,2 248,22 115,33 192,68 285,128 190,124 331,315 398,541 37,126 44,319 16,455 -33,160 -107,312 -209,428 -142,163 -309,266 -513,315 -93,23 -297,28 -391,10 z"
         id="path2"
         style="fill:#ffcdd2;fill-opacity:1" /><path
         d="m 3036,2505 c -149,-38 -297,-155 -368,-291 -204,-389 72,-854 507,-855 171,-1 297,51 416,170 119,119 171,245 170,416 0,243 -147,453 -378,541 -86,33 -255,42 -347,19 z m 329,-175 c 217,-103 308,-359 205,-577 -125,-268 -485,-329 -696,-118 -188,188 -158,514 61,660 89,59 152,76 265,72 83,-3 104,-8 165,-37 z"
         id="path3"
         style="fill:#ffcdd2;fill-opacity:1" /></g></g><style
     type="text/css"
     id="style1">
	.st0{fill:#08743B;stroke:#CF2027;stroke-miterlimit:10;}
</style><style
     type="text/css"
     id="style1-6">
	.st0{fill:#08743B;stroke:#CF2027;stroke-miterlimit:10;}
</style><style
     type="text/css"
     id="style1-66">
	.st0{fill:#08743B;stroke:#CF2027;stroke-miterlimit:10;}
</style><style
     type="text/css"
     id="style1-6-1">
	.st0{fill:#08743B;stroke:#CF2027;stroke-miterlimit:10;}
</style><style
     type="text/css"
     id="style1-3">
	.st0{fill:#08743B;stroke:#CF2027;stroke-miterlimit:10;}
</style><style
     type="text/css"
     id="style1-6-7">
	.st0{fill:#08743B;stroke:#CF2027;stroke-miterlimit:10;}
</style><style
     type="text/css"
     id="style1-1">
	.st0{fill:#08743B;stroke:#CF2027;stroke-miterlimit:10;}
</style><style
     type="text/css"
     id="style1-6-3">
	.st0{fill:#08743B;stroke:#CF2027;stroke-miterlimit:10;}
</style><style
     type="text/css"
     id="style1-0">
	.st0{fill:#08743B;stroke:#CF2027;stroke-miterlimit:10;}
</style><style
     type="text/css"
     id="style1-6-76">
	.st0{fill:#08743B;stroke:#CF2027;stroke-miterlimit:10;}
</style><style
     type="text/css"
     id="style1-66-3">
	.st0{fill:#08743B;stroke:#CF2027;stroke-miterlimit:10;}
</style><style
     type="text/css"
     id="style1-6-1-6">
	.st0{fill:#08743B;stroke:#CF2027;stroke-miterlimit:10;}
</style><style
     type="text/css"
     id="style1-3-1">
	.st0{fill:#08743B;stroke:#CF2027;stroke-miterlimit:10;}
</style><style
     type="text/css"
     id="style1-6-7-5">
	.st0{fill:#08743B;stroke:#CF2027;stroke-miterlimit:10;}
</style><style
     type="text/css"
     id="style1-1-4">
	.st0{fill:#08743B;stroke:#CF2027;stroke-miterlimit:10;}
</style><style
     type="text/css"
     id="style1-6-3-2">
	.st0{fill:#08743B;stroke:#CF2027;stroke-miterlimit:10;}
</style><path
     style="fill:#ffcdd2;stroke-width:0.264583"
     id="path140"
     d="m 87.135535,183.69475 c 0.05989,0.0864 0.0899,0.18601 0.121221,0.28497 0.01876,0.0593 0.03947,0.11802 0.0555,0.1781 0.04267,0.1599 0.06549,0.30356 0.09577,0.4673 0.04058,0.30042 0.05082,0.6039 0.01503,0.90549 -0.01281,0.10795 -0.03605,0.2144 -0.05424,0.32157 -0.09107,0.53679 -0.02172,0.12061 -0.111842,0.6663 -0.02101,0.11185 -0.04403,0.22333 -0.06303,0.33554 -0.01966,0.11607 -0.03418,0.23294 -0.05288,0.34916 -0.04738,0.29431 -0.07212,0.38801 -0.107598,0.68362 -0.0068,0.0566 -0.05902,0.62214 -0.0647,0.68325 -0.02101,0.25842 -0.03457,0.39321 -0.04534,0.65166 -0.0045,0.10796 -0.0052,0.21605 -0.0083,0.32406 -0.0085,0.2953 -0.0164,0.32102 -0.0039,0.61453 0.0041,0.0964 0.01289,0.19255 0.01931,0.28883 0.01061,0.0838 0.05077,0.42236 0.07219,0.51445 0.01916,0.0823 0.04531,0.16313 0.07487,0.24234 0.03161,0.0847 0.07232,0.16573 0.10836,0.24864 0.134403,0.30915 0.05846,0.14829 0.213003,0.4526 0.190418,0.28499 0.339317,0.59623 0.546907,0.86991 0.108481,0.14302 0.194683,0.2344 0.312811,0.36644 0.05471,0.0499 0.108278,0.10098 0.164135,0.14955 0.04384,0.0381 0.08478,0.0809 0.134847,0.11039 1.028999,0.60564 2.063896,1.20125 3.10047,1.79384 0.140522,0.0803 0.298931,0.12173 0.454286,0.16083 0.09389,0.022 0.189664,0.0279 0.285544,0.032 0,0 -3.069524,-2.26175 -3.069524,-2.26175 v 0 c -0.0525,-0.006 -0.104923,-0.012 -0.155942,-0.0264 -0.07403,-0.0224 -0.06741,-0.0183 -0.144034,-0.0512 -0.02979,-0.0128 -0.11647,-0.0568 -0.08851,-0.0404 0.928613,0.54554 1.86251,1.08205 2.790915,1.62795 0.06792,0.0399 -0.141126,-0.0704 -0.209246,-0.10996 -0.06788,-0.0394 -0.132249,-0.0847 -0.198374,-0.12699 -0.06435,-0.0513 -0.132093,-0.0985 -0.193048,-0.15376 -0.117499,-0.10649 -0.225128,-0.23884 -0.323196,-0.36251 -0.158721,-0.20017 -0.310216,-0.40729 -0.424032,-0.63701 -0.03956,-0.0709 -0.206645,-0.36845 -0.241575,-0.43907 -0.03591,-0.0726 -0.06649,-0.1477 -0.09901,-0.22186 -0.03316,-0.0756 -0.06579,-0.15149 -0.09805,-0.22751 -0.134906,-0.31797 -0.08329,-0.18099 -0.186338,-0.51762 -0.05292,-0.25798 -0.07336,-0.32385 -0.09927,-0.58844 -0.02641,-0.26966 -0.02077,-0.36585 -0.01982,-0.63741 0.0013,-0.34251 0.0019,-0.31411 0.007,-0.65881 0.01733,-0.38938 0.0073,-0.28542 0.04622,-0.67367 0.02064,-0.20602 0.04865,-0.47351 0.08479,-0.67737 0.01995,-0.11258 0.04826,-0.22353 0.07126,-0.33552 0.02273,-0.11067 0.04394,-0.22164 0.06592,-0.33246 0.0654,-0.2827 0.08524,-0.36604 0.148265,-0.64789 0.02355,-0.10531 0.0422,-0.21179 0.06982,-0.3161 0.02723,-0.10282 0.06359,-0.20301 0.09457,-0.30476 0.09499,-0.31192 0.06977,-0.22681 0.146412,-0.52476 0.03524,-0.12275 0.06816,-0.24956 0.114602,-0.36901 0.01614,-0.0415 0.03665,-0.0812 0.0555,-0.12154 0.03027,-0.0648 0.05498,-0.12659 0.121224,-0.16144 z" /><path
     style="fill:#ffcdd2;stroke-width:0.264583"
     id="path141"
     d="m 88.42513,194.264 c -0.0042,-0.001 -0.009,-0.001 -0.01246,-0.004 -0.01466,-0.0109 -0.02651,-0.0252 -0.04108,-0.0362 -0.02967,-0.0224 -0.123704,-0.0823 -0.09147,-0.0638 0.958117,0.55017 1.911728,1.10815 2.869475,1.65896 0.05902,0.0339 -0.116756,-0.0702 -0.173178,-0.10828 -0.0547,-0.0369 -0.106662,-0.0778 -0.159994,-0.11669 -0.305633,-0.23746 -0.583546,-0.50816 -0.836538,-0.80085 -0.05735,-0.0663 -0.111154,-0.13569 -0.166733,-0.20353 -0.150593,-0.17754 -0.274492,-0.37467 -0.406471,-0.56573 -0.04118,-0.0596 -0.08509,-0.11735 -0.124965,-0.17785 -0.258059,-0.39151 0.08605,0.0922 -0.242303,-0.35883 -0.03919,-0.0634 -0.07838,-0.12673 -0.117573,-0.19009 -0.03627,-0.062 -0.07132,-0.12482 -0.108799,-0.18614 -0.142907,-0.23384 -0.128969,-0.17532 -0.232133,-0.42104 -0.0348,-0.0829 -0.116797,-0.32259 -0.146055,-0.40659 -0.01749,-0.0665 -0.03594,-0.13266 -0.05251,-0.19935 -0.0163,-0.0656 -0.03259,-0.13124 -0.04607,-0.19747 -0.02777,-0.13646 -0.03796,-0.23386 -0.0584,-0.37112 -0.03952,-0.2655 -0.01868,-0.0882 -0.04428,-0.3423 -0.0363,-0.19836 -0.0325,-0.1351 -0.03941,-0.31977 -0.0016,-0.0417 7.94e-4,-0.0836 -0.0027,-0.12521 -0.0038,-0.045 -0.01307,-0.0893 -0.01926,-0.13396 -0.0258,-0.18579 -0.0054,-0.0607 -0.03646,-0.23737 -0.0084,-0.0379 -0.0177,-0.0756 -0.02521,-0.11365 -0.0074,-0.0374 -0.01238,-0.0753 -0.01945,-0.11272 -0.02085,-0.11075 -0.03286,-0.14575 -0.04735,-0.25963 -0.0058,-0.0458 -0.0079,-0.0919 -0.01259,-0.13784 -0.0051,-0.0505 -0.01122,-0.10081 -0.01683,-0.15121 -0.01685,-0.22791 -0.0078,-0.0873 -0.01932,-0.31836 -0.0073,-0.14793 -0.01429,-0.18658 -0.0039,-0.33534 0.01109,-0.15977 0.02048,-0.17868 0.05281,-0.33249 0.02133,-0.0581 0.09067,-0.24573 0.110117,-0.30354 0.01789,-0.0532 0.03902,-0.10564 0.05061,-0.16054 0.01394,-0.066 0.01259,-0.13454 0.02566,-0.20072 0.01214,-0.0614 0.08565,-0.3034 0.104042,-0.36521 0.0163,-0.0594 0.03616,-0.11794 0.04887,-0.17821 0.01331,-0.063 0.01389,-0.12848 0.02903,-0.19112 0.01479,-0.0613 0.04142,-0.11916 0.06042,-0.1793 0.01968,-0.0623 0.03368,-0.12646 0.05561,-0.18803 0.05253,-0.14749 0.0828,-0.19072 0.156397,-0.32544 0.02819,-0.0485 0.05559,-0.0975 0.08457,-0.14551 0.02744,-0.0455 0.05727,-0.0895 0.08465,-0.13506 0.04128,-0.0687 0.120324,-0.21319 0.162861,-0.27936 0.228034,-0.35466 -0.03727,0.092 0.187907,-0.29566 0.03347,-0.0461 0.06523,-0.0935 0.100396,-0.13836 0.03212,-0.0409 0.06833,-0.0786 0.101315,-0.1188 0.05451,-0.0665 0.104362,-0.13682 0.159234,-0.20306 0.04959,-0.0599 0.06557,-0.0737 0.118049,-0.12635 0.06139,-0.0522 0.109688,-0.11668 0.166616,-0.17341 0,0 -3.275579,-1.96357 -3.275579,-1.96357 v 0 c -0.05677,0.0819 -0.119451,0.16122 -0.146174,0.25919 -0.0269,0.0879 -0.03121,0.0985 -0.0549,0.19098 -0.04562,0.17806 -0.077,0.36083 -0.180146,0.51792 -0.131189,0.18856 -0.06596,0.0931 -0.195623,0.28644 -0.07045,0.10192 -0.140099,0.18742 -0.198011,0.29762 -0.03652,0.0695 -0.107051,0.25584 -0.13484,0.32683 -0.0439,0.12433 -0.08575,0.24941 -0.131553,0.37306 -0.02342,0.0632 -0.05159,0.12466 -0.07328,0.18848 -0.02127,0.0626 -0.03308,0.12824 -0.05551,0.19045 -0.02307,0.064 -0.06081,0.12237 -0.08072,0.1874 -0.0173,0.0565 -0.02011,0.11653 -0.03017,0.17479 -0.01881,0.0842 -0.05955,0.28061 -0.09014,0.36146 -0.02146,0.0567 -0.0577,0.10695 -0.08032,0.16321 -0.02058,0.0512 -0.03312,0.10525 -0.04886,0.15813 -0.05213,0.1751 -0.04626,0.16072 -0.09119,0.34233 -0.01707,0.0625 -0.03675,0.1244 -0.05122,0.18758 -0.01365,0.0596 -0.02207,0.12032 -0.03307,0.18049 -0.01974,0.10791 -0.04648,0.23961 -0.05607,0.34964 -0.0046,0.0523 -0.0031,0.10493 -0.0052,0.15737 -0.0021,0.0508 -0.0047,0.10147 -0.0071,0.15221 -0.01551,0.24622 -0.0057,0.0442 -0.0096,0.28574 -0.0013,0.0736 -0.0081,0.1914 -0.0036,0.26571 0.0037,0.0606 0.02548,0.19305 0.0347,0.25293 0.09114,0.3369 -0.0272,-0.0904 0.07592,0.24938 0.01326,0.0437 0.02387,0.0882 0.03582,0.13228 0.01588,0.0506 0.03178,0.10122 0.04767,0.15183 0.01754,0.0555 0.03841,0.11001 0.05298,0.16635 0.01455,0.0562 0.02283,0.11389 0.03424,0.17083 0.061,0.24554 0.03173,0.12125 0.08764,0.37288 0.01595,0.0658 0.03517,0.13072 0.05147,0.19642 0.05383,0.21701 0.09987,0.4363 0.174022,0.6478 0.02326,0.0749 0.04327,0.15085 0.06976,0.22466 0.03078,0.0857 0.152178,0.36518 0.185298,0.44976 0.0278,0.071 0.04529,0.14622 0.07849,0.21486 0.06592,0.13634 0.172657,0.25029 0.236144,0.38811 0.03254,0.0622 0.06065,0.12687 0.09763,0.1865 0.0405,0.0653 0.08965,0.12483 0.134255,0.1874 0.04493,0.063 0.0879,0.12746 0.13434,0.18938 0.15332,0.2044 0.329358,0.39038 0.474284,0.60124 0.134098,0.18887 0.263382,0.38081 0.405077,0.56414 0.07275,0.0941 0.172246,0.22087 0.255362,0.30747 0.0443,0.0462 0.09287,0.088 0.139298,0.13204 1.080969,1.0007 0.855708,0.59592 3.410397,2.07911 0.160737,0.0933 0.33423,0.16034 0.516528,0.19669 z" /><path
     style="fill:#ffcdd2;stroke-width:0.264583"
     id="path142"
     d="m 85.865286,189.24619 c 0.127463,0.10176 0.01148,0.007 0.149527,0.12916 0.03799,0.0338 0.08007,0.0631 0.115242,0.0998 0.04555,0.0475 0.08474,0.10076 0.126108,0.15197 0.09481,0.11734 0.186857,0.23689 0.280294,0.35532 0.165032,0.24031 0.06909,0.0938 0.209439,0.32263 0.08119,0.13239 0.0857,0.1338 0.157626,0.26239 0.04621,0.0826 0.064,0.11974 0.105579,0.20192 0.01336,0.0266 0.02508,0.0542 0.04012,0.08 0.01738,0.0298 0.03811,0.0574 0.05694,0.0863 0.08565,0.13129 0.01043,0.0215 0.105733,0.15282 0.01884,0.0259 0.03614,0.0531 0.05586,0.0784 0.02429,0.0311 0.05071,0.0605 0.07606,0.0908 0.113954,0.11297 0.186857,0.25673 0.285359,0.3814 0.07442,0.10796 0.04059,0.0532 0.102055,0.16387 0,0 3.414064,1.53644 3.414064,1.53644 v 0 c -0.04712,-0.0958 -0.02861,-0.0481 -0.05737,-0.14239 -0.0086,-0.0252 -0.01447,-0.0515 -0.02577,-0.0756 -0.02931,-0.0625 -0.06699,-0.10756 -0.111204,-0.16025 -0.07024,-0.0837 -0.148032,-0.16131 -0.210331,-0.25153 -0.156122,-0.20892 0.05006,0.0647 -0.116252,-0.14835 -0.02037,-0.0261 -0.03869,-0.0538 -0.0593,-0.0797 -0.07183,-0.0903 -0.148714,-0.17702 -0.224282,-0.26417 -0.109805,-0.1265 -0.214225,-0.25632 -0.318349,-0.38753 -0.02958,-0.0373 -0.223753,-0.28088 -0.248587,-0.315 -0.03963,-0.0544 -0.07522,-0.11172 -0.112824,-0.16758 -0.02753,-0.051 -0.05589,-0.10152 -0.08258,-0.15295 -0.03736,-0.072 -0.0802,-0.1473 -0.09278,-0.22945 -0.0048,-0.0312 0.0027,-0.0632 1.83e-4,-0.0946 -0.0063,-0.0803 -0.01998,-0.0192 -0.0039,-0.0731 z" /><path
     style="fill:#ffcdd2;stroke-width:0.264583"
     id="path143"
     d="m 86.801205,185.32464 c -0.0042,0.0334 0.04175,0.0447 0.04584,0.0731 0.0053,0.0366 -0.02783,0.0995 -0.04119,0.12774 -0.02956,0.0626 -0.04404,0.0881 -0.07606,0.14828 -0.0821,0.13692 -0.119454,0.29353 -0.152934,0.44799 -0.01897,0.14853 -0.01058,0.29817 -0.0083,0.44734 0.0011,0.12589 -0.01826,0.25098 -0.02268,0.37658 -0.0094,0.26662 0.01162,-0.0657 -0.0053,0.17803 -1.67e-4,0.0368 0.0019,0.0737 -5.29e-4,0.11039 -0.0024,0.0373 -0.01011,0.0741 -0.01378,0.11128 -0.0041,0.0416 -0.0067,0.0834 -0.0096,0.12512 -0.0094,0.13562 -0.01302,0.27115 -0.01646,0.40702 -0.01431,0.22952 0.03625,0.45691 0.03333,0.68625 -5.3e-4,0.0432 -0.0053,0.0862 -0.008,0.12925 -0.0031,0.202 -0.02191,0.40379 -0.0444,0.6045 -0.0027,0.0227 -0.0074,0.0453 -0.0081,0.0681 -7.94e-4,0.0259 0.0031,0.0518 0.0034,0.0777 0.0013,0.0991 -0.0032,0.0466 -0.0054,0.14189 -0.0011,0.0476 7.94e-4,0.0951 7.94e-4,0.14268 0.0061,0.16107 0.01484,0.32215 0.008,0.4833 0.0036,0.16674 -7.94e-4,0.33327 0.0016,0.5 0.0021,0.0345 0.004,0.069 0.006,0.10349 0,0 3.446161,1.67169 3.446161,1.67169 v 0 c -0.0087,-0.0196 -0.01749,-0.0393 -0.02622,-0.0589 -0.02241,-0.15715 -0.007,-0.31655 -0.0097,-0.47482 -0.0064,-0.15838 0.0013,-0.31665 0.0081,-0.47492 1.72e-4,-0.0473 0.0019,-0.0945 0.0011,-0.14176 -0.0021,-0.093 -0.0065,-0.0525 -0.0053,-0.14746 2.65e-4,-0.0249 0.0042,-0.0496 0.0034,-0.0745 -7.94e-4,-0.0257 -0.0055,-0.0511 -0.0082,-0.0767 -0.02244,-0.21922 -0.04283,-0.43903 -0.05195,-0.65921 -0.004,-0.0469 -0.0098,-0.0937 -0.01193,-0.14072 -0.0099,-0.22194 0.02633,-0.44464 -7.93e-4,-0.66614 -0.0039,-0.0829 -0.0099,-0.15573 -0.0039,-0.23859 0.0049,-0.0676 0.02241,-0.15995 0.03365,-0.22709 0.0061,-0.0363 0.0099,-0.0731 0.01802,-0.109 0.0081,-0.0356 0.02043,-0.0702 0.03064,-0.10528 0.0083,-0.0526 0.02445,-0.14529 0.02783,-0.19988 0.0019,-0.0297 -5.29e-4,-0.0594 2.2e-4,-0.0891 0.0021,-0.0892 0.0063,-0.17884 0.02077,-0.26697 0.01617,-0.0778 0.03512,-0.15644 0.04099,-0.23599 0.003,-0.0414 0.0011,-0.0831 0.0024,-0.12459 5.29e-4,-0.0189 0.0016,-0.0378 0.0024,-0.0568 -0.0011,-0.12274 0.01389,-0.24066 0.06672,-0.35326 0.03097,-0.077 0.06327,-0.15013 0.106317,-0.22146 0.05913,-0.098 0.05319,-0.0788 0.120145,-0.17877 0.0096,-0.0144 0.01794,-0.0296 0.02692,-0.0444 z" /><path
     style="fill:#ffcdd2;stroke-width:0.264583"
     d="m 89.849332,191.41509 c 0.06236,0.20268 0.124726,0.40536 0.155908,0.5301 0.03118,0.12474 0.03118,0.17144 0.101339,0.26111 0.07016,0.0897 0.210475,0.22219 0.350792,0.35471"
     id="path144"
     inkscape:path-effect="#path-effect144"
     inkscape:original-d="m 89.849332,191.41509 c 0.06236,0.20268 0.124727,0.40536 0.187089,0.60804 0,0.0468 0,0.0935 0,0.14032 0.140317,0.13252 0.280633,0.26504 0.42095,0.39756" /><path
     style="fill:#ffcdd2;stroke-width:0.264583"
     d="m 90.270281,186.83142 c -0.06236,0.18709 -0.124726,0.37418 -0.167609,0.48332 -0.04288,0.10914 -0.06628,0.14032 -0.08966,0.18709 -0.02338,0.0468 -0.04675,0.10909 -0.05844,0.17927 -0.01169,0.0702 -0.01169,0.14808 -0.03117,0.22602 -0.01948,0.0779 -0.05848,0.15593 -0.09745,0.23388"
     id="path145"
     inkscape:path-effect="#path-effect145"
     inkscape:original-d="m 90.270281,186.83142 c -0.06236,0.18709 -0.124724,0.37418 -0.187089,0.56127 -0.02339,0.0312 -0.04677,0.0624 -0.07016,0.0935 -0.02339,0.0624 -0.04677,0.12473 -0.07016,0.18709 0,0.078 0,0.1559 0,0.23386 -0.03898,0.0779 -0.07795,0.15591 -0.11693,0.23386" /><path
     style="fill:#ffcdd2;stroke-width:0.264583"
     d="m 90.480757,186.50401 c -0.03899,0.0312 -0.07798,0.0624 -0.105257,0.10133 -0.02727,0.039 -0.04284,0.0857 -0.07014,0.14807 -0.0273,0.0624 -0.06625,0.14032 -0.09744,0.2105 -0.03119,0.0702 -0.05456,0.1325 -0.06625,0.17538 -0.01169,0.0429 -0.01169,0.0663 -0.04286,0.12084 -0.03117,0.0546 -0.09356,0.14034 -0.167621,0.2105 -0.07406,0.0702 -0.159796,0.12472 -0.245546,0.22996 -0.08575,0.10524 -0.171501,0.26115 -0.257247,0.41705"
     id="path146"
     inkscape:path-effect="#path-effect146"
     inkscape:original-d="m 90.480757,186.50401 c -0.03898,0.0312 -0.07795,0.0624 -0.116932,0.0935 -0.01558,0.0468 -0.03118,0.0935 -0.04677,0.14031 -0.03898,0.078 -0.07795,0.15591 -0.11693,0.23387 -0.02339,0.0624 -0.04677,0.12472 -0.07016,0.18708 0,0.0234 0,0.0468 0,0.0702 -0.06236,0.0857 -0.124725,0.1715 -0.18709,0.25725 -0.08575,0.0546 -0.171497,0.10913 -0.257246,0.1637 -0.08575,0.15591 -0.171498,0.31182 -0.257247,0.46772" /><path
     style="fill:#ffcdd2;stroke-width:0.264583"
     d="m 90.320068,187.12139 c -9.34e-4,-0.004 -0.0021,-0.009 -0.0026,-0.0132 -5.09e-4,-0.004 -5.09e-4,-0.009 -0.0024,-0.0204 -0.0019,-0.0111 -0.0057,-0.0291 -0.0078,-0.0425 -0.0021,-0.0134 -0.0024,-0.0217 -0.0033,-0.031 -8.67e-4,-0.009 -0.0022,-0.0194 -0.0033,-0.0342 -0.001,-0.0148 -0.0017,-0.0345 -0.0021,-0.051 -3.49e-4,-0.0165 -3.49e-4,-0.0299 -3.49e-4,-0.0411 0,-0.0112 0,-0.0208 -3.65e-4,-0.026 -3.66e-4,-0.005 -0.001,-0.006 -0.0015,-0.007 -5.44e-4,-0.001 -9.3e-4,-0.002 -0.0037,-0.004 -0.0028,-0.001 -0.0079,-0.003 -0.01702,-0.001 -0.0091,0.002 -0.02226,0.008 -0.03271,0.0148 -0.01045,0.006 -0.0178,0.0128 -0.02985,0.025 -0.01205,0.0122 -0.02858,0.0301 -0.04075,0.043 -0.01217,0.0128 -0.01956,0.0202 -0.02586,0.0275 -0.0063,0.007 -0.01159,0.0147 -0.01829,0.0235 -0.0067,0.009 -0.01499,0.0191 -0.02001,0.0253 -0.005,0.006 -0.0067,0.008 -0.0075,0.0111 -8.81e-4,0.003 -8.81e-4,0.007 -8.81e-4,0.0159 0,0.009 0,0.0224 0,0.0311 0,0.009 0,0.0137 -0.0022,0.0188 -0.0022,0.005 -0.0061,0.0103 -0.0088,0.017 -0.0027,0.007 -0.0041,0.0153 -0.006,0.0214 -0.0019,0.006 -0.0042,0.0102 -0.0056,0.0159 -0.0014,0.006 -0.0018,0.0125 -0.0022,0.0194"
     id="path148"
     inkscape:path-effect="#path-effect148"
     inkscape:original-d="m 90.320068,187.12139 c -0.0011,-0.004 -0.0021,-0.009 -0.0031,-0.0134 0,-0.004 0,-0.009 0,-0.0134 -0.0038,-0.0179 -0.0076,-0.0358 -0.01138,-0.0537 -2.64e-4,-0.009 -7.94e-4,-0.0172 -0.0011,-0.0259 -0.0013,-0.01 -0.0028,-0.02 -0.0041,-0.03 -7.93e-4,-0.0196 -0.0013,-0.0393 -0.0021,-0.0589 0,-0.0135 0,-0.0269 0,-0.0403 0,-0.009 0,-0.0186 0,-0.0279 -7.94e-4,-0.001 -0.0013,-0.002 -0.0021,-0.003 -2.65e-4,-0.001 -7.94e-4,-0.002 -0.0011,-0.003 -0.0052,-0.002 -0.01035,-0.004 -0.01551,-0.006 -0.0131,0.006 -0.02619,0.0124 -0.03927,0.0186 -0.0076,0.007 -0.01516,0.0131 -0.02273,0.0196 -0.01654,0.0179 -0.03307,0.0358 -0.04961,0.0537 -0.0076,0.008 -0.01516,0.0152 -0.02273,0.0227 -0.0052,0.007 -0.01035,0.0145 -0.0155,0.0217 -0.0083,0.0103 -0.01654,0.0207 -0.02479,0.031 -0.0019,0.002 -0.0034,0.004 -0.0052,0.006 0,0.004 0,0.008 0,0.0124 0,0.0134 0,0.0269 0,0.0403 0,0.004 0,0.009 0,0.0134 -0.0041,0.006 -0.0083,0.011 -0.01241,0.0165 -0.0013,0.008 -0.0028,0.0165 -0.0041,0.0248 -0.0024,0.004 -0.0048,0.008 -0.0072,0.0124 -2.65e-4,0.007 -7.94e-4,0.0138 -0.0011,0.0207" /><path
     style="fill:#ffcdd2;stroke-width:0.0661458"
     d="m 103.46273,223.79737 c -0.1242,-0.4282 -0.35144,-1.50681 -0.67005,-3.18035 -0.37673,-1.97887 -0.56208,-2.42039 -1.24759,-2.97186 -0.71334,-0.57385 -1.14091,-0.70128 -3.516966,-1.04814 -2.700721,-0.39425 -4.534146,-0.80426 -6.614583,-1.4792 -1.804356,-0.58537 -2.157622,-0.66557 -2.94349,-0.66823 -0.630952,-0.002 -0.729787,0.0148 -1.079659,0.18539 -0.715848,0.34897 -1.221084,0.93554 -3.097165,3.59579 -0.584017,0.82813 -1.09361,1.49659 -1.132427,1.48548 -0.06197,-0.0177 -2.020131,-1.38518 -4.724384,-3.29916 l -0.87244,-0.61748 1.758913,-2.49642 c 0.967402,-1.37304 1.771441,-2.54352 1.786755,-2.60108 0.04173,-0.15684 -0.214812,-1.43028 -0.372813,-1.85063 -0.198142,-0.52713 -0.493782,-0.99038 -1.137225,-1.78195 -1.468527,-1.80661 -2.599682,-3.55979 -3.926332,-6.08542 -1.167616,-2.22287 -1.672912,-2.89626 -2.465196,-3.28531 -0.373433,-0.18338 -0.404644,-0.18726 -1.472923,-0.1833 -0.96003,0.004 -1.258612,0.034 -2.480468,0.25257 -0.763985,0.13669 -1.676011,0.26553 -2.026725,0.2863 -0.579508,0.0343 -0.643726,0.0264 -0.704159,-0.0872 -0.296198,-0.55665 -1.207445,-6.06883 -1.032235,-6.24405 0.105008,-0.105 1.204037,-0.36231 2.539421,-0.59454 1.674638,-0.29122 2.614549,-0.53709 3.171004,-0.8295 1.115087,-0.58596 1.426763,-1.33695 1.887067,-4.54692 0.395351,-2.75702 0.80763,-4.51234 1.634239,-6.95793 0.48261,-1.42785 0.534278,-1.87166 0.352327,-3.02641 -0.06465,-0.41027 -0.15602,-0.79059 -0.203055,-0.84516 -0.04703,-0.0546 -1.18841,-0.87312 -2.536388,-1.81901 -1.347981,-0.94588 -2.451375,-1.74373 -2.451992,-1.77299 -0.0011,-0.055 3.717052,-5.36838 3.866634,-5.52542 0.06963,-0.0731 0.39384,0.12867 1.862053,1.1588 2.59116,1.81802 3.217982,2.14867 4.074173,2.14919 0.893734,5.3e-4 1.623211,-0.3942 3.689771,-1.99664 1.576136,-1.22217 3.071497,-2.16102 5.423958,-3.40542 2.160844,-1.14303 2.661412,-1.53291 3.096297,-2.41159 0.242046,-0.48905 0.24402,-0.49973 0.238353,-1.28984 -0.004,-0.56227 -0.06763,-1.17033 -0.216125,-2.06642 -0.251529,-1.51783 -0.406546,-2.66447 -0.406546,-3.00718 0,-0.2454 0.0069,-0.25239 0.347266,-0.34946 0.630121,-0.17975 1.556157,-0.36592 3.809688,-0.76589 1.224364,-0.2173 2.256805,-0.39519 2.29431,-0.39531 0.0375,-1.2e-4 0.165992,0.60254 0.285525,1.33924 0.66584,4.10362 1.065681,5.13131 2.225972,5.72131 0.4585,0.23314 0.95824,0.34758 2.11667,0.48467 2.95274,0.34945 5.03,0.792 7.54062,1.60652 1.57619,0.51136 2.15483,0.64937 2.88163,0.68728 1.14212,0.0596 1.69228,-0.22808 2.41004,-1.26008 0.21828,-0.31385 0.41176,-0.57074 0.42995,-0.57086 0.0551,-2.7e-4 4.26508,2.97572 4.28399,3.02844 0.01,0.027 -0.19159,0.59232 -0.44726,1.25633 -1.19469,3.10281 -2.0242,6.80037 -2.35424,10.49418 -0.0618,0.69122 -0.13438,1.28161 -0.16138,1.31198 -0.0446,0.0501 -6.31135,1.16849 -6.54754,1.16849 -0.0553,0 -0.41257,-0.25482 -0.79395,-0.56626 -1.58078,-1.29088 -3.17485,-2.12175 -5.19237,-2.7064 -4.26025,-1.23458 -8.727921,-0.39729 -12.467462,2.33653 -0.996141,0.72824 -2.286776,2.20118 -3.226658,3.68242 -0.393102,0.61953 -1.076748,1.86262 -1.157364,2.10446 -0.01452,0.0435 -0.265784,-0.0697 -0.606295,-0.27316 -0.662657,-0.39604 -0.708636,-0.38929 -0.831284,0.12196 -0.0432,0.18006 -0.189211,0.49861 -0.324482,0.7079 -0.242793,0.37565 -0.489165,0.96084 -0.703149,1.67015 -0.06036,0.20009 -0.163412,0.52751 -0.228997,0.7276 -0.359092,1.09557 -0.346207,1.94761 0.05221,3.45254 0.317413,1.19893 0.572077,1.83804 0.961535,2.41307 0.572215,0.84487 1.369862,1.84912 1.661404,2.09172 0.166119,0.13824 0.302035,0.28791 0.302035,0.3326 0,0.16083 0.461365,1.03925 0.847288,1.6132 1.509483,2.24492 3.544269,4.04116 5.800368,5.12036 1.894964,0.90645 3.754051,1.32232 5.920051,1.32427 2.42618,0.002 4.30399,-0.43251 6.35,-1.46998 1.6128,-0.81779 2.88567,-1.74986 4.05874,-2.97204 0.7712,-0.80347 1.22708,-1.40656 1.88064,-2.48789 l 0.48234,-0.79806 1.23745,-0.21461 c 3.74296,-0.64913 5.40868,-0.91753 5.44238,-0.87694 0.0208,0.025 0.24109,0.49195 0.48962,1.03765 1.59355,3.499 2.73852,5.33726 5.62183,9.02588 0.4603,0.58886 0.8521,1.11023 0.87066,1.15859 0.0185,0.0484 -0.61101,1.05519 -1.39904,2.23738 l -1.43277,2.14944 -0.61847,-0.41932 c -0.68103,-0.46174 -1.12178,-0.62555 -1.67989,-0.62436 -0.78923,0.002 -1.50893,0.32295 -2.50996,1.12044 -1.09669,0.8737 -2.09766,1.60022 -3.21618,2.33436 -1.34101,0.88017 -2.07676,1.30268 -3.56841,2.04916 -0.65675,0.32867 -1.42341,0.74459 -1.7037,0.92428 -0.65192,0.41794 -1.18559,0.99155 -1.38595,1.48965 -0.13973,0.34738 -0.15344,0.4801 -0.14891,1.44096 0.005,0.96392 0.0357,1.23535 0.34878,3.04271 0.18909,1.0914 0.35031,2.02851 0.35828,2.08246 0.0115,0.0776 -0.27544,0.14943 -1.37457,0.34408 -2.20954,0.3913 -3.92022,0.65101 -4.57315,0.69429 l -0.6044,0.0401 z"
     id="path149" /><path
     style="fill:#ffcdd2;stroke-width:0.187089"
     d="m 158.84988,223.05646 c -0.049,-0.23152 -0.34808,-1.76736 -0.66465,-3.41299 -0.31657,-1.64562 -0.72009,-3.28732 -0.89671,-3.64823 -0.50455,-1.03098 -1.87957,-1.60522 -4.70159,-1.96347 -3.01739,-0.38305 -5.36861,-0.89803 -8.20547,-1.7972 -2.84153,-0.90065 -3.49874,-1.00924 -4.49106,-0.74204 -1.01388,0.27301 -1.60913,0.90444 -3.7834,4.01335 -1.18113,1.68887 -1.86518,2.50913 -2.0392,2.44525 -0.14402,-0.0529 -1.84326,-1.23995 -3.77609,-2.63797 l -3.51422,-2.54185 0.9861,-1.52246 c 0.54235,-0.83735 1.38333,-2.13378 1.86885,-2.88095 1.48231,-2.28116 1.72145,-3.22581 1.11483,-4.40377 -0.16958,-0.32931 -1.00086,-1.48274 -1.84727,-2.56318 -1.95642,-2.49734 -2.91701,-4.01018 -4.47839,-7.0531 -0.76782,-1.49635 -1.53477,-2.71621 -1.98282,-3.15372 -0.64383,-0.62868 -0.85896,-0.72223 -1.80991,-0.78702 -0.59357,-0.0404 -2.21579,0.10751 -3.60492,0.32878 -1.38913,0.22127 -2.82036,0.4464 -3.18051,0.5003 l -0.65481,0.098 -0.77359,-4.46136 c -0.42548,-2.45376 -0.75713,-4.48051 -0.73701,-4.5039 0.0201,-0.0234 1.21014,-0.25868 2.64448,-0.52286 3.94199,-0.72605 4.77037,-0.97395 5.4568,-1.63295 0.76771,-0.73703 1.10583,-1.79317 1.36263,-4.25622 0.27217,-2.61047 0.97631,-5.71792 1.98155,-8.74485 0.45251,-1.36255 0.82274,-2.77692 0.82274,-3.14302 0,-1.32492 -0.51501,-1.87615 -4.31712,-4.62081 -1.08817,-0.78554 -2.07461,-1.54405 -2.19209,-1.6856 -0.23981,-0.28896 -0.11198,-0.50043 2.99708,-4.95794 1.02273,-1.46631 1.92288,-2.66602 2.00035,-2.66602 0.0775,0 1.01758,0.60491 2.08916,1.34423 3.37341,2.32747 4.48814,2.9592 5.21377,2.95471 0.93762,-0.006 1.94439,-0.51485 3.56328,-1.80167 2.51252,-1.99712 4.05735,-2.95518 9.57165,-5.93604 0.4796,-0.25926 1.11103,-0.78558 1.40316,-1.1696 0.47566,-0.62527 0.52853,-0.83636 0.50613,-2.02055 -0.0138,-0.72729 -0.20966,-2.41681 -0.43534,-3.7545 -0.22568,-1.33768 -0.42489,-2.59235 -0.4427,-2.78815 -0.0292,-0.32153 0.40242,-0.43224 4.45774,-1.14327 2.46957,-0.433 4.49533,-0.77794 4.50168,-0.76653 0.006,0.0114 0.23689,1.2988 0.51232,2.86088 1.01737,5.77014 1.18635,5.9537 6.08758,6.6127 3.18336,0.42802 5.02583,0.84714 8.23916,1.87422 2.26222,0.72307 3.41312,0.87596 4.68272,0.62203 0.50867,-0.10173 0.90602,-0.56721 2.86445,-3.35559 l 2.27385,-3.23749 0.47976,0.33383 c 1.22512,0.85247 7.03472,4.93501 7.08894,4.98157 0.0336,0.0289 -0.69496,1.13346 -1.61903,2.4547 -2.19595,3.13977 -2.65172,4.01598 -2.65084,5.09612 7.9e-4,1.00394 0.24286,1.44667 2.03496,3.72209 1.78443,2.26567 3.13198,4.39576 4.5936,7.26115 1.53339,3.00606 2.2897,3.83405 3.60191,3.94326 0.49533,0.0412 2.41602,-0.17137 4.2682,-0.47244 1.85217,-0.30106 3.38383,-0.53385 3.40369,-0.5173 0.0726,0.0605 1.5741,8.94884 1.51826,8.98769 -0.0317,0.0221 -1.1286,0.22182 -2.43754,0.44392 -3.96055,0.67204 -4.97279,0.95074 -5.66705,1.5603 -0.77455,0.68007 -1.13897,1.74095 -1.40458,4.08899 -0.31484,2.78318 -0.8884,5.41383 -1.88446,8.64311 -0.50508,1.6375 -0.91832,3.23346 -0.91832,3.54659 0,1.38545 0.6902,2.11954 4.5369,4.82538 1.20906,0.85048 2.19829,1.58683 2.19829,1.63634 0,0.11334 -4.823,6.98785 -5.13105,7.3136 -0.18267,0.19315 -0.85856,-0.20382 -3.44333,-2.02238 l -3.21605,-2.26271 -0.88675,0.12901 c -1.18589,0.17254 -1.5538,0.37831 -4.11672,2.30249 -2.61628,1.96424 -4.87541,3.3698 -7.6643,4.76848 -2.21569,1.11121 -2.95217,1.77856 -3.1548,2.85867 -0.15692,0.83646 0.009,2.68468 0.49808,5.56168 0.20785,1.22163 0.34277,2.25627 0.29983,2.29922 -0.0826,0.0826 -8.28812,1.55558 -8.68142,1.55838 -0.12667,8e-4 -0.27038,-0.18779 -0.31937,-0.41931 z m -6.24126,-21.10327 c 0.49878,-0.49878 0.55762,-0.66484 0.46919,-1.32415 -0.0556,-0.41461 -0.2455,-0.91339 -0.42198,-1.10839 -0.17647,-0.195 -1.12849,-0.6171 -2.11558,-0.93799 -2.30839,-0.75043 -3.80242,-1.43283 -5.39242,-2.46301 -4.02155,-2.60558 -6.64919,-6.01889 -8.17646,-10.62124 -1.52796,-4.60444 -1.39105,-9.05599 0.4231,-13.75678 2.01251,-5.21479 7.40062,-10.1375 12.65828,-11.56493 6.61974,-1.79722 12.59616,-0.73201 17.81411,3.17512 4.39875,3.29373 7.00602,7.62208 7.81833,12.97925 0.34088,2.24814 0.33965,3.55698 -0.006,5.84681 -0.84771,5.62384 -4.00728,10.6471 -8.63269,13.72475 -1.71426,1.14063 -3.60866,2.00244 -6.06051,2.7571 -0.87282,0.26864 -1.86056,0.65732 -2.19498,0.86373 -0.54224,0.33467 -0.60804,0.46761 -0.60804,1.22843 0,0.66771 0.10495,0.95811 0.48285,1.33601 0.45087,0.45086 0.57169,0.47681 1.82411,0.39166 3.26912,-0.22225 8.89997,-3.00779 11.69982,-5.78781 1.17045,-1.16216 4.50717,-5.76963 5.26091,-7.26448 0.7697,-1.5265 1.66856,-4.49952 1.97501,-6.53241 1.13942,-7.55863 -1.48203,-15.3581 -6.90403,-20.54121 -1.8066,-1.727 -4.49134,-3.6361 -6.39206,-4.54533 -7.7438,-3.70436 -17.42514,-2.78016 -24.31004,2.32069 -1.88354,1.39547 -3.15039,2.6971 -4.89336,5.02771 -1.68129,2.24813 -2.53513,3.75456 -3.27111,5.7712 -0.92348,2.5304 -1.29759,4.37876 -1.41546,6.9934 -0.23648,5.24573 1.19255,10.51635 3.99819,14.74632 1.03251,1.55669 3.43472,4.12787 4.9201,5.26617 3.15922,2.42104 7.8282,4.54326 10.0704,4.57736 0.66191,0.0101 0.91352,-0.0917 1.37982,-0.55798 z m 6.97126,-8.7028 c 3.54028,-0.95506 6.35888,-3.05762 8.50402,-6.34364 2.02912,-3.1083 2.64666,-6.25333 1.9793,-10.08024 -0.84481,-4.84451 -3.4385,-8.2294 -8.11111,-10.58537 -4.19348,-2.1144 -10.00745,-1.69922 -13.99714,0.99954 -1.98536,1.34295 -4.82815,4.90644 -5.63326,7.0614 -0.81492,2.18119 -1.01253,6.26289 -0.41073,8.48355 1.27605,4.7086 4.81508,8.57041 9.25668,10.10094 2.5209,0.86868 5.98541,1.01852 8.41224,0.36382 z"
     id="path150" /></svg>
