<?xml version="1.0" encoding="UTF-8" standalone="no"?>
<!-- Created with Inkscape (http://www.inkscape.org/) -->

<svg
   width="198.95302mm"
   height="165.71391mm"
   viewBox="0 0 198.95302 165.71391"
   version="1.1"
   id="svg1"
   xml:space="preserve"
   xmlns="http://www.w3.org/2000/svg"
   xmlns:svg="http://www.w3.org/2000/svg"><defs
     id="defs1" /><g
     id="layer1"
     style="display:inline;fill:#5e35b1;fill-opacity:1"
     transform="translate(-7.1661449,-70.132434)"><path
       d="M 175.57936,228.17292 H 26.399382 c -10.939729,0 -19.890529,-8.95061 -19.890529,-19.8908 V 88.938117 c 0,-10.939803 8.9508,-19.890417 19.890529,-19.890417 h 59.672005 l 19.890773,19.890417 h 69.6172 c 10.94019,0 19.89081,8.95099 19.89081,19.890783 v 0 H 26.399382 v 99.45322 L 47.284772,128.7197 H 217.34978 l -22.8742,84.53541 c -1.98845,8.95062 -9.94522,14.91781 -18.89622,14.91781 z"
       id="path1-1"
       style="display:none;fill:#5e35b1;fill-opacity:1;stroke-width:9.94534" /><path
       d="M 85.464971,70.132424 H 26.740944 c -10.864038,0 -19.5747992,8.710761 -19.5747992,19.574799 V 207.15528 a 19.574676,19.574676 0 0 0 19.5747992,19.5748 H 183.33823 a 19.574676,19.574676 0 0 0 19.5748,-19.5748 v -97.87326 c 0,-10.864036 -8.80879,-19.574797 -19.5748,-19.574797 H 105.0394 Z"
       id="path1"
       style="display:inline;fill:#5e35b1;fill-opacity:1;stroke-width:9.78732" /></g><g
     id="layer3"
     transform="translate(-7.1661449,-70.132434)"><g
       transform="matrix(0,0.02673537,0.02673537,0,69.261327,108.18496)"
       fill="#000000"
       stroke="none"
       id="g2"
       style="fill:#d1c4e9;fill-opacity:1"><path
         d="M 548,5105 C 485,5085 399,5005 369,4938 l -24,-53 v -605 c 0,-597 0,-606 21,-651 31,-67 87,-124 152,-156 l 57,-28 h 265 265 l 57,28 c 61,30 105,74 140,140 22,40 23,55 26,280 l 3,237 h 195 194 v -128 -127 l 138,-138 137,-137 h 565 565 l 138,131 137,131 v 134 134 h 194 195 l 3,-237 3,-238 30,-54 c 33,-60 104,-122 162,-143 28,-9 107,-13 298,-13 h 260 l 57,28 c 65,32 121,89 152,156 21,45 21,54 21,651 v 605 l -24,53 c -15,32 -44,71 -78,102 -84,77 -112,82 -415,78 -253,-3 -253,-3 -304,-30 -28,-15 -70,-48 -92,-73 -66,-75 -72,-106 -72,-362 v -223 h -195 -195 v 175 175 h -840 -840 v -175 -175 h -195 -195 v 223 c 0,256 -6,287 -72,362 -22,25 -64,58 -92,73 l -51,27 -260,2 c -206,2 -270,-1 -307,-12 z"
         id="path1-8"
         style="fill:#d1c4e9;fill-opacity:1" /><path
         d="m 2091,3263 c 0,-21 19,-297 42,-613 l 42,-575 118,-3 117,-3 v -207 -207 l -73,-37 c -178,-92 -338,-306 -407,-546 l -24,-82 h -287 -288 l -3,238 -3,237 -30,54 c -33,60 -104,122 -162,143 -28,9 -107,13 -298,13 H 575 l -57,-28 c -65,-32 -121,-89 -152,-156 -21,-45 -21,-54 -21,-651 V 235 l 24,-53 C 384,150 413,111 447,80 531,3 559,-2 862,2 c 253,3 253,3 304,30 28,15 70,48 92,73 66,75 72,106 72,362 v 223 h 289 289 l 21,-63 c 32,-94 88,-184 162,-257 129,-128 281,-192 459,-194 129,-1 188,13 309,72 154,74 277,216 332,379 l 21,63 h 289 289 V 467 c 0,-256 6,-287 72,-362 22,-25 64,-58 92,-73 51,-27 51,-27 304,-30 303,-4 331,1 415,78 34,31 63,70 78,102 l 24,53 v 605 c 0,597 0,606 -21,651 -31,67 -87,124 -152,156 l -57,28 h -265 -265 l -57,-28 c -61,-30 -105,-74 -140,-140 -22,-40 -23,-55 -26,-279 l -3,-238 h -288 -287 l -24,82 c -69,240 -229,454 -407,546 l -73,37 v 207 207 l 117,3 118,3 42,575 c 23,316 42,592 42,613 l 1,37 h -470 -470 z"
         id="path2"
         style="fill:#d1c4e9;fill-opacity:1" /></g></g><style
     type="text/css"
     id="style1">
	.st0{fill:#08743B;stroke:#CF2027;stroke-miterlimit:10;}
</style><style
     type="text/css"
     id="style1-6">
	.st0{fill:#08743B;stroke:#CF2027;stroke-miterlimit:10;}
</style></svg>
